<?xml version="1.0" standalone="no"?>
<!DOCTYPE svg PUBLIC "-//W3C//DTD SVG 20010904//EN"
 "http://www.w3.org/TR/2001/REC-SVG-20010904/DTD/svg10.dtd">
<svg version="1.0" xmlns="http://www.w3.org/2000/svg"
 width="480.000000pt" height="480.000000pt" viewBox="0 0 480.000000 480.000000"
 preserveAspectRatio="xMidYMid meet">
<metadata>
Created by potrace 1.14, written by Peter Selinger 2001-2017
</metadata>
<g transform="translate(0.000000,480.000000) scale(0.100000,-0.100000)"
fill="#000000" stroke="none">
<path d="M1586 4482 c-3 -5 1 -9 9 -9 8 0 12 4 9 9 -3 4 -7 8 -9 8 -2 0 -6 -4
-9 -8z"/>
<path d="M1627 4479 c7 -7 15 -10 18 -7 3 3 -2 9 -12 12 -14 6 -15 5 -6 -5z"/>
<path d="M195 4459 c5 -14 -5 -16 -70 -16 -42 0 -78 -3 -81 -6 -7 -7 -8 -302
-1 -314 4 -5 37 -9 74 -8 37 0 74 -3 81 -8 7 -6 12 -6 12 0 0 5 9 9 20 9 25 0
26 -13 3 -19 -17 -4 -17 -5 0 -6 10 0 20 6 23 14 6 14 8 13 21 -2 8 -10 12
-13 8 -6 -4 9 7 12 38 11 l43 0 0 -84 c1 -46 -3 -81 -8 -78 -4 3 -8 0 -8 -5 0
-6 5 -11 10 -11 6 0 10 -9 10 -21 0 -13 -4 -18 -12 -13 -10 6 -10 5 -1 -7 13
-16 12 -36 -1 -58 -6 -10 -5 -12 2 -7 20 12 14 -45 -5 -60 -17 -13 -17 -14 0
-8 14 5 18 2 15 -12 -2 -11 -7 -22 -13 -26 -6 -5 -5 -8 3 -8 7 0 12 -14 12
-36 0 -19 -4 -33 -8 -30 -5 3 -9 -1 -9 -9 0 -8 4 -12 9 -9 4 3 8 -2 8 -10 0
-10 -7 -13 -20 -11 -12 2 -18 0 -15 -6 4 -5 11 -7 16 -4 19 12 21 -26 3 -48
-11 -13 -13 -17 -3 -10 13 11 15 3 17 -63 2 -49 -1 -73 -8 -69 -5 3 -10 1 -10
-4 0 -6 5 -11 10 -11 6 0 10 -37 10 -90 l0 -89 73 -3 c44 -2 70 -7 67 -13 -3
-5 -9 -9 -15 -7 -5 2 -6 0 -2 -4 16 -16 35 -12 32 7 -3 15 2 19 23 19 21 0 24
-2 12 -10 -9 -6 -10 -10 -3 -10 6 0 15 5 18 10 4 6 12 10 18 9 7 -1 44 -1 84
0 l71 1 -5 31 c-3 22 -1 29 7 24 9 -6 9 -2 1 13 -8 14 -8 23 -1 27 7 4 7 11 2
18 -10 14 -10 67 1 84 4 6 4 14 0 16 -5 3 -8 52 -8 109 1 75 4 102 13 101 7
-2 12 2 12 7 0 6 -6 10 -14 10 -9 0 -13 10 -12 25 1 18 5 24 16 20 13 -4 13
-4 0 7 -21 18 -21 80 0 73 13 -4 13 -3 0 7 -21 17 -21 90 0 100 13 6 13 7 -1
7 -13 1 -16 13 -15 59 1 36 6 61 15 68 11 9 12 12 1 19 -9 6 -11 4 -5 -5 5 -7
4 -11 -1 -7 -7 4 -9 36 -5 80 1 4 17 7 37 7 21 0 33 -4 29 -10 -4 -6 -10 -8
-15 -5 -5 3 -8 -4 -7 -15 1 -20 2 -20 19 2 10 13 18 26 18 30 0 4 12 3 26 -2
16 -7 23 -7 19 0 -3 6 -1 10 4 10 6 0 11 -8 12 -17 0 -15 2 -15 7 -3 5 12 26
15 90 15 l82 -1 1 66 c1 119 -2 255 -6 258 -2 3 -49 5 -104 5 -60 1 -97 5 -94
11 4 5 1 6 -7 1 -22 -13 -110 -15 -110 -2 0 8 -3 8 -8 2 -10 -14 -105 -15
-114 -1 -6 8 -8 7 -8 -1 0 -7 -5 -13 -11 -13 -5 0 -7 6 -3 13 6 9 4 9 -7 1
-18 -14 -82 -14 -91 0 -5 8 -8 7 -8 -1 0 -7 -5 -13 -11 -13 -5 0 -7 5 -3 12 5
8 3 8 -7 2 -8 -5 -70 -9 -139 -10 -103 -1 -127 2 -138 15 -11 15 -12 15 -7 0z"/>
<path d="M425 4460 c-3 -6 1 -7 9 -4 18 7 21 14 7 14 -6 0 -13 -4 -16 -10z"/>
<path d="M545 4460 c-3 -6 1 -7 9 -4 18 7 21 14 7 14 -6 0 -13 -4 -16 -10z"/>
<path d="M665 4460 c-3 -6 1 -7 9 -4 18 7 21 14 7 14 -6 0 -13 -4 -16 -10z"/>
<path d="M785 4460 c-3 -6 1 -7 9 -4 18 7 21 14 7 14 -6 0 -13 -4 -16 -10z"/>
<path d="M1779 4463 c-1 -5 -1 -11 -1 -14 1 -4 -69 -7 -156 -7 -237 -1 -219 1
-225 -24 -11 -49 -50 -148 -58 -148 -5 0 -5 -7 -2 -17 4 -10 2 -14 -4 -10 -7
5 -9 -1 -5 -15 3 -14 1 -19 -6 -14 -8 4 -10 2 -6 -7 3 -8 -1 -21 -8 -28 -7 -8
-14 -27 -16 -44 -2 -16 -8 -35 -13 -41 -5 -6 -6 -14 -2 -17 3 -4 0 -7 -7 -7
-7 0 -11 -3 -7 -6 3 -3 -3 -25 -13 -49 -10 -24 -16 -45 -13 -48 8 -8 -30 -25
-50 -22 -9 2 -15 -1 -12 -5 3 -5 17 -7 30 -4 24 4 25 3 13 -18 -7 -13 -15 -25
-18 -28 -3 -3 -6 -15 -8 -27 -2 -12 -20 -66 -41 -120 -21 -54 -42 -113 -45
-130 -4 -18 -11 -33 -15 -33 -4 0 -7 -10 -8 -22 -1 -11 -7 -24 -13 -28 -7 -4
-11 -10 -11 -14 2 -17 -13 -67 -20 -72 -5 -3 -6 -10 -3 -16 5 -8 1 -9 -11 -4
-16 6 -16 4 -4 -11 13 -15 12 -16 -6 -9 -16 6 -18 5 -7 -5 14 -15 17 -43 3
-35 -5 3 -8 0 -7 -7 2 -20 -35 -117 -44 -117 -5 0 -7 -7 -4 -15 4 -10 20 -15
52 -15 29 0 53 -6 66 -17 19 -17 20 -17 7 -1 -12 16 -8 17 58 17 47 -1 71 -5
71 -12 0 -7 5 -5 10 3 9 13 11 13 20 0 6 -9 10 -10 10 -3 0 8 16 12 43 11 58
-1 87 9 80 28 -3 7 -1 14 3 14 5 0 10 14 11 31 3 38 11 48 23 29 13 -19 13 -4
1 19 -6 11 -6 22 0 32 8 11 12 11 16 2 2 -7 12 -13 21 -13 13 0 14 2 3 9 -9 6
-5 9 14 9 19 -1 23 -4 16 -11 -6 -6 -11 -15 -11 -21 0 -5 6 -1 14 9 14 19 62
33 51 15 -3 -5 -1 -10 4 -10 6 0 11 4 11 8 0 5 25 9 55 9 36 0 52 -4 48 -11
-4 -6 1 -5 11 3 15 13 19 13 27 0 6 -10 9 -10 9 -1 0 6 7 12 16 12 8 0 12 -5
9 -11 -4 -6 3 -5 14 3 18 11 23 11 31 -2 5 -8 10 -10 10 -3 0 6 15 11 35 11
31 0 40 -7 36 -30 -2 -12 17 -10 24 2 3 6 1 10 -4 10 -6 0 -11 5 -11 11 0 8 4
8 14 0 8 -7 13 -21 11 -32 -2 -10 1 -19 7 -19 6 0 8 -3 5 -7 -4 -3 -2 -12 3
-18 6 -7 12 -27 13 -44 l2 -31 78 0 c55 0 77 -4 77 -12 0 -10 2 -10 8 -1 5 8
45 11 134 10 118 -2 125 -1 117 16 -6 9 -7 22 -4 27 3 6 2 10 -3 10 -9 0 -22
29 -26 55 -1 6 -7 19 -13 30 -6 11 -11 22 -11 25 0 3 -6 18 -12 34 -8 21 -7
32 1 42 9 11 6 16 -12 23 -13 5 -18 10 -10 10 12 1 12 3 -1 14 -35 28 -26 68
14 62 10 -2 20 0 23 4 5 10 -42 8 -51 -2 -10 -9 -24 -9 -22 1 1 4 -4 21 -11
37 -14 32 -22 62 -23 83 -1 6 -5 12 -10 12 -4 0 -8 8 -8 18 0 10 -6 24 -12 31
-11 11 -10 12 1 6 11 -6 10 -2 -2 15 -12 18 -14 27 -5 37 8 10 7 12 -4 8 -10
-4 -17 1 -21 14 -3 14 -1 18 12 15 9 -3 6 1 -6 7 -21 11 -28 28 -24 53 1 5 -3
12 -10 16 -6 4 -11 19 -11 34 0 14 -4 23 -9 20 -5 -3 -9 -1 -9 5 0 5 5 13 10
16 6 3 10 12 9 18 0 9 -2 9 -6 0 -2 -7 -9 -13 -14 -13 -6 0 -7 5 -4 10 3 6 1
10 -4 10 -6 0 -11 5 -11 11 0 5 6 7 13 3 6 -4 3 2 -7 14 -11 12 -15 22 -10 22
5 0 4 4 -3 8 -6 4 -13 16 -15 27 -1 11 -7 23 -13 27 -6 5 -4 8 4 8 11 0 9 4
-4 14 -19 14 -19 15 0 37 17 20 17 21 2 9 -16 -12 -20 -12 -28 1 -5 8 -7 20
-4 27 2 6 1 12 -3 12 -6 0 -28 52 -35 87 -2 7 -6 16 -10 19 -4 4 -7 14 -7 23
-1 9 -9 32 -18 51 -16 31 -21 34 -62 35 -31 0 -44 4 -42 13 1 6 0 12 -3 12 -3
0 -6 -3 -6 -7z m-113 -428 c-2 -7 1 -23 8 -37 7 -13 10 -30 8 -37 -3 -8 0 -11
7 -7 7 4 9 2 5 -7 -3 -8 -1 -18 5 -22 19 -11 12 -34 -9 -32 -11 1 -18 6 -16
12 2 5 10 9 17 7 11 -3 11 -1 2 9 -9 9 -17 5 -36 -17 -14 -16 -23 -31 -21 -34
3 -2 8 0 12 6 9 13 42 14 42 1 0 -5 7 -7 15 -3 8 3 15 1 15 -4 0 -16 -19 -21
-39 -10 -24 12 -35 -1 -26 -30 8 -26 27 -26 43 0 7 11 17 20 23 20 6 0 1 -13
-10 -29 -18 -24 -19 -30 -6 -35 8 -3 22 -2 32 1 9 4 14 2 10 -4 -3 -5 0 -21 8
-36 8 -15 10 -27 5 -27 -13 0 -31 36 -22 46 4 5 -1 2 -10 -5 -10 -7 -18 -9
-18 -3 0 5 -7 12 -14 15 -9 4 -13 1 -10 -6 2 -8 -4 -13 -17 -14 -17 -2 -18 1
-9 13 14 16 14 16 -18 19 -13 1 -26 -4 -29 -12 -4 -11 -10 -10 -28 7 -17 16
-25 18 -30 9 -6 -8 -4 -10 5 -4 9 5 10 2 5 -14 -4 -13 -2 -21 5 -21 6 0 8 5 5
10 -3 6 -2 10 4 10 5 0 12 -6 15 -12 3 -10 8 -9 18 2 7 8 22 17 33 18 15 3 17
1 8 -8 -6 -7 -9 -18 -7 -25 6 -14 -24 -41 -34 -30 -4 4 -1 10 6 12 6 3 12 9
12 15 0 7 -4 7 -12 1 -7 -6 -30 -9 -51 -8 -28 2 -35 -1 -27 -10 5 -6 6 -16 2
-20 -4 -5 -1 -5 7 0 10 6 12 4 6 -6 -5 -8 -4 -11 1 -6 5 5 9 14 9 19 0 6 5 13
12 15 7 3 11 -3 8 -15 -2 -14 1 -19 13 -17 9 2 20 4 24 4 4 1 17 11 28 23 22
23 84 35 77 14 -2 -6 -12 -10 -22 -8 -11 2 -15 -2 -13 -10 3 -7 14 -12 26 -12
12 1 19 -3 16 -7 -3 -5 0 -9 6 -9 7 0 10 7 6 15 -5 13 -2 14 15 4 11 -6 18
-14 14 -17 -9 -10 -95 -9 -89 0 3 4 0 16 -5 25 -8 15 -11 15 -12 3 -1 -8 -1
-21 0 -27 1 -7 -3 -13 -9 -13 -5 0 -10 5 -10 10 0 6 -5 10 -11 10 -5 0 -8 -4
-5 -8 2 -4 -24 -8 -59 -7 -40 0 -61 4 -57 10 4 5 7 18 7 28 0 10 7 22 15 27
13 9 13 10 0 10 -9 0 -11 3 -5 8 6 4 11 15 13 26 2 10 8 30 14 45 6 14 11 29
10 33 -1 4 6 24 15 45 17 40 23 59 25 81 1 6 5 12 10 12 5 0 7 4 4 8 -2 4 -1
14 3 21 6 9 11 10 15 2 4 -6 2 -11 -4 -11 -6 0 -8 -5 -4 -11 5 -8 10 -6 16 5
5 9 6 21 2 28 -5 7 -3 8 5 4 7 -5 10 -14 7 -21z m22 -197 c-5 -15 -23 -11 -26
6 -2 11 2 14 13 10 9 -4 14 -11 13 -16z m44 -40 c-15 -15 -24 -6 -16 16 5 12
10 14 17 7 8 -8 8 -14 -1 -23z"/>
<path d="M1627 3996 c-3 -8 -2 -18 3 -21 6 -4 10 -11 10 -17 0 -6 -7 -5 -17 3
-10 8 -14 9 -10 2 4 -6 2 -15 -3 -18 -7 -5 -5 -12 7 -21 25 -18 31 -17 38 6 4
11 10 18 14 16 11 -7 7 26 -7 49 -8 14 -12 16 -12 5 0 -12 -2 -12 -9 -2 -7 11
-9 11 -14 -2z m41 -15 c1 -1 -5 -15 -13 -31 -15 -28 -35 -33 -35 -9 0 6 4 8 9
4 15 -9 24 14 11 30 -10 12 -2 14 28 6z"/>
<path d="M1603 3913 c4 -3 -1 -11 -9 -18 -15 -11 -15 -12 0 -12 9 0 16 4 16 9
0 5 6 6 13 2 8 -5 8 -2 -2 9 -7 9 -16 17 -19 17 -3 0 -2 -3 1 -7z"/>
<path d="M1589 3857 c-1 -7 -1 -15 0 -19 0 -5 -3 -8 -9 -8 -5 0 -10 -5 -10
-11 0 -8 6 -7 16 2 15 12 16 11 10 -9 -5 -15 -3 -22 5 -22 7 0 9 3 6 6 -10 10
13 45 25 38 7 -5 8 -1 0 11 -11 21 -41 29 -43 12z m26 -16 c-3 -6 -11 -8 -17
-5 -6 4 -5 9 3 15 16 10 23 4 14 -10z"/>
<path d="M1628 3803 c7 -3 16 -2 19 1 4 3 -2 6 -13 5 -11 0 -14 -3 -6 -6z"/>
<path d="M2579 4463 c-1 -5 -1 -11 -1 -14 1 -3 -37 -6 -84 -6 -47 0 -87 -3
-91 -6 -3 -4 -6 -36 -5 -72 0 -36 -3 -63 -8 -60 -5 3 -12 1 -15 -5 -4 -6 -1
-9 7 -8 16 4 19 -50 4 -71 -8 -11 -8 -13 0 -8 14 8 16 -41 2 -67 -6 -11 -6
-16 0 -12 14 8 13 -116 -1 -133 -8 -10 -8 -13 -1 -8 14 8 14 -151 0 -172 -6
-10 -5 -12 2 -7 8 5 11 -17 10 -73 -1 -48 -5 -78 -10 -74 -6 3 -5 -4 1 -15 14
-27 14 -35 -1 -26 -10 6 -10 5 -1 -7 13 -17 13 -100 0 -92 -6 4 -7 1 -1 -8 15
-25 14 -137 -2 -143 -16 -6 -19 -26 -3 -26 5 0 7 5 4 10 -3 6 -2 10 4 10 5 0
9 -24 9 -52 -1 -98 1 -108 20 -108 10 0 24 -6 31 -12 11 -10 13 -10 7 0 -5 8
1 12 19 12 15 0 24 -4 20 -10 -3 -5 -2 -10 4 -10 5 0 12 6 14 13 4 9 8 9 16
-3 5 -8 7 -18 4 -24 -3 -5 -1 -6 5 -2 6 4 9 13 5 21 -6 18 8 19 26 3 11 -10
13 -10 7 0 -4 6 -2 12 3 12 6 0 11 -6 11 -12 0 -10 2 -10 8 -1 9 14 54 13 64
-2 5 -6 8 -6 8 3 0 6 5 12 11 12 5 0 7 -6 3 -12 -6 -10 -4 -10 7 -2 8 6 25 11
39 12 19 1 21 -1 10 -8 -8 -5 -10 -10 -4 -10 5 0 16 6 22 12 10 10 15 10 22
-2 7 -10 10 -11 10 -2 0 18 18 15 23 -5 4 -17 5 -17 6 0 0 9 6 17 12 17 5 0 7
-5 3 -12 -5 -7 -3 -8 7 -2 8 5 41 10 73 11 38 1 54 -2 45 -7 -10 -7 -8 -9 8
-7 12 0 20 4 18 8 -3 3 24 6 58 7 36 0 65 -5 69 -11 6 -9 8 -8 8 1 0 10 15 13
53 11 66 -3 79 4 67 35 -5 13 -6 27 -2 30 9 9 8 106 -1 106 -4 0 -4 8 0 18 13
28 8 137 -6 134 -6 -1 -21 3 -33 9 -11 6 -18 7 -15 2 3 -5 -12 -9 -34 -9 -21
0 -39 4 -39 9 0 5 -8 3 -17 -4 -11 -10 -14 -10 -9 -1 4 6 3 12 -3 12 -5 0 -11
-6 -14 -12 -3 -9 -10 -7 -23 7 -10 12 -15 15 -10 8 5 -9 4 -13 -5 -14 -49 -5
-75 -3 -81 6 -5 6 -8 4 -8 -5 0 -12 -2 -13 -9 -1 -6 8 -14 10 -22 5 -8 -5 -19
-9 -26 -10 -16 -3 -36 23 -28 36 4 6 -2 7 -17 1 -13 -4 -29 -6 -35 -4 -7 3
-13 0 -13 -7 0 -6 4 -9 9 -6 5 3 11 0 14 -7 3 -8 -1 -14 -9 -14 -8 0 -14 4
-14 9 0 5 -4 6 -10 3 -11 -7 -2 23 13 43 8 11 12 11 18 0 7 -10 9 -9 9 5 0 19
-15 23 -25 7 -11 -18 -20 -10 -21 20 -1 17 3 30 8 30 5 0 6 6 1 13 -13 20 -14
49 -2 41 8 -4 8 0 0 15 -11 20 -10 21 21 16 18 -3 30 -3 26 0 -5 6 -28 12 -50
14 -5 1 -8 6 -8 12 0 5 5 7 12 3 7 -5 8 -3 2 7 -13 20 -12 159 1 152 5 -3 4 0
-2 8 -7 7 -13 20 -13 28 0 14 2 14 11 1 9 -12 9 -11 4 5 -4 11 -9 35 -10 53
-3 28 -1 31 11 21 7 -6 11 -16 7 -22 -4 -6 -1 -7 6 -2 9 5 7 13 -8 29 -17 18
-18 25 -8 36 6 7 7 10 2 7 -14 -7 -14 165 0 175 6 5 5 8 -4 8 -11 0 -11 3 -1
15 10 12 10 19 2 27 -7 7 -8 17 -2 29 6 10 6 20 1 23 -4 3 -7 21 -6 41 2 39
13 35 -120 38 -50 2 -69 6 -67 15 1 6 0 12 -3 12 -3 0 -6 -3 -6 -7z m266 -912
c3 -5 1 -12 -4 -15 -5 -3 -11 1 -15 9 -6 16 9 21 19 6z"/>
<path d="M2650 4460 c0 -5 5 -10 11 -10 5 0 7 5 4 10 -3 6 -8 10 -11 10 -2 0
-4 -4 -4 -10z"/>
<path d="M15 4291 c-3 -5 -2 -12 3 -15 5 -3 9 1 9 9 0 17 -3 19 -12 6z"/>
<path d="M1270 4240 c0 -5 5 -10 11 -10 5 0 7 5 4 10 -3 6 -8 10 -11 10 -2 0
-4 -4 -4 -10z"/>
<path d="M1976 4213 c-6 -14 -5 -15 5 -6 7 7 10 15 7 18 -3 3 -9 -2 -12 -12z"/>
<path d="M1255 4160 c-3 -5 -1 -10 4 -10 6 0 11 5 11 10 0 6 -2 10 -4 10 -3 0
-8 -4 -11 -10z"/>
<path d="M2815 4140 c3 -5 8 -10 11 -10 2 0 4 5 4 10 0 6 -5 10 -11 10 -5 0
-7 -4 -4 -10z"/>
<path d="M1216 4102 c-3 -5 1 -9 9 -9 8 0 12 4 9 9 -3 4 -7 8 -9 8 -2 0 -6 -4
-9 -8z"/>
<path d="M285 4078 l-20 -21 23 12 c12 6 22 16 22 21 0 13 -2 12 -25 -12z"/>
<path d="M754 4089 c-5 -8 -3 -9 6 -4 10 6 12 3 8 -13 -4 -12 -2 -20 3 -16 12
7 12 31 0 39 -5 3 -13 0 -17 -6z"/>
<path d="M910 4096 c0 -2 8 -10 18 -17 15 -13 16 -12 3 4 -13 16 -21 21 -21
13z"/>
<path d="M331 4068 c14 -27 24 -28 25 -3 1 17 -3 23 -16 22 -14 -1 -16 -5 -9
-19z"/>
<path d="M950 4086 c0 -2 7 -7 16 -10 8 -3 12 -2 9 4 -6 10 -25 14 -25 6z"/>
<path d="M895 4069 c-4 -6 -5 -12 -2 -15 2 -3 7 2 10 11 7 17 1 20 -8 4z"/>
<path d="M313 4052 c0 -12 5 -22 9 -22 11 0 10 12 -2 30 -7 12 -9 10 -7 -8z"/>
<path d="M828 4063 c6 -2 18 -2 25 0 6 3 1 5 -13 5 -14 0 -19 -2 -12 -5z"/>
<path d="M2047 4059 c7 -7 15 -10 18 -7 3 3 -2 9 -12 12 -14 6 -15 5 -6 -5z"/>
<path d="M1233 4043 c4 -3 1 -13 -6 -22 -11 -14 -10 -14 6 -2 20 15 22 31 5
31 -6 0 -8 -3 -5 -7z"/>
<path d="M2076 4033 c-6 -14 -5 -15 5 -6 7 7 10 15 7 18 -3 3 -9 -2 -12 -12z"/>
<path d="M2375 4029 c-4 -6 -5 -12 -2 -15 2 -3 7 2 10 11 7 17 1 20 -8 4z"/>
<path d="M264 4022 c4 -3 14 -7 22 -8 9 -1 13 0 10 4 -4 3 -14 7 -22 8 -9 1
-13 0 -10 -4z"/>
<path d="M335 4021 c-6 -11 13 -26 22 -17 4 3 1 6 -6 6 -7 0 -9 5 -6 10 3 6 4
10 1 10 -3 0 -7 -4 -11 -9z"/>
<path d="M766 4002 c-3 -5 1 -9 9 -9 8 0 15 4 15 9 0 4 -4 8 -9 8 -6 0 -12 -4
-15 -8z"/>
<path d="M315 3991 c-3 -5 -2 -12 3 -15 5 -3 9 1 9 9 0 17 -3 19 -12 6z"/>
<path d="M2375 3909 c-4 -6 -5 -12 -2 -15 2 -3 7 2 10 11 7 17 1 20 -8 4z"/>
<path d="M1150 3896 c0 -2 8 -10 18 -17 15 -13 16 -12 3 4 -13 16 -21 21 -21
13z"/>
<path d="M335 3860 c-3 -5 -1 -10 4 -10 6 0 11 5 11 10 0 6 -2 10 -4 10 -3 0
-8 -4 -11 -10z"/>
<path d="M760 3860 c-12 -7 -10 -9 7 -7 12 0 19 5 17 9 -6 10 -6 10 -24 -2z"/>
<path d="M2815 3820 c-3 -5 -1 -10 4 -10 6 0 11 5 11 10 0 6 -2 10 -4 10 -3 0
-8 -4 -11 -10z"/>
<path d="M1149 3803 c-13 -16 -12 -17 4 -4 9 7 17 15 17 17 0 8 -8 3 -21 -13z"/>
<path d="M2375 3769 c-4 -6 -5 -12 -2 -15 2 -3 7 2 10 11 7 17 1 20 -8 4z"/>
<path d="M1113 3715 c0 -8 4 -12 9 -9 5 3 6 10 3 15 -9 13 -12 11 -12 -6z"/>
<path d="M2187 3699 c7 -7 15 -10 18 -7 3 3 -2 9 -12 12 -14 6 -15 5 -6 -5z"/>
<path d="M2194 3636 c0 -12 6 -23 13 -23 9 0 10 4 3 12 -5 7 -7 14 -4 17 3 3
1 8 -3 11 -5 3 -9 -5 -9 -17z"/>
<path d="M2855 3651 c-3 -5 -2 -12 3 -15 5 -3 9 1 9 9 0 17 -3 19 -12 6z"/>
<path d="M2250 3639 c0 -5 5 -7 10 -4 6 3 10 8 10 11 0 2 -4 4 -10 4 -5 0 -10
-5 -10 -11z"/>
<path d="M1056 3622 c-3 -5 1 -9 9 -9 8 0 12 4 9 9 -3 4 -7 8 -9 8 -2 0 -6 -4
-9 -8z"/>
<path d="M2296 3618 c3 -5 10 -6 15 -3 13 9 11 12 -6 12 -8 0 -12 -4 -9 -9z"/>
<path d="M2356 3622 c-2 -4 -1 -14 4 -22 7 -11 9 -9 7 8 -1 24 -3 26 -11 14z"/>
<path d="M2853 3607 c0 -8 6 -14 14 -14 9 0 10 4 2 14 -6 7 -12 13 -14 13 -1
0 -2 -6 -2 -13z"/>
<path d="M2970 3606 c0 -2 7 -7 16 -10 8 -3 12 -2 9 4 -6 10 -25 14 -25 6z"/>
<path d="M2880 3580 c-9 -6 -10 -10 -3 -10 6 0 15 5 18 10 8 12 4 12 -15 0z"/>
<path d="M2915 3581 c-3 -5 -2 -12 3 -15 5 -3 9 1 9 9 0 17 -3 19 -12 6z"/>
<path d="M2333 3565 c0 -8 4 -12 9 -9 5 3 6 10 3 15 -9 13 -12 11 -12 -6z"/>
<path d="M2976 3562 c-3 -4 4 -9 15 -9 23 -2 25 3 4 10 -8 4 -16 3 -19 -1z"/>
<path d="M2870 3556 c0 -2 7 -7 16 -10 8 -3 12 -2 9 4 -6 10 -25 14 -25 6z"/>
<path d="M2358 3543 c7 -3 16 -2 19 1 4 3 -2 6 -13 5 -11 0 -14 -3 -6 -6z"/>
<path d="M2361 3519 c-1 -9 7 -23 17 -30 15 -12 16 -12 6 1 -6 8 -14 22 -17
30 -5 13 -6 12 -6 -1z"/>
<path d="M766 3502 c-3 -5 1 -9 9 -9 8 0 12 4 9 9 -3 4 -7 8 -9 8 -2 0 -6 -4
-9 -8z"/>
<path d="M2258 3498 c5 -5 16 -8 23 -6 8 3 3 7 -10 11 -17 4 -21 3 -13 -5z"/>
<path d="M2310 3480 c0 -6 4 -9 9 -6 5 4 12 1 14 -4 3 -6 4 -5 3 2 -3 15 -26
23 -26 8z"/>
<path d="M2353 3465 c0 -8 7 -11 16 -7 14 5 14 3 2 -11 -7 -9 -11 -17 -8 -17
2 0 10 6 16 14 10 12 8 17 -7 25 -14 7 -19 7 -19 -4z"/>
<path d="M2270 3435 c-11 -13 -10 -14 4 -9 9 3 16 10 16 15 0 13 -6 11 -20 -6z"/>
<path d="M2336 3436 c5 -13 4 -17 -4 -13 -12 8 -62 -12 -62 -25 0 -5 11 -1 25
8 13 8 29 13 34 10 15 -10 25 14 12 27 -9 9 -10 7 -5 -7z"/>
<path d="M2374 3415 c-4 -8 -10 -12 -15 -9 -5 3 -6 -3 -2 -12 4 -11 8 -13 11
-6 2 7 7 10 11 8 4 -3 7 4 7 15 0 23 -5 24 -12 4z"/>
<path d="M2297 3378 c2 -5 13 -8 23 -8 10 0 21 3 23 8 3 4 -8 7 -23 7 -15 0
-26 -3 -23 -7z"/>
<path d="M2287 3359 c7 -7 15 -10 18 -7 3 3 -2 9 -12 12 -14 6 -15 5 -6 -5z"/>
<path d="M1810 3328 c-15 -21 -17 -28 -6 -19 16 13 41 51 33 51 -2 0 -14 -15
-27 -32z"/>
<path d="M320 3340 c-12 -7 -10 -9 7 -7 12 0 19 5 17 9 -6 10 -6 10 -24 -2z"/>
<path d="M970 3339 c0 -5 5 -7 10 -4 6 3 10 8 10 11 0 2 -4 4 -10 4 -5 0 -10
-5 -10 -11z"/>
<path d="M1746 3342 c-3 -5 1 -9 9 -9 8 0 12 4 9 9 -3 4 -7 8 -9 8 -2 0 -6 -4
-9 -8z"/>
<path d="M3250 3340 c0 -5 5 -10 11 -10 5 0 7 5 4 10 -3 6 -8 10 -11 10 -2 0
-4 -4 -4 -10z"/>
<path d="M1496 3327 c3 -10 9 -15 12 -12 3 3 0 11 -7 18 -10 9 -11 8 -5 -6z"/>
<path d="M2307 3326 c-4 -10 -1 -13 9 -9 15 6 19 23 5 23 -5 0 -11 -7 -14 -14z"/>
<path d="M1640 3320 c-9 -6 -10 -10 -3 -10 6 0 15 5 18 10 8 12 4 12 -15 0z"/>
<path d="M1750 3306 c0 -2 7 -7 16 -10 8 -3 12 -2 9 4 -6 10 -25 14 -25 6z"/>
<path d="M2320 3300 c-9 -6 -10 -10 -3 -10 6 0 15 5 18 10 8 12 4 12 -15 0z"/>
<path d="M2353 3291 c-1 -11 6 -26 15 -33 15 -11 15 -11 4 3 -7 9 -10 24 -6
33 3 9 2 16 -3 16 -5 0 -9 -9 -10 -19z"/>
<path d="M2375 3220 c-3 -5 -1 -10 4 -10 6 0 11 5 11 10 0 6 -2 10 -4 10 -3 0
-8 -4 -11 -10z"/>
<path d="M653 3185 c0 -8 4 -12 9 -9 5 3 6 10 3 15 -9 13 -12 11 -12 -6z"/>
<path d="M1274 3180 c0 -13 4 -16 10 -10 7 7 7 13 0 20 -6 6 -10 3 -10 -10z"/>
<path d="M615 3180 c3 -5 8 -10 11 -10 2 0 4 5 4 10 0 6 -5 10 -11 10 -5 0 -7
-4 -4 -10z"/>
<path d="M2907 3173 c3 -7 6 -13 8 -13 1 0 7 6 13 13 8 10 6 13 -7 13 -11 0
-17 -6 -14 -13z"/>
<path d="M2999 3188 c-5 -15 -4 -50 1 -53 3 -2 6 9 6 26 0 24 -3 37 -7 27z"/>
<path d="M3026 3178 c3 -5 10 -6 15 -3 13 9 11 12 -6 12 -8 0 -12 -4 -9 -9z"/>
<path d="M3067 3179 c7 -9 10 -19 6 -22 -3 -4 -1 -7 5 -7 17 0 15 16 -5 31
-16 12 -17 12 -6 -2z"/>
<path d="M550 3176 c0 -2 8 -10 18 -17 15 -13 16 -12 3 4 -13 16 -21 21 -21
13z"/>
<path d="M2775 3170 c-4 -6 -11 -7 -17 -4 -7 4 -8 2 -4 -5 6 -9 11 -9 22 0 14
11 18 19 10 19 -3 0 -8 -5 -11 -10z"/>
<path d="M2035 3159 c-3 -4 2 -6 10 -5 21 3 28 13 10 13 -9 0 -18 -4 -20 -8z"/>
<path d="M2813 3153 c0 -9 4 -10 14 -2 7 6 13 12 13 14 0 1 -6 2 -13 2 -8 0
-14 -6 -14 -14z"/>
<path d="M2890 3161 c0 -6 4 -13 10 -16 6 -3 7 1 4 9 -7 18 -14 21 -14 7z"/>
<path d="M1253 3143 c4 -3 1 -13 -6 -22 -11 -14 -10 -14 5 -2 16 12 16 31 1
31 -4 0 -3 -3 0 -7z"/>
<path d="M2815 3121 c-3 -5 -2 -12 3 -15 5 -3 9 1 9 9 0 17 -3 19 -12 6z"/>
<path d="M2855 3121 c3 -3 17 -6 31 -7 13 0 22 2 19 5 -3 3 -17 6 -31 7 -13 0
-22 -2 -19 -5z"/>
<path d="M635 3109 c-4 -6 -5 -12 -2 -15 2 -3 7 2 10 11 7 17 1 20 -8 4z"/>
<path d="M2696 3102 c-2 -4 -1 -14 4 -22 7 -11 9 -9 7 8 -1 24 -3 26 -11 14z"/>
<path d="M2975 3101 c-3 -5 -2 -12 3 -15 5 -3 9 1 9 9 0 17 -3 19 -12 6z"/>
<path d="M1856 3087 c3 -10 9 -15 12 -12 3 3 0 11 -7 18 -10 9 -11 8 -5 -6z"/>
<path d="M2810 3081 c0 -6 4 -13 10 -16 6 -3 7 1 4 9 -7 18 -14 21 -14 7z"/>
<path d="M1396 3067 c3 -10 9 -15 12 -12 3 3 0 11 -7 18 -10 9 -11 8 -5 -6z"/>
<path d="M1515 3071 c-3 -5 -2 -12 3 -15 5 -3 9 1 9 9 0 17 -3 19 -12 6z"/>
<path d="M1906 3065 c-11 -8 -15 -15 -9 -15 6 0 16 7 23 15 16 19 11 19 -14 0z"/>
<path d="M375 3061 c-3 -5 -2 -12 3 -15 5 -3 9 1 9 9 0 17 -3 19 -12 6z"/>
<path d="M1276 3053 c-6 -14 -5 -15 5 -6 7 7 10 15 7 18 -3 3 -9 -2 -12 -12z"/>
<path d="M1960 3060 c-9 -6 -10 -10 -3 -10 6 0 15 5 18 10 8 12 4 12 -15 0z"/>
<path d="M2630 3065 c0 -7 30 -13 34 -7 3 4 -4 9 -15 9 -10 1 -19 0 -19 -2z"/>
<path d="M2716 3062 c-3 -5 1 -9 9 -9 8 0 12 4 9 9 -3 4 -7 8 -9 8 -2 0 -6 -4
-9 -8z"/>
<path d="M515 3051 c-3 -5 -2 -12 3 -15 5 -3 9 1 9 9 0 17 -3 19 -12 6z"/>
<path d="M2935 3050 c-4 -6 -11 -7 -17 -4 -7 4 -8 2 -4 -5 6 -9 11 -9 22 0 14
11 18 19 10 19 -3 0 -8 -5 -11 -10z"/>
<path d="M401 3036 c-8 -10 -9 -16 -1 -21 6 -4 9 -1 8 7 -2 7 3 12 10 10 8 -1
11 2 7 8 -8 13 -10 13 -24 -4z"/>
<path d="M679 3033 c-12 -16 -12 -17 2 -6 9 7 20 9 24 5 5 -4 5 -1 1 6 -9 16
-11 15 -27 -5z"/>
<path d="M2785 3040 c-3 -6 1 -7 9 -4 18 7 21 14 7 14 -6 0 -13 -4 -16 -10z"/>
<path d="M2850 3040 c0 -5 5 -10 10 -10 6 0 10 5 10 10 0 6 -4 10 -10 10 -5 0
-10 -4 -10 -10z"/>
<path d="M2972 3035 c5 -8 -4 -12 -27 -13 -19 -1 -37 3 -40 8 -3 6 -12 10 -18
10 -7 0 -6 -4 3 -11 11 -8 4 -9 -27 -7 -25 2 -43 -1 -43 -7 0 -5 -4 -4 -9 4
-5 8 -11 9 -15 3 -7 -11 -24 -11 -43 1 -9 6 -11 3 -6 -10 6 -16 5 -17 -12 -3
-13 10 -16 11 -11 2 5 -9 3 -13 -5 -11 -8 1 -27 -3 -43 -10 -16 -6 -36 -9 -43
-7 -8 3 -11 2 -8 -3 5 -9 -32 -27 -47 -23 -5 1 -8 -3 -8 -8 0 -5 -6 -10 -12
-10 -7 0 -31 -14 -52 -30 -21 -16 -43 -27 -47 -24 -5 3 -9 -2 -9 -11 0 -9 -4
-14 -9 -11 -5 3 -12 -1 -15 -10 -4 -10 -12 -14 -22 -10 -14 5 -15 4 -5 -8 10
-11 8 -16 -6 -20 -10 -4 -25 -21 -34 -39 -9 -17 -23 -31 -31 -31 -10 1 -14 -5
-11 -17 3 -11 0 -19 -6 -19 -6 0 -10 -3 -9 -7 1 -5 -8 -30 -20 -57 -12 -27
-22 -54 -22 -62 0 -7 -4 -15 -10 -19 -5 -3 -7 -12 -4 -20 4 -9 -1 -18 -11 -21
-12 -5 -13 -9 -4 -14 9 -6 8 -12 -5 -25 -12 -12 -14 -21 -6 -30 13 -16 10 -75
-4 -94 -8 -11 -8 -13 2 -7 12 7 14 -5 15 -74 0 -14 5 -28 11 -32 7 -5 6 -8 -4
-8 -12 0 -12 -2 -2 -9 8 -5 15 -20 15 -35 1 -14 6 -26 11 -26 5 0 3 -7 -4 -16
-8 -8 -9 -14 -4 -12 5 2 10 -1 11 -6 1 -5 5 -12 10 -15 13 -10 45 -71 37 -71
-4 0 0 -6 11 -13 11 -9 15 -19 10 -27 -5 -8 -4 -11 3 -6 13 8 44 -33 35 -47
-3 -6 -2 -8 3 -4 14 8 47 -20 38 -34 -4 -7 -3 -10 3 -6 14 9 65 -32 57 -45 -4
-7 -2 -8 5 -4 6 4 23 -1 39 -11 15 -10 39 -25 54 -32 15 -8 25 -18 22 -22 -2
-4 1 -11 7 -15 7 -4 9 -3 5 4 -3 6 -2 13 3 17 5 3 13 0 18 -7 4 -7 13 -13 18
-14 35 -2 95 -18 95 -24 0 -5 9 -6 20 -3 16 4 19 2 14 -11 -3 -9 -1 -16 5 -16
6 0 10 5 8 12 -1 8 15 10 53 9 122 -6 140 -6 144 4 3 6 5 4 5 -2 1 -7 6 -13
12 -13 5 0 7 5 3 11 -5 8 1 10 20 7 14 -3 29 -1 32 3 8 14 26 10 19 -3 -4 -7
1 -4 9 6 9 11 16 16 16 12 0 -5 6 -3 14 3 7 6 25 12 40 13 14 1 26 6 26 11 0
4 5 5 10 2 6 -3 10 -1 10 5 0 7 7 10 15 6 9 -3 15 0 15 8 0 16 27 29 42 19 6
-3 8 -1 5 4 -8 13 62 69 83 66 10 -2 10 0 3 3 -19 8 -16 27 3 20 9 -3 12 -2 9
5 -9 13 14 41 28 32 5 -3 7 -1 4 4 -4 6 4 27 18 47 14 20 25 41 25 45 0 5 10
21 22 37 18 23 18 26 4 14 -15 -11 -20 -12 -23 -2 -3 6 -11 12 -18 12 -23 0
-85 33 -79 42 3 4 -1 5 -9 2 -8 -3 -40 9 -73 26 -32 16 -64 30 -71 30 -7 0
-13 5 -13 11 0 5 -4 8 -8 5 -4 -2 -14 -1 -22 4 -11 7 -20 -2 -36 -33 -12 -24
-28 -41 -37 -41 -9 1 -13 -4 -11 -11 6 -15 -44 -57 -57 -49 -5 3 -9 1 -9 -4 0
-19 -33 -22 -46 -5 -12 17 -13 17 -8 -2 4 -16 0 -20 -26 -22 -18 -1 -30 3 -30
10 0 9 -2 9 -8 -1 -5 -7 -19 -10 -33 -8 -13 3 -30 5 -37 5 -7 1 -11 5 -7 10 3
6 -3 9 -14 8 -11 0 -35 7 -54 18 -32 17 -34 20 -19 31 15 12 15 12 -4 8 -16
-4 -28 3 -47 28 -14 18 -27 40 -29 48 -2 8 -7 19 -13 23 -6 5 0 7 13 4 30 -7
28 1 -3 13 -19 7 -24 15 -21 32 2 13 -1 29 -6 36 -7 8 -6 17 3 29 10 11 10 14
2 9 -7 -4 -13 -3 -13 3 0 5 6 12 13 14 9 4 9 6 -1 6 -13 1 -7 48 9 65 4 5 5
16 1 25 -5 14 -4 14 13 1 17 -14 17 -14 7 5 -12 24 3 60 20 49 7 -5 8 -2 3 5
-8 14 53 83 67 75 4 -3 8 -1 8 5 0 6 10 15 21 22 17 9 20 8 14 -3 -3 -7 0 -5
8 5 8 9 17 17 21 17 8 0 3 -23 -7 -31 -12 -9 -18 -51 -6 -43 6 3 8 9 5 12 -3
3 0 12 8 21 8 9 16 21 18 26 2 6 6 9 11 8 4 -2 7 1 7 5 0 5 24 8 53 8 39 -1
51 -4 49 -15 -2 -11 0 -12 10 -3 17 14 62 -7 112 -52 33 -31 51 -66 24 -50 -7
4 -8 3 -4 -4 4 -6 13 -9 20 -6 8 3 16 -5 20 -21 6 -22 9 -24 26 -15 11 6 20 7
20 3 0 -4 4 -3 8 2 11 16 62 36 74 29 6 -4 8 -2 4 4 -6 10 30 28 47 24 4 -1 7
3 7 9 0 6 7 9 15 5 8 -3 15 0 15 7 0 8 4 6 10 -3 8 -13 10 -12 10 3 0 10 11
22 25 27 14 6 36 14 50 20 l25 10 -25 50 c-14 28 -23 56 -19 62 4 7 3 8 -4 4
-12 -7 -59 50 -54 66 1 5 -2 7 -7 4 -5 -4 -17 4 -25 16 -9 12 -16 19 -16 15 0
-5 -15 6 -32 22 -18 17 -39 31 -45 31 -7 0 -13 4 -13 9 0 5 -15 14 -32 21 -80
31 -87 34 -75 42 9 6 9 8 0 8 -6 0 -14 -4 -18 -9 -3 -6 -21 -4 -45 4 -22 8
-40 11 -40 7 0 -4 -5 0 -10 8 -8 12 -10 12 -10 1 0 -9 -5 -7 -17 6 -10 10 -15
14 -11 8z m-732 -565 c0 -5 -5 -10 -11 -10 -5 0 -7 5 -4 10 3 6 8 10 11 10 2
0 4 -4 4 -10z"/>
<path d="M3035 3041 c-3 -5 -2 -12 3 -15 5 -3 9 1 9 9 0 17 -3 19 -12 6z"/>
<path d="M3655 3031 c-3 -5 -2 -12 3 -15 5 -3 9 1 9 9 0 17 -3 19 -12 6z"/>
<path d="M455 3020 c3 -5 8 -10 11 -10 2 0 4 5 4 10 0 6 -5 10 -11 10 -5 0 -7
-4 -4 -10z"/>
<path d="M505 3019 c5 -13 -2 -16 -35 -16 -22 0 -40 5 -40 11 0 8 -2 8 -8 0
-9 -14 -104 -14 -114 1 -5 7 -8 7 -8 0 0 -7 -47 -11 -126 -13 -70 -1 -128 -3
-131 -5 -2 -2 -5 -76 -6 -164 l-2 -159 78 0 c42 1 77 -2 77 -6 0 -4 11 -3 24
2 20 7 26 6 29 -8 4 -15 5 -15 6 0 1 10 8 15 19 13 62 -13 82 -14 77 -5 -3 6
1 7 10 3 13 -5 14 -7 3 -14 -10 -7 -11 -9 0 -9 7 0 10 -5 7 -11 -5 -7 -13 -5
-24 5 -20 19 -31 20 -31 5 0 -5 5 -7 12 -3 7 5 9 2 6 -8 -5 -11 0 -14 16 -13
21 3 23 -1 22 -51 -1 -36 -6 -58 -16 -65 -13 -9 -12 -10 3 -5 11 3 17 0 17
-10 0 -8 -4 -12 -10 -9 -5 3 -10 2 -10 -4 0 -5 6 -11 13 -14 9 -3 9 -9 -1 -27
-9 -14 -9 -20 -2 -15 15 9 11 -53 -4 -74 -8 -11 -8 -13 1 -8 9 6 12 -2 11 -27
-1 -19 -4 -33 -8 -31 -4 2 -7 -2 -7 -10 0 -8 4 -12 9 -9 16 10 8 -49 -9 -62
-17 -13 -17 -14 0 -8 19 7 24 -12 5 -19 -10 -4 -10 -6 0 -6 18 -1 15 -32 -5
-47 -15 -11 -15 -13 -2 -9 23 8 24 -54 1 -72 -15 -11 -15 -12 -1 -7 14 4 16
-3 16 -45 0 -34 -3 -49 -11 -44 -6 3 -5 0 2 -8 7 -8 12 -42 12 -91 l0 -78 73
-1 c39 -1 90 -1 111 0 23 1 43 -4 48 -11 6 -10 8 -10 8 0 0 8 21 12 69 12 l70
0 -4 37 c-2 21 2 44 8 52 10 12 9 13 -1 7 -9 -6 -12 -3 -10 10 2 11 10 22 18
26 13 6 12 7 -2 7 -16 1 -19 23 -5 37 3 4 3 14 -2 23 -10 19 -9 61 2 78 4 6 4
14 -1 17 -10 6 -8 108 2 124 4 7 12 9 18 6 7 -4 8 -2 4 5 -5 8 -12 9 -20 2 -9
-7 -11 25 -11 137 0 81 5 153 9 161 7 11 6 12 -5 6 -11 -7 -11 -5 1 10 8 10
10 16 4 13 -7 -5 -10 18 -10 67 1 40 4 71 8 69 4 -2 9 0 13 6 4 6 11 7 18 3 6
-3 36 -5 66 -3 31 1 97 3 147 3 66 1 91 4 91 14 0 6 -4 10 -9 7 -4 -3 -8 2 -8
11 0 10 5 14 13 9 10 -6 10 -4 0 7 -15 16 -18 63 -3 54 6 -3 10 -1 10 4 0 6
-5 11 -11 11 -8 0 -8 5 1 15 10 12 10 18 0 30 -9 10 -9 15 -1 15 6 0 11 5 11
11 0 5 -4 8 -8 5 -5 -3 -9 25 -10 61 -1 36 -4 68 -7 71 -3 3 -22 6 -43 6 -25
1 -36 5 -34 14 1 8 -2 11 -8 7 -6 -3 -8 -10 -5 -14 6 -11 -217 -8 -234 3 -9 6
-12 5 -8 -1 4 -6 -11 -10 -39 -9 -35 0 -43 3 -39 16 4 11 2 11 -8 -2 -11 -14
-16 -15 -27 -5 -10 9 -11 9 -6 0 11 -19 -5 -16 -20 5 -11 13 -13 14 -9 1 7
-19 -22 -22 -44 -5 -11 8 -13 8 -7 -1 11 -19 -5 -15 -20 5 -11 14 -13 14 -9 1z"/>
<path d="M865 3020 c-3 -6 1 -7 9 -4 18 7 21 14 7 14 -6 0 -13 -4 -16 -10z"/>
<path d="M1545 3020 c-3 -6 1 -7 9 -4 18 7 21 14 7 14 -6 0 -13 -4 -16 -10z"/>
<path d="M1645 3020 c-3 -6 1 -7 9 -4 18 7 21 14 7 14 -6 0 -13 -4 -16 -10z"/>
<path d="M2615 3020 c3 -5 8 -10 11 -10 2 0 4 5 4 10 0 6 -5 10 -11 10 -5 0
-7 -4 -4 -10z"/>
<path d="M3779 3023 c-1 -5 -1 -10 -1 -14 0 -3 -42 -6 -95 -7 -53 -1 -98 -3
-100 -6 -2 -2 -5 -60 -5 -129 -1 -110 -3 -125 -17 -120 -14 4 -14 3 -1 -6 22
-15 23 -191 2 -207 -12 -9 -12 -13 -2 -19 9 -5 11 -4 6 3 -4 7 -3 12 2 12 5 0
9 -65 9 -147 0 -118 -3 -152 -15 -165 -14 -16 -13 -20 1 -36 19 -21 21 -105 3
-95 -6 3 -5 0 2 -8 6 -7 12 -27 12 -45 0 -18 -6 -35 -12 -37 -10 -4 -10 -6 0
-6 6 -1 12 -9 12 -19 0 -10 -6 -24 -12 -31 -10 -11 -10 -13 0 -7 6 4 12 3 12
-3 0 -5 -6 -12 -12 -14 -10 -4 -10 -6 0 -6 8 -1 12 -22 12 -71 l0 -70 86 0
c65 0 84 -3 78 -12 -6 -10 -4 -10 7 0 19 18 28 15 24 -9 -3 -12 -1 -18 3 -15
4 4 7 13 7 19 0 8 30 14 87 17 47 3 90 8 94 13 4 4 2 7 -4 7 -13 0 -11 78 2
99 6 9 5 12 -1 8 -5 -3 -10 0 -10 8 0 8 5 11 10 8 6 -4 7 -1 1 8 -11 18 -13
60 -3 53 4 -2 11 1 15 7 4 7 3 9 -4 5 -6 -3 -14 -1 -18 5 -3 6 0 15 7 20 11 7
11 9 1 9 -10 0 -10 5 -1 21 8 15 8 19 0 15 -6 -4 -11 -2 -11 3 0 6 5 11 11 11
8 0 7 6 -2 17 -10 11 -10 14 -1 9 6 -4 12 -2 12 3 0 6 -4 11 -9 11 -12 0 -9
33 4 43 6 4 4 11 -5 17 -10 6 -11 10 -2 10 6 0 12 8 12 18 0 13 2 14 9 3 5 -8
11 -9 15 -3 3 5 -1 12 -9 16 -8 3 -19 -3 -24 -12 -9 -15 -10 -14 -8 6 1 12 4
22 7 23 3 0 13 2 23 4 9 2 15 -1 11 -6 -3 -5 0 -9 5 -9 6 0 11 4 11 8 0 4 11
9 25 10 14 1 25 -3 25 -8 0 -5 -6 -7 -13 -4 -8 3 -20 -3 -28 -13 -13 -16 -12
-17 3 -5 9 8 22 11 28 7 5 -3 13 0 16 8 3 10 22 14 66 13 51 -1 62 -4 64 -19
1 -11 5 -22 9 -25 3 -4 4 5 2 19 -5 23 -2 25 29 26 19 1 34 -3 34 -8 0 -5 0
-12 0 -16 0 -5 -4 -8 -10 -8 -5 0 -15 -6 -22 -14 -11 -12 -10 -12 2 -5 8 5 17
9 20 9 3 0 16 9 30 19 14 11 18 16 8 13 -10 -4 -18 -2 -18 3 0 5 11 9 25 8 16
-2 24 -7 21 -15 -3 -7 1 -10 9 -6 8 3 13 8 11 12 -3 4 5 7 17 7 20 0 22 -5 23
-50 1 -28 -4 -54 -10 -58 -7 -5 -8 -8 0 -8 5 0 10 -18 11 -40 0 -22 -3 -38 -7
-35 -5 3 -12 0 -16 -6 -4 -8 -3 -9 5 -5 17 11 25 -22 10 -41 -10 -12 -10 -15
-1 -9 9 5 12 -7 12 -51 0 -33 -5 -65 -12 -72 -10 -11 -10 -13 0 -7 9 5 12 -5
12 -38 l0 -46 81 0 c61 0 79 -3 73 -12 -6 -10 -4 -10 7 0 17 16 32 16 23 0 -6
-10 -3 -9 9 0 9 8 26 13 39 12 13 -1 50 -2 84 -1 l60 1 -1 76 c-1 58 3 78 15
85 13 9 12 10 -2 5 -10 -3 -18 -1 -18 4 0 6 6 10 13 10 7 0 8 3 2 8 -12 9 -13
72 -1 91 6 9 5 12 0 8 -12 -7 -11 133 1 152 5 9 4 12 -2 8 -13 -8 -11 66 2 75
7 5 6 8 -1 8 -6 0 -10 24 -10 59 0 33 5 57 10 54 5 -4 6 -1 1 7 -13 21 -14
154 -2 169 9 12 9 13 0 7 -7 -4 -13 -2 -13 3 0 6 6 11 13 11 8 0 9 2 1 8 -14
9 -13 104 1 114 6 5 6 8 -1 8 -7 0 -11 20 -9 58 1 31 7 56 12 55 5 -1 10 5 10
12 0 10 -4 12 -13 5 -9 -8 -11 5 -10 60 2 38 0 70 -3 71 -3 0 -28 1 -56 2 -27
1 -56 6 -64 11 -9 6 -12 5 -7 -2 4 -7 -19 -10 -71 -10 -43 0 -100 -1 -128 -1
l-50 -1 3 -91 c3 -68 0 -94 -10 -100 -10 -7 -10 -9 0 -9 8 0 12 -19 12 -61 0
-37 -4 -58 -10 -54 -5 3 -10 1 -10 -4 0 -6 5 -11 10 -11 6 0 10 -5 10 -10 0
-6 -7 -10 -16 -8 -10 2 -19 -3 -22 -11 -3 -9 1 -11 14 -7 16 5 19 0 20 -27 1
-30 -1 -33 -30 -34 -17 0 -35 -2 -41 -3 -28 -6 -56 1 -50 13 4 6 -1 3 -10 -8
-17 -20 -17 -19 -11 8 4 16 2 27 -4 27 -5 0 -9 -3 -9 -7 5 -31 -3 -38 -41 -38
-22 0 -40 3 -40 8 0 4 5 7 12 7 6 0 8 3 4 7 -4 5 -13 1 -19 -7 -14 -18 -37
-24 -37 -10 0 5 5 10 10 10 6 0 10 6 10 13 -1 6 -10 1 -20 -12 -11 -13 -20
-19 -20 -15 0 5 -20 8 -45 6 -68 -6 -92 3 -91 32 1 14 5 28 9 32 10 10 9 26
-1 20 -5 -3 -9 1 -9 10 0 10 7 13 21 9 21 -6 21 -6 1 7 -19 12 -32 64 -14 52
5 -3 9 -1 9 5 0 5 -6 12 -12 14 -10 4 -9 8 2 16 8 6 10 11 5 11 -6 0 -11 9
-11 20 0 15 5 19 21 15 17 -4 16 -3 -3 7 -22 11 -25 33 -5 33 6 0 15 3 19 7 3
4 -2 6 -13 4 -16 -4 -20 1 -20 20 0 15 4 21 11 17 8 -5 8 -3 1 8 -6 8 -12 27
-14 43 -2 21 1 26 11 20 10 -6 11 -5 1 8 -7 8 -11 17 -9 19 3 2 -35 4 -82 4
-64 0 -86 3 -84 13 1 6 0 12 -3 12 -3 0 -6 -3 -6 -7z m-199 -825 c0 -16 -3
-19 -11 -11 -6 6 -8 16 -5 22 11 17 16 13 16 -11z"/>
<path d="M4575 3020 c-3 -5 -1 -10 4 -10 6 0 11 5 11 10 0 6 -2 10 -4 10 -3 0
-8 -4 -11 -10z"/>
<path d="M1933 3012 c-6 -4 -175 -7 -375 -7 l-363 0 2 -72 c1 -43 -2 -73 -8
-73 -6 0 -7 5 -3 12 5 7 3 8 -6 3 -11 -7 -10 -10 1 -19 20 -15 22 -103 2 -110
-8 -3 -11 -10 -8 -16 8 -13 -1 -13 -24 -1 -13 7 -18 6 -18 -4 0 -8 7 -11 16
-7 14 5 14 4 1 -13 -15 -18 -14 -18 12 -1 15 10 25 22 22 27 -3 5 -1 9 3 9 14
0 13 -283 -1 -299 -8 -12 -8 -13 2 -7 8 5 12 0 12 -16 0 -18 -2 -20 -10 -8 -6
9 -10 10 -10 3 0 -6 5 -15 11 -19 8 -4 7 -9 -2 -15 -10 -6 -11 -9 -1 -9 6 0
12 -7 12 -16 0 -9 -5 -12 -12 -8 -7 5 -8 3 -2 -7 5 -8 10 -56 11 -107 2 -70
-1 -91 -10 -85 -9 5 -9 3 -1 -8 6 -8 11 -63 12 -126 1 -102 0 -112 -16 -107
-14 5 -15 4 -2 -5 16 -11 17 -14 19 -83 l1 -48 55 0 c37 0 55 -4 55 -12 0 -9
4 -8 10 2 9 13 11 13 20 0 6 -10 10 -11 10 -2 0 6 7 12 16 12 9 0 12 -5 8 -12
-6 -10 -4 -10 7 0 7 6 17 12 22 12 4 0 5 -6 1 -12 -6 -10 -4 -10 7 0 7 6 19
12 27 12 12 0 12 -3 2 -15 -9 -11 -10 -19 -3 -26 8 -8 11 -6 10 7 -1 11 4 18
11 16 8 -1 11 2 7 8 -3 5 0 10 9 10 8 0 17 -6 19 -12 4 -10 6 -10 6 0 1 6 8
12 16 12 8 0 15 -6 15 -12 0 -10 2 -10 8 -1 10 16 53 13 77 -6 18 -15 19 -15
7 0 -10 14 -7 16 28 16 26 0 37 -4 33 -11 -4 -6 1 -5 11 3 15 13 19 13 27 0 6
-10 9 -10 9 -1 0 6 7 12 15 12 8 0 15 -6 15 -12 0 -9 3 -9 8 -3 8 13 55 18 47
5 -3 -5 -1 -12 5 -15 6 -4 9 -1 8 6 -2 7 9 14 25 15 15 2 25 -1 22 -6 -3 -5
-1 -12 5 -15 6 -4 9 -1 8 6 -2 8 7 14 20 15 12 1 22 -3 22 -7 0 -5 5 -9 11 -9
5 0 8 4 5 8 -2 4 37 9 87 10 51 1 94 7 97 13 4 6 6 21 4 35 -1 13 2 26 7 29 5
3 3 14 -3 25 -9 14 -9 22 3 36 8 10 9 15 3 11 -13 -7 -14 96 -2 109 4 4 4 12
-1 18 -9 11 -11 17 -11 34 0 4 -39 6 -86 4 -70 -3 -85 -1 -79 10 6 10 5 11 -6
1 -7 -7 -23 -13 -36 -13 -13 0 -23 6 -23 13 0 8 -3 9 -8 1 -8 -12 -173 -14
-166 -2 3 4 0 8 -5 8 -6 0 -11 -4 -11 -8 0 -14 -129 -9 -135 6 -2 6 -1 12 3
12 4 0 8 9 9 20 1 13 -2 18 -9 14 -7 -4 -8 -2 -4 4 7 12 36 5 36 -9 0 -5 -6
-9 -12 -9 -9 0 -8 -4 2 -10 11 -7 11 -10 2 -10 -7 0 -10 -5 -6 -11 3 -6 9 -7
13 -3 10 14 31 15 31 1 0 -8 3 -8 9 2 5 8 8 25 6 38 -1 14 4 27 12 30 11 5 11
9 -3 24 -9 11 -12 19 -6 19 6 0 18 -10 26 -22 9 -12 18 -19 21 -17 2 3 -4 15
-15 26 -10 12 -17 22 -15 24 2 2 -8 5 -22 6 -16 0 -21 -2 -14 -7 9 -5 8 -9 -4
-14 -24 -9 -32 -7 -16 3 7 5 9 11 5 14 -5 3 -15 -1 -22 -9 -10 -11 -10 -14 0
-14 9 0 9 -3 -2 -10 -11 -7 -11 -10 -2 -10 7 0 11 -4 7 -10 -3 -5 -13 -6 -21
-3 -10 4 -12 9 -5 16 7 7 7 16 -1 30 -9 17 -8 19 6 14 9 -4 16 -3 16 2 0 4 38
8 85 7 47 0 85 -3 85 -6 0 -15 -14 -19 -27 -9 -8 7 -13 8 -13 1 0 -14 28 -23
35 -11 4 5 11 7 16 3 5 -3 6 -10 3 -16 -4 -7 -2 -8 5 -4 6 4 8 12 5 18 -5 7
-1 9 9 5 9 -3 19 -1 23 5 4 7 3 8 -4 4 -7 -4 -12 -3 -12 2 0 5 30 9 68 9 48
-1 71 -5 80 -16 11 -14 11 -14 6 1 -5 15 3 16 66 14 76 -2 83 0 93 26 4 10 15
15 31 14 14 -2 23 1 20 5 -3 5 -16 7 -28 5 -23 -4 -23 -2 -23 72 0 44 5 80 11
84 8 6 8 8 0 8 -14 0 -16 70 -3 86 6 7 -10 11 -53 13 -76 3 -81 4 -90 16 -5 6
-8 5 -8 -2 0 -7 -7 -13 -15 -13 -8 0 -15 5 -15 10 0 6 -5 10 -11 10 -5 0 -8
-4 -5 -9 3 -5 -5 -8 -18 -8 -14 0 -29 8 -35 21 -11 21 -11 21 -5 -1 3 -13 1
-23 -4 -23 -16 0 -23 30 -12 51 9 15 7 21 -5 25 -9 4 -19 4 -22 0 -4 -3 1 -6
10 -6 10 0 14 -5 11 -15 -4 -8 -13 -15 -22 -15 -13 0 -12 -3 4 -14 10 -8 15
-18 11 -22 -4 -5 -12 -2 -17 6 -6 8 -10 10 -10 4 0 -6 -25 -11 -60 -11 -33 0
-60 3 -60 8 0 14 42 38 56 32 8 -3 14 0 14 7 0 6 -4 8 -10 5 -5 -3 -10 -1 -10
4 0 6 -5 11 -11 11 -5 0 -7 -4 -4 -10 3 -5 2 -10 -4 -10 -15 0 -32 36 -25 54
9 23 26 19 19 -4 -4 -12 -2 -20 5 -20 6 0 9 4 6 9 -3 5 1 14 9 21 13 10 19 9
36 -6 17 -16 19 -16 13 -1 -3 9 -10 17 -15 17 -5 0 -9 4 -9 8 0 4 20 8 45 9
25 1 45 -2 45 -7 0 -20 35 -28 55 -13 16 13 17 15 3 10 -10 -4 -18 -3 -18 2 0
5 25 9 55 9 37 0 53 -4 48 -12 -3 -6 0 -6 8 2 7 6 38 12 69 12 38 0 57 4 57
13 0 6 4 21 8 32 5 16 5 17 -4 5 -9 -12 -11 -10 -11 13 0 16 4 26 10 22 6 -3
10 -1 10 4 0 6 -5 11 -12 11 -9 0 -9 3 0 12 7 7 12 17 12 23 0 5 -5 3 -10 -5
-8 -12 -10 -10 -10 11 0 14 6 31 12 37 10 10 10 15 1 20 -7 4 -12 28 -12 52 1
25 1 50 0 55 -1 6 -39 9 -96 8 -59 -1 -93 1 -90 7 7 12 4 12 -12 2z m-179
-334 c-3 -5 -14 -6 -24 -3 -30 9 -46 -30 -25 -61 8 -13 12 -24 7 -24 -5 0 -14
-10 -21 -22 -6 -13 -9 -15 -7 -6 3 10 1 20 -5 23 -5 4 -7 11 -3 16 11 18 12
59 1 52 -6 -4 -8 0 -5 9 4 8 1 15 -6 15 -13 0 -16 -41 -3 -53 13 -13 8 -27 -6
-15 -8 6 -17 8 -21 4 -5 -5 -3 24 3 45 3 8 0 12 -6 10 -5 -2 -7 -6 -5 -10 1
-5 -3 -8 -9 -8 -6 0 -8 -7 -5 -16 3 -8 2 -13 -3 -9 -5 3 -8 -3 -6 -12 1 -10 0
-22 -4 -28 -3 -5 -6 -13 -6 -17 0 -5 -4 -8 -10 -8 -13 0 -14 21 -2 38 5 6 6
12 2 12 -4 0 -2 7 5 15 11 13 10 14 -4 9 -18 -7 -22 11 -6 21 7 5 8 11 1 19
-7 8 14 11 84 12 52 0 92 -3 89 -8z m139 -2 c4 -10 1 -13 -9 -9 -15 6 -19 23
-5 23 5 0 11 -7 14 -14z m-219 -42 c3 -8 2 -12 -4 -9 -6 3 -10 10 -10 16 0 14
7 11 14 -7z m-48 -40 c-3 -8 -2 -12 3 -9 5 3 12 1 16 -5 3 -5 1 -10 -5 -10 -6
0 -9 -4 -6 -8 3 -5 -1 -9 -8 -9 -7 0 -12 12 -12 29 0 15 4 28 9 28 5 0 6 -7 3
-16z m45 -22 c-6 -2 -9 -8 -5 -13 3 -5 0 -9 -6 -9 -7 0 -10 7 -7 15 4 8 2 17
-3 20 -6 4 -10 11 -10 17 0 6 9 3 21 -8 11 -10 16 -20 10 -22z m129 -336 c0
-3 -4 -8 -10 -11 -5 -3 -10 -1 -10 4 0 6 5 11 10 11 6 0 10 -2 10 -4z m-145
-57 c0 -8 -5 -14 -12 -14 -18 0 -26 -12 -12 -21 8 -5 10 -3 4 6 -5 8 -4 11 3
6 16 -10 10 -44 -7 -41 -18 2 -23 66 -7 77 15 11 31 4 31 -13z"/>
<path d="M1593 2673 c4 -3 2 -12 -5 -20 -8 -11 -7 -12 6 -7 18 7 22 34 4 34
-6 0 -8 -3 -5 -7z"/>
<path d="M2655 3009 c-4 -6 -5 -12 -2 -15 2 -3 7 2 10 11 7 17 1 20 -8 4z"/>
<path d="M3140 3005 c0 -2 6 -8 13 -14 10 -8 14 -7 14 2 0 8 -6 14 -14 14 -7
0 -13 -1 -13 -2z"/>
<path d="M1095 2991 c-3 -5 -2 -12 3 -15 5 -3 9 1 9 9 0 17 -3 19 -12 6z"/>
<path d="M2575 2980 c-3 -5 -1 -10 4 -10 6 0 11 5 11 10 0 6 -2 10 -4 10 -3 0
-8 -4 -11 -10z"/>
<path d="M3210 2981 c0 -6 4 -13 10 -16 6 -3 7 1 4 9 -7 18 -14 21 -14 7z"/>
<path d="M1180 2929 c0 -6 -7 -9 -15 -5 -8 3 -15 1 -15 -4 0 -6 7 -10 16 -10
9 0 12 -5 8 -12 -4 -7 -3 -10 1 -5 10 8 18 47 10 47 -3 0 -5 -5 -5 -11z"/>
<path d="M3330 2899 c0 -5 5 -7 10 -4 6 3 10 8 10 11 0 2 -4 4 -10 4 -5 0 -10
-5 -10 -11z"/>
<path d="M1091 2895 c0 -5 3 -15 7 -22 5 -9 12 -6 21 10 13 20 13 21 -1 9 -13
-10 -17 -10 -21 0 -3 7 -6 9 -6 3z"/>
<path d="M1135 2879 c-4 -6 -5 -12 -2 -15 2 -3 7 2 10 11 7 17 1 20 -8 4z"/>
<path d="M3555 2880 c3 -5 8 -10 11 -10 2 0 4 5 4 10 0 6 -5 10 -11 10 -5 0
-7 -4 -4 -10z"/>
<path d="M1150 2861 c0 -6 4 -13 10 -16 6 -3 7 1 4 9 -7 18 -14 21 -14 7z"/>
<path d="M3536 2862 c-3 -5 1 -9 9 -9 8 0 12 4 9 9 -3 4 -7 8 -9 8 -2 0 -6 -4
-9 -8z"/>
<path d="M2350 2856 c0 -2 8 -10 18 -17 15 -13 16 -12 3 4 -13 16 -21 21 -21
13z"/>
<path d="M16 2833 c-6 -14 -5 -15 5 -6 7 7 10 15 7 18 -3 3 -9 -2 -12 -12z"/>
<path d="M1101 2834 c0 -11 3 -14 6 -6 3 7 2 16 -1 19 -3 4 -6 -2 -5 -13z"/>
<path d="M1160 2820 c18 -12 30 -13 30 -2 0 4 -10 9 -22 9 -18 2 -20 0 -8 -7z"/>
<path d="M3393 2815 c0 -8 4 -12 9 -9 5 3 6 10 3 15 -9 13 -12 11 -12 -6z"/>
<path d="M3553 2823 c4 -3 1 -13 -6 -22 -11 -14 -10 -14 6 -2 20 15 22 31 5
31 -6 0 -8 -3 -5 -7z"/>
<path d="M1131 2804 c0 -11 3 -14 6 -6 3 7 2 16 -1 19 -3 4 -6 -2 -5 -13z"/>
<path d="M1105 2799 c-4 -6 -5 -12 -2 -15 2 -3 7 2 10 11 7 17 1 20 -8 4z"/>
<path d="M1150 2782 c0 -6 9 -12 20 -15 11 -3 20 -3 20 -1 0 2 -9 8 -20 14
-11 6 -20 7 -20 2z"/>
<path d="M4359 2773 c-13 -16 -12 -17 4 -4 16 13 21 21 13 21 -2 0 -10 -8 -17
-17z"/>
<path d="M1130 2771 c0 -8 -7 -11 -17 -6 -15 5 -16 4 -5 -6 9 -10 15 -10 24
-1 6 6 9 15 5 19 -4 3 -7 1 -7 -6z"/>
<path d="M4372 2720 c0 -14 2 -19 5 -12 2 6 2 18 0 25 -3 6 -5 1 -5 -13z"/>
<path d="M3475 2720 c-3 -5 -1 -10 4 -10 6 0 11 5 11 10 0 6 -2 10 -4 10 -3 0
-8 -4 -11 -10z"/>
<path d="M3519 2709 l-24 -20 28 17 c15 9 27 18 27 20 0 8 -8 4 -31 -17z"/>
<path d="M3996 2715 c-3 -9 -11 -13 -17 -9 -8 5 -9 3 -4 -5 6 -10 11 -9 23 3
9 8 13 18 10 21 -3 3 -8 -1 -12 -10z"/>
<path d="M2276 2697 c3 -10 9 -15 12 -12 3 3 0 11 -7 18 -10 9 -11 8 -5 -6z"/>
<path d="M1106 2678 c3 -5 10 -6 15 -3 13 9 11 12 -6 12 -8 0 -12 -4 -9 -9z"/>
<path d="M3553 2675 c0 -8 4 -15 9 -15 4 0 8 7 8 15 0 8 -4 15 -8 15 -5 0 -9
-7 -9 -15z"/>
<path d="M1806 2666 c3 -8 13 -17 22 -21 13 -5 13 -2 -3 15 -21 24 -26 25 -19
6z"/>
<path d="M1835 2670 c3 -5 8 -10 11 -10 2 0 4 5 4 10 0 6 -5 10 -11 10 -5 0
-7 -4 -4 -10z"/>
<path d="M2918 2673 c7 -3 16 -2 19 1 4 3 -2 6 -13 5 -11 0 -14 -3 -6 -6z"/>
<path d="M763 2655 c-7 -8 -9 -16 -4 -19 5 -3 12 1 15 10 8 22 4 25 -11 9z"/>
<path d="M1939 2663 c-1 -5 -1 -12 0 -17 1 -5 -5 -6 -14 -2 -11 4 -14 2 -9 -6
5 -8 1 -9 -12 -4 -10 4 -15 4 -11 0 4 -4 2 -12 -3 -19 -6 -8 -5 -18 5 -31 14
-18 15 -18 11 7 -3 21 1 29 20 38 15 7 22 16 18 23 -5 8 -2 9 9 5 10 -3 17 -2
17 3 0 12 -29 14 -31 3z"/>
<path d="M2175 2660 c-3 -5 -1 -10 4 -10 6 0 11 5 11 10 0 6 -2 10 -4 10 -3 0
-8 -4 -11 -10z"/>
<path d="M2857 2663 c-9 -8 12 -33 27 -33 6 0 3 5 -7 11 -9 6 -15 14 -12 20 7
10 2 12 -8 2z"/>
<path d="M2886 2662 c-3 -5 1 -9 9 -9 8 0 12 4 9 9 -3 4 -7 8 -9 8 -2 0 -6 -4
-9 -8z"/>
<path d="M4047 2659 c7 -7 15 -10 18 -7 3 3 -2 9 -12 12 -14 6 -15 5 -6 -5z"/>
<path d="M221 2644 c0 -11 3 -14 6 -6 3 7 2 16 -1 19 -3 4 -6 -2 -5 -13z"/>
<path d="M281 2652 c-1 -8 -6 -10 -13 -6 -10 5 -10 4 -1 -6 15 -16 28 -8 20
12 -4 11 -6 11 -6 0z"/>
<path d="M790 2638 c-10 -20 -9 -21 2 -6 13 15 15 15 26 0 10 -14 11 -13 2 6
-6 12 -13 22 -15 22 -2 0 -9 -10 -15 -22z"/>
<path d="M848 2648 c-7 -17 15 -19 29 -3 4 4 3 5 -4 2 -6 -4 -13 -2 -15 5 -3
8 -6 6 -10 -4z"/>
<path d="M4189 2643 c-13 -16 -12 -17 4 -4 16 13 21 21 13 21 -2 0 -10 -8 -17
-17z"/>
<path d="M1154 2634 c1 -8 4 -15 7 -16 2 -2 3 -1 2 1 -2 2 2 9 7 16 7 8 5 12
-4 12 -8 0 -13 -6 -12 -13z"/>
<path d="M1750 2639 c0 -5 4 -8 9 -5 5 4 11 1 13 -6 2 -6 15 -13 29 -15 18 -2
20 -1 9 6 -8 5 -17 8 -21 5 -4 -2 -9 3 -13 11 -6 17 -26 20 -26 4z"/>
<path d="M1850 2646 c0 -2 7 -7 16 -10 8 -3 12 -2 9 4 -6 10 -25 14 -25 6z"/>
<path d="M2037 2643 c-2 -5 -3 -17 -1 -28 1 -10 -1 -24 -6 -30 -6 -8 -5 -12 3
-12 9 0 13 14 13 39 0 39 -2 44 -9 31z"/>
<path d="M3013 2635 c0 -7 6 -11 14 -8 7 3 13 6 13 8 0 2 -6 5 -13 8 -8 3 -14
-1 -14 -8z"/>
<path d="M4015 2640 c3 -5 8 -10 11 -10 2 0 4 5 4 10 0 6 -5 10 -11 10 -5 0
-7 -4 -4 -10z"/>
<path d="M1959 2638 c-7 -21 -8 -58 -2 -58 5 0 8 14 8 30 1 25 -2 38 -6 28z"/>
<path d="M3992 2626 c7 -8 15 -12 17 -11 5 6 -10 25 -20 25 -5 0 -4 -6 3 -14z"/>
<path d="M236 2622 c-3 -4 4 -9 15 -9 23 -2 25 3 4 10 -8 4 -16 3 -19 -1z"/>
<path d="M295 2621 c-6 -11 13 -26 22 -17 4 3 1 6 -6 6 -7 0 -9 5 -6 10 3 6 4
10 1 10 -3 0 -7 -4 -11 -9z"/>
<path d="M2755 2620 c-16 -7 -17 -9 -3 -9 9 -1 20 4 23 9 7 11 7 11 -20 0z"/>
<path d="M3967 2615 c3 -8 9 -12 14 -9 12 7 11 11 -5 17 -10 4 -13 1 -9 -8z"/>
<path d="M4327 2624 c7 -3 9 -12 6 -20 -5 -13 -7 -13 -14 -2 -6 9 -9 9 -9 1 0
-21 19 -24 29 -5 11 20 5 33 -13 31 -7 0 -6 -2 1 -5z"/>
<path d="M753 2605 c0 -8 4 -12 8 -9 4 2 9 -1 11 -8 3 -7 7 -5 11 6 4 10 3 15
-3 11 -6 -3 -10 -1 -10 4 0 6 -4 11 -8 11 -5 0 -9 -7 -9 -15z"/>
<path d="M2704 2598 l-19 -23 23 19 c21 18 27 26 19 26 -2 0 -12 -10 -23 -22z"/>
<path d="M4016 2604 c-3 -8 -9 -13 -14 -10 -4 2 -14 1 -21 -4 -9 -5 -3 -7 16
-7 20 1 29 7 30 19 2 22 -3 23 -11 2z"/>
<path d="M4089 2603 c-13 -16 -12 -17 4 -4 16 13 21 21 13 21 -2 0 -10 -8 -17
-17z"/>
<path d="M4278 2613 c7 -3 16 -2 19 1 4 3 -2 6 -13 5 -11 0 -14 -3 -6 -6z"/>
<path d="M330 2600 c0 -5 5 -10 10 -10 6 0 10 5 10 10 0 6 -4 10 -10 10 -5 0
-10 -4 -10 -10z"/>
<path d="M804 2602 c4 -3 14 -7 22 -8 9 -1 13 0 10 4 -4 3 -14 7 -22 8 -9 1
-13 0 -10 -4z"/>
<path d="M1990 2590 c13 -24 17 -25 17 -5 0 8 -6 16 -14 19 -11 4 -11 1 -3
-14z"/>
<path d="M2930 2600 c0 -5 5 -10 11 -10 5 0 7 5 4 10 -3 6 -8 10 -11 10 -2 0
-4 -4 -4 -10z"/>
<path d="M3426 2602 c-3 -5 1 -9 9 -9 8 0 12 4 9 9 -3 4 -7 8 -9 8 -2 0 -6 -4
-9 -8z"/>
<path d="M3545 2599 c-4 -6 -5 -12 -2 -15 2 -3 7 2 10 11 7 17 1 20 -8 4z"/>
<path d="M4041 2594 c0 -11 3 -14 6 -6 3 7 2 16 -1 19 -3 4 -6 -2 -5 -13z"/>
<path d="M1788 2593 c7 -3 16 -2 19 1 4 3 -2 6 -13 5 -11 0 -14 -3 -6 -6z"/>
<path d="M3056 2587 c3 -10 9 -15 12 -12 3 3 0 11 -7 18 -10 9 -11 8 -5 -6z"/>
<path d="M306 2582 c-3 -5 1 -9 9 -9 8 0 12 4 9 9 -3 4 -7 8 -9 8 -2 0 -6 -4
-9 -8z"/>
<path d="M2225 2580 c-3 -6 1 -7 9 -4 18 7 21 14 7 14 -6 0 -13 -4 -16 -10z"/>
<path d="M4280 2586 c0 -2 7 -7 16 -10 8 -3 12 -2 9 4 -6 10 -25 14 -25 6z"/>
<path d="M346 2563 c-6 -14 -5 -15 5 -6 7 7 10 15 7 18 -3 3 -9 -2 -12 -12z"/>
<path d="M1150 2576 c0 -2 8 -10 18 -17 15 -13 16 -12 3 4 -13 16 -21 21 -21
13z"/>
<path d="M1726 2572 c-2 -4 4 -8 14 -8 10 0 16 4 14 8 -3 4 -9 8 -14 8 -5 0
-11 -4 -14 -8z"/>
<path d="M1770 2569 c0 -5 5 -7 10 -4 6 3 10 8 10 11 0 2 -4 4 -10 4 -5 0 -10
-5 -10 -11z"/>
<path d="M3350 2576 c0 -2 8 -10 18 -17 15 -13 16 -12 3 4 -13 16 -21 21 -21
13z"/>
<path d="M762 2556 c7 -8 15 -12 17 -11 5 6 -10 25 -20 25 -5 0 -4 -6 3 -14z"/>
<path d="M2207 2559 c7 -7 15 -10 18 -7 3 3 -2 9 -12 12 -14 6 -15 5 -6 -5z"/>
<path d="M2691 2554 c0 -11 3 -14 6 -6 3 7 2 16 -1 19 -3 4 -6 -2 -5 -13z"/>
<path d="M836 2538 c3 -5 10 -6 15 -3 13 9 11 12 -6 12 -8 0 -12 -4 -9 -9z"/>
<path d="M2156 2538 c3 -5 10 -6 15 -3 13 9 11 12 -6 12 -8 0 -12 -4 -9 -9z"/>
<path d="M1175 2529 c-4 -6 -5 -12 -2 -15 2 -3 7 2 10 11 7 17 1 20 -8 4z"/>
<path d="M2660 2532 c0 -6 5 -14 10 -17 6 -4 7 -11 4 -17 -4 -7 -2 -8 5 -4 9
6 9 12 -1 24 -7 10 -14 19 -15 21 -2 2 -3 -1 -3 -7z"/>
<path d="M2185 2519 c-4 -6 -5 -12 -2 -15 2 -3 7 2 10 11 7 17 1 20 -8 4z"/>
<path d="M2136 2511 c-4 -5 3 -7 14 -4 23 6 26 13 6 13 -8 0 -17 -4 -20 -9z"/>
<path d="M2192 2490 c-7 -11 -8 -20 -3 -20 9 0 24 30 18 36 -1 2 -8 -6 -15
-16z"/>
<path d="M3556 2463 c-6 -14 -5 -15 5 -6 7 7 10 15 7 18 -3 3 -9 -2 -12 -12z"/>
<path d="M2154 2444 c7 -38 14 -40 12 -5 0 17 -4 31 -9 31 -4 0 -5 -12 -3 -26z"/>
<path d="M2636 2461 c-3 -5 2 -15 12 -22 15 -13 16 -12 4 3 -10 13 -10 17 0
21 9 4 9 6 1 6 -6 1 -14 -3 -17 -8z"/>
<path d="M2193 2442 c-9 -6 -7 -11 7 -20 12 -7 20 -8 20 -2 0 5 -5 10 -11 10
-5 0 -7 5 -4 10 7 12 4 12 -12 2z"/>
<path d="M2135 2403 c1 -28 19 -42 30 -24 3 7 0 8 -9 5 -11 -4 -14 0 -11 15 2
11 0 23 -4 25 -4 3 -7 -7 -6 -21z"/>
<path d="M2620 2426 c0 -2 7 -7 16 -10 8 -3 12 -2 9 4 -6 10 -25 14 -25 6z"/>
<path d="M3536 2422 c-3 -5 1 -9 9 -9 8 0 12 4 9 9 -3 4 -7 8 -9 8 -2 0 -6 -4
-9 -8z"/>
<path d="M2180 2395 c0 -8 2 -15 4 -15 2 0 6 7 10 15 3 8 1 15 -4 15 -6 0 -10
-7 -10 -15z"/>
<path d="M2195 2370 c-7 -23 1 -40 18 -40 8 0 8 3 -2 9 -8 5 -11 16 -6 30 3
11 4 21 1 21 -2 0 -7 -9 -11 -20z"/>
<path d="M3535 2380 c-3 -5 -1 -10 4 -10 6 0 11 5 11 10 0 6 -2 10 -4 10 -3 0
-8 -4 -11 -10z"/>
<path d="M2150 2350 c-23 -18 -24 -19 -3 -14 12 3 24 12 27 20 7 18 6 18 -24
-6z"/>
<path d="M2630 2358 c0 -4 4 -8 9 -8 6 0 12 4 15 8 3 5 -1 9 -9 9 -8 0 -15 -4
-15 -9z"/>
<path d="M3535 2340 c3 -5 8 -10 11 -10 2 0 4 5 4 10 0 6 -5 10 -11 10 -5 0
-7 -4 -4 -10z"/>
<path d="M2186 2315 c10 -8 23 -15 28 -15 6 0 1 7 -10 15 -10 8 -23 15 -28 15
-6 0 -1 -7 10 -15z"/>
<path d="M2160 2306 c0 -2 7 -7 16 -10 8 -3 12 -2 9 4 -6 10 -25 14 -25 6z"/>
<path d="M755 2281 c-3 -5 -2 -12 3 -15 5 -3 9 1 9 9 0 17 -3 19 -12 6z"/>
<path d="M2210 2275 c0 -8 2 -15 4 -15 2 0 6 7 10 15 3 8 1 15 -4 15 -6 0 -10
-7 -10 -15z"/>
<path d="M3546 2282 c-3 -5 1 -9 9 -9 8 0 12 4 9 9 -3 4 -7 8 -9 8 -2 0 -6 -4
-9 -8z"/>
<path d="M2139 2258 c-5 -18 -6 -38 -1 -34 7 8 12 36 6 36 -2 0 -4 -1 -5 -2z"/>
<path d="M316 2233 c-6 -14 -5 -15 5 -6 7 7 10 15 7 18 -3 3 -9 -2 -12 -12z"/>
<path d="M2185 2240 c-3 -6 1 -7 9 -4 18 7 21 14 7 14 -6 0 -13 -4 -16 -10z"/>
<path d="M1702 2210 c7 -11 18 -20 25 -20 8 0 5 8 -7 20 -11 11 -22 20 -25 20
-3 0 0 -9 7 -20z"/>
<path d="M1842 2218 c-7 -7 -12 -17 -12 -22 0 -6 5 -3 11 8 9 15 13 16 20 5
12 -20 11 -31 -3 -23 -7 4 -8 3 -4 -4 4 -6 13 -9 21 -6 12 5 12 9 -2 30 -18
28 -16 27 -31 12z"/>
<path d="M1994 2201 c2 -42 11 -46 12 -5 0 19 -2 34 -6 34 -4 0 -7 -13 -6 -29z"/>
<path d="M2670 2219 c0 -5 5 -7 10 -4 6 3 10 8 10 11 0 2 -4 4 -10 4 -5 0 -10
-5 -10 -11z"/>
<path d="M3079 2213 c-13 -16 -12 -17 4 -4 16 13 21 21 13 21 -2 0 -10 -8 -17
-17z"/>
<path d="M2755 2209 c-4 -6 -5 -12 -2 -15 2 -3 7 2 10 11 7 17 1 20 -8 4z"/>
<path d="M3349 2203 c-13 -16 -12 -17 4 -4 9 7 17 15 17 17 0 8 -8 3 -21 -13z"/>
<path d="M1156 2198 c3 -5 10 -6 15 -3 13 9 11 12 -6 12 -8 0 -12 -4 -9 -9z"/>
<path d="M1908 2203 c7 -3 16 -2 19 1 4 3 -2 6 -13 5 -11 0 -14 -3 -6 -6z"/>
<path d="M1955 2190 c10 -11 20 -20 23 -20 3 0 -3 9 -13 20 -10 11 -20 20 -23
20 -3 0 3 -9 13 -20z"/>
<path d="M2137 2195 c-4 -8 -3 -16 1 -19 4 -3 9 4 9 15 2 23 -3 25 -10 4z"/>
<path d="M4065 2200 c-3 -6 1 -7 9 -4 18 7 21 14 7 14 -6 0 -13 -4 -16 -10z"/>
<path d="M4335 2199 c-11 -16 -1 -19 13 -3 7 8 8 14 3 14 -5 0 -13 -5 -16 -11z"/>
<path d="M4036 2187 c3 -10 9 -15 12 -12 3 3 0 11 -7 18 -10 9 -11 8 -5 -6z"/>
<path d="M1750 2180 c0 -5 5 -10 10 -10 6 0 10 5 10 10 0 6 -4 10 -10 10 -5 0
-10 -4 -10 -10z"/>
<path d="M2175 2180 c-3 -5 -1 -10 4 -10 6 0 11 5 11 10 0 6 -2 10 -4 10 -3 0
-8 -4 -11 -10z"/>
<path d="M2706 2178 c3 -5 10 -6 15 -3 13 9 11 12 -6 12 -8 0 -12 -4 -9 -9z"/>
<path d="M3994 2182 c-8 -5 -3 -14 15 -26 l26 -20 -20 24 c-18 21 -18 23 -2
17 11 -4 16 -3 12 3 -7 12 -16 12 -31 2z"/>
<path d="M4135 2181 c-3 -5 -2 -12 3 -15 5 -3 9 1 9 9 0 17 -3 19 -12 6z"/>
<path d="M4287 2179 c7 -7 15 -10 18 -7 3 3 -2 9 -12 12 -14 6 -15 5 -6 -5z"/>
<path d="M4350 2181 c0 -6 4 -11 10 -11 5 0 7 -7 4 -15 -4 -8 -11 -12 -17 -8
-6 3 -7 1 -3 -5 10 -16 14 -15 25 7 8 14 7 22 -4 31 -11 9 -15 9 -15 1z"/>
<path d="M1800 2171 c0 -6 4 -13 10 -16 6 -3 7 1 4 9 -7 18 -14 21 -14 7z"/>
<path d="M3435 2171 c-3 -5 -2 -12 3 -15 5 -3 9 1 9 9 0 17 -3 19 -12 6z"/>
<path d="M3543 2164 c9 -11 14 -24 10 -27 -3 -4 -1 -7 5 -7 19 0 14 15 -10 36
-23 19 -23 19 -5 -2z"/>
<path d="M1730 2163 c5 -2 10 -9 10 -14 0 -6 -4 -8 -8 -5 -4 2 -14 0 -22 -5
-11 -7 -8 -8 10 -6 26 4 35 28 12 33 -7 1 -8 0 -2 -3z"/>
<path d="M1775 2159 c-4 -6 -5 -12 -2 -15 2 -3 7 2 10 11 7 17 1 20 -8 4z"/>
<path d="M2951 2147 c-13 -21 -12 -21 5 -5 10 10 16 20 13 22 -3 3 -11 -5 -18
-17z"/>
<path d="M3470 2161 c0 -6 4 -13 10 -16 6 -3 7 1 4 9 -7 18 -14 21 -14 7z"/>
<path d="M1673 2140 c-1 -11 2 -20 5 -20 4 0 8 9 9 20 1 11 -2 20 -5 20 -4 0
-8 -9 -9 -20z"/>
<path d="M1877 2149 c7 -7 15 -10 18 -7 3 3 -2 9 -12 12 -14 6 -15 5 -6 -5z"/>
<path d="M1959 2158 c-5 -18 -6 -38 -1 -34 7 8 12 36 6 36 -2 0 -4 -1 -5 -2z"/>
<path d="M2175 2151 c-3 -5 -2 -12 3 -15 5 -3 9 1 9 9 0 17 -3 19 -12 6z"/>
<path d="M3036 2147 c3 -10 9 -15 12 -12 3 3 0 11 -7 18 -10 9 -11 8 -5 -6z"/>
<path d="M1793 2128 c1 -15 6 -23 11 -18 4 4 4 16 -2 26 -9 16 -10 14 -9 -8z"/>
<path d="M1836 2141 c-18 -7 -18 -8 -3 -14 9 -3 17 -2 17 4 0 6 5 7 12 3 7 -4
8 -3 4 4 -4 7 -8 12 -9 11 -1 0 -11 -4 -21 -8z"/>
<path d="M2133 2129 c-2 -23 3 -25 10 -4 4 8 3 16 -1 19 -4 3 -9 -4 -9 -15z"/>
<path d="M2748 2143 c7 -3 16 -2 19 1 4 3 -2 6 -13 5 -11 0 -14 -3 -6 -6z"/>
<path d="M2788 2132 c4 -10 7 -12 10 -4 2 7 9 9 15 5 7 -3 8 -2 4 2 -14 16
-36 14 -29 -3z"/>
<path d="M2835 2141 c-3 -5 -2 -12 3 -15 5 -3 9 1 9 9 0 17 -3 19 -12 6z"/>
<path d="M3975 2141 c-3 -5 0 -13 6 -17 7 -4 9 -3 5 4 -3 5 0 13 6 15 9 4 10
6 1 6 -6 1 -14 -3 -18 -8z"/>
<path d="M4319 2148 c-6 -21 -5 -38 1 -38 5 0 8 9 7 20 -1 17 -5 26 -8 18z"/>
<path d="M2893 2125 c0 -8 4 -12 9 -9 5 3 6 10 3 15 -9 13 -12 11 -12 -6z"/>
<path d="M756 2122 c-3 -5 1 -9 9 -9 8 0 12 4 9 9 -3 4 -7 8 -9 8 -2 0 -6 -4
-9 -8z"/>
<path d="M1771 2114 c0 -11 3 -14 6 -6 3 7 2 16 -1 19 -3 4 -6 -2 -5 -13z"/>
<path d="M1880 2115 c-19 -22 -8 -25 13 -3 9 10 13 18 8 18 -5 0 -14 -7 -21
-15z"/>
<path d="M1975 2120 c-3 -5 -1 -10 4 -10 6 0 11 5 11 10 0 6 -2 10 -4 10 -3 0
-8 -4 -11 -10z"/>
<path d="M2986 2113 c-6 -14 -5 -15 5 -6 7 7 10 15 7 18 -3 3 -9 -2 -12 -12z"/>
<path d="M1718 2113 c7 -3 16 -2 19 1 4 3 -2 6 -13 5 -11 0 -14 -3 -6 -6z"/>
<path d="M1935 2110 c6 -10 4 -12 -8 -7 -10 3 -17 2 -17 -3 0 -13 27 -13 35
-1 3 5 0 13 -6 17 -8 5 -9 3 -4 -6z"/>
<path d="M2031 2107 c-8 -10 -7 -14 2 -14 8 0 14 6 14 14 0 7 -1 13 -2 13 -2
0 -8 -6 -14 -13z"/>
<path d="M3546 2103 c-6 -14 -5 -15 5 -6 7 7 10 15 7 18 -3 3 -9 -2 -12 -12z"/>
<path d="M1666 2102 c-2 -4 4 -8 15 -8 10 0 19 4 19 8 0 4 -6 8 -14 8 -8 0
-17 -4 -20 -8z"/>
<path d="M1816 2101 c-3 -4 4 -7 14 -6 27 2 33 10 10 12 -11 1 -22 -2 -24 -6z"/>
<path d="M2173 2103 c4 -3 1 -13 -6 -22 -11 -14 -10 -14 5 -2 16 12 16 31 1
31 -4 0 -3 -3 0 -7z"/>
<path d="M2836 2098 c3 -5 10 -6 15 -3 13 9 11 12 -6 12 -8 0 -12 -4 -9 -9z"/>
<path d="M2910 2098 c0 -4 4 -8 9 -8 6 0 12 4 15 8 3 5 -1 9 -9 9 -8 0 -15 -4
-15 -9z"/>
<path d="M4355 2084 c0 -25 10 -23 17 4 3 10 0 19 -6 19 -6 0 -11 -10 -11 -23z"/>
<path d="M1988 2093 c7 -3 16 -2 19 1 4 3 -2 6 -13 5 -11 0 -14 -3 -6 -6z"/>
<path d="M3513 2075 c0 -8 4 -12 9 -9 4 3 8 9 8 15 0 5 -4 9 -8 9 -5 0 -9 -7
-9 -15z"/>
<path d="M3996 2073 c-6 -14 -5 -15 5 -6 7 7 10 15 7 18 -3 3 -9 -2 -12 -12z"/>
<path d="M3470 2076 c0 -2 8 -10 18 -17 15 -13 16 -12 3 4 -13 16 -21 21 -21
13z"/>
<path d="M2196 2058 c3 -4 11 -5 19 -1 21 7 19 12 -4 10 -11 0 -18 -5 -15 -9z"/>
<path d="M3554 2035 c0 -14 3 -25 7 -25 3 0 7 11 7 25 0 14 -4 25 -7 25 -4 0
-7 -11 -7 -25z"/>
<path d="M760 2020 c-12 -7 -10 -9 7 -7 12 0 19 5 17 9 -6 10 -6 10 -24 -2z"/>
<path d="M2254 2022 c4 -3 14 -7 22 -8 9 -1 13 0 10 4 -4 3 -14 7 -22 8 -9 1
-13 0 -10 -4z"/>
<path d="M3435 2021 c-3 -5 -2 -12 3 -15 5 -3 9 1 9 9 0 17 -3 19 -12 6z"/>
<path d="M3474 2016 c1 -8 5 -18 8 -22 4 -3 5 1 4 10 -1 8 -5 18 -8 22 -4 3
-5 -1 -4 -10z"/>
<path d="M4336 2013 c-6 -14 -5 -15 5 -6 7 7 10 15 7 18 -3 3 -9 -2 -12 -12z"/>
<path d="M1150 2000 c0 -4 7 -7 15 -6 23 3 26 12 5 13 -11 1 -20 -2 -20 -7z"/>
<path d="M3520 2000 c-9 -6 -10 -10 -3 -10 6 0 15 5 18 10 8 12 4 12 -15 0z"/>
<path d="M1175 1940 c3 -5 8 -10 11 -10 2 0 4 5 4 10 0 6 -5 10 -11 10 -5 0
-7 -4 -4 -10z"/>
<path d="M2150 1940 c0 -5 5 -10 11 -10 5 0 7 5 4 10 -3 6 -8 10 -11 10 -2 0
-4 -4 -4 -10z"/>
<path d="M3393 1925 c0 -8 4 -12 9 -9 5 3 6 10 3 15 -9 13 -12 11 -12 -6z"/>
<path d="M2430 1886 c0 -2 7 -7 16 -10 8 -3 12 -2 9 4 -6 10 -25 14 -25 6z"/>
<path d="M3250 1819 c0 -5 5 -7 10 -4 6 3 10 8 10 11 0 2 -4 4 -10 4 -5 0 -10
-5 -10 -11z"/>
<path d="M493 1745 c0 -8 4 -12 9 -9 5 3 6 10 3 15 -9 13 -12 11 -12 -6z"/>
<path d="M2695 1751 c-3 -5 -2 -12 3 -15 5 -3 9 1 9 9 0 17 -3 19 -12 6z"/>
<path d="M1559 1733 c-13 -16 -12 -17 4 -4 16 13 21 21 13 21 -2 0 -10 -8 -17
-17z"/>
<path d="M1780 1746 c0 -2 8 -10 18 -17 15 -13 16 -12 3 4 -13 16 -21 21 -21
13z"/>
<path d="M1847 1739 c7 -7 15 -10 18 -7 3 3 -2 9 -12 12 -14 6 -15 5 -6 -5z"/>
<path d="M1900 1746 c0 -2 8 -10 18 -17 15 -13 16 -12 3 4 -13 16 -21 21 -21
13z"/>
<path d="M3135 1739 c-3 -4 2 -6 10 -5 21 3 28 13 10 13 -9 0 -18 -4 -20 -8z"/>
<path d="M3685 1740 c-3 -6 1 -7 9 -4 18 7 21 14 7 14 -6 0 -13 -4 -16 -10z"/>
<path d="M1493 1725 c0 -8 4 -12 9 -9 5 3 6 10 3 15 -9 13 -12 11 -12 -6z"/>
<path d="M1679 1738 c-5 -18 -6 -38 -1 -34 7 8 12 36 6 36 -2 0 -4 -1 -5 -2z"/>
<path d="M596 1722 c-3 -5 1 -9 9 -9 8 0 12 4 9 9 -3 4 -7 8 -9 8 -2 0 -6 -4
-9 -8z"/>
<path d="M1853 1705 c0 -8 4 -12 9 -9 5 3 6 10 3 15 -9 13 -12 11 -12 -6z"/>
<path d="M1525 1700 c-3 -6 1 -7 9 -4 18 7 21 14 7 14 -6 0 -13 -4 -16 -10z"/>
<path d="M1810 1700 c0 -5 5 -10 11 -10 5 0 7 5 4 10 -3 6 -8 10 -11 10 -2 0
-4 -4 -4 -10z"/>
<path d="M1890 1699 c0 -5 5 -7 10 -4 6 3 10 8 10 11 0 2 -4 4 -10 4 -5 0 -10
-5 -10 -11z"/>
<path d="M1956 1702 c-3 -5 1 -9 9 -9 8 0 12 4 9 9 -3 4 -7 8 -9 8 -2 0 -6 -4
-9 -8z"/>
<path d="M1813 1665 c0 -8 4 -12 9 -9 5 3 6 10 3 15 -9 13 -12 11 -12 -6z"/>
<path d="M1710 1665 c0 -7 30 -13 34 -7 3 4 -4 9 -15 9 -10 1 -19 0 -19 -2z"/>
<path d="M1859 1668 c-5 -18 -6 -38 -1 -34 7 8 12 36 6 36 -2 0 -4 -1 -5 -2z"/>
<path d="M1953 1645 c0 -8 4 -12 9 -9 5 3 6 10 3 15 -9 13 -12 11 -12 -6z"/>
<path d="M3196 1627 c3 -10 9 -15 12 -12 3 3 0 11 -7 18 -10 9 -11 8 -5 -6z"/>
<path d="M1656 1618 c3 -5 10 -6 15 -3 13 9 11 12 -6 12 -8 0 -12 -4 -9 -9z"/>
<path d="M1695 1620 c-3 -5 -1 -10 4 -10 6 0 11 5 11 10 0 6 -2 10 -4 10 -3 0
-8 -4 -11 -10z"/>
<path d="M1733 1615 c0 -8 4 -12 9 -9 5 3 6 10 3 15 -9 13 -12 11 -12 -6z"/>
<path d="M315 1611 c-3 -5 -2 -12 3 -15 5 -3 9 1 9 9 0 17 -3 19 -12 6z"/>
<path d="M1915 1601 c-2 -4 12 -7 30 -7 19 0 32 3 29 5 -7 8 -54 9 -59 2z"/>
<path d="M1990 1601 c0 -6 4 -12 8 -15 5 -3 9 1 9 9 0 8 -4 15 -9 15 -4 0 -8
-4 -8 -9z"/>
<path d="M2025 1599 c-3 -4 2 -6 10 -5 21 3 28 13 10 13 -9 0 -18 -4 -20 -8z"/>
<path d="M2076 1602 c-3 -5 1 -9 9 -9 8 0 12 4 9 9 -3 4 -7 8 -9 8 -2 0 -6 -4
-9 -8z"/>
<path d="M2180 1606 c0 -2 8 -10 18 -17 15 -13 16 -12 3 4 -13 16 -21 21 -21
13z"/>
<path d="M3353 1595 c0 -8 4 -12 9 -9 5 3 6 10 3 15 -9 13 -12 11 -12 -6z"/>
<path d="M3533 1585 c0 -8 4 -12 9 -9 5 3 6 10 3 15 -9 13 -12 11 -12 -6z"/>
<path d="M373 1575 c0 -8 4 -12 9 -9 5 3 6 10 3 15 -9 13 -12 11 -12 -6z"/>
<path d="M1067 1579 c7 -7 15 -10 18 -7 3 3 -2 9 -12 12 -14 6 -15 5 -6 -5z"/>
<path d="M1187 1579 c7 -7 15 -10 18 -7 3 3 -2 9 -12 12 -14 6 -15 5 -6 -5z"/>
<path d="M1725 1580 c-3 -6 1 -7 9 -4 18 7 21 14 7 14 -6 0 -13 -4 -16 -10z"/>
<path d="M1780 1586 c0 -2 8 -10 18 -17 15 -13 16 -12 3 4 -13 16 -21 21 -21
13z"/>
<path d="M2116 1577 c3 -10 9 -15 12 -12 3 3 0 11 -7 18 -10 9 -11 8 -5 -6z"/>
<path d="M3055 1581 c-3 -5 -2 -12 3 -15 5 -3 9 1 9 9 0 17 -3 19 -12 6z"/>
<path d="M1899 1568 c12 -16 10 -17 -25 -15 -22 1 -42 6 -46 12 -5 6 -8 5 -8
-2 0 -7 -9 -13 -19 -13 -11 0 -22 6 -24 13 -4 10 -6 10 -6 0 -1 -7 -6 -13 -12
-13 -5 0 -7 5 -4 11 4 6 -3 5 -14 -3 -18 -11 -23 -11 -31 2 -6 10 -10 11 -10
3 0 -7 -5 -13 -11 -13 -5 0 -7 6 -3 13 6 10 4 10 -7 0 -7 -7 -17 -13 -22 -13
-4 0 -5 6 -1 13 6 9 4 9 -7 1 -19 -15 -129 -18 -129 -4 0 7 -7 5 -15 -4 -11
-10 -15 -36 -15 -86 0 -39 -4 -69 -8 -66 -5 3 -9 -1 -9 -9 0 -8 4 -12 9 -9 4
3 8 -11 8 -31 0 -26 -3 -34 -12 -29 -10 6 -10 5 -2 -7 14 -16 15 -68 3 -70 -5
-1 -13 -2 -18 -3 -5 0 -13 -4 -16 -8 -4 -4 4 -5 19 -2 19 3 26 0 26 -11 0 -10
-5 -13 -12 -9 -10 6 -10 4 0 -7 14 -16 16 -33 2 -24 -5 3 -10 1 -10 -4 0 -6 5
-11 10 -11 6 0 10 -8 10 -17 0 -14 -2 -15 -9 -5 -7 11 -9 11 -14 -2 -4 -9 -1
-15 5 -13 6 1 13 -4 16 -12 3 -10 0 -11 -9 -5 -11 6 -12 5 -2 -7 14 -18 14
-110 -1 -102 -6 3 -5 0 2 -8 15 -16 16 -63 1 -54 -6 4 -5 -3 3 -14 11 -18 11
-23 -2 -31 -10 -6 -11 -10 -2 -10 6 0 12 -7 12 -16 0 -8 -5 -12 -11 -9 -6 4
-5 -3 3 -14 11 -18 11 -23 -2 -31 -8 -5 -10 -10 -4 -10 8 0 12 -27 12 -77 0
-49 -3 -71 -9 -62 -5 9 -9 10 -9 2 0 -6 5 -15 10 -18 6 -3 10 -13 10 -21 0 -8
-5 -12 -11 -9 -6 4 -5 -2 2 -13 11 -17 10 -24 -2 -38 -10 -13 -10 -16 -1 -10
16 10 13 -25 -3 -36 -6 -5 -5 -8 3 -8 7 0 12 -14 12 -37 0 -28 -3 -34 -10 -23
-6 9 -10 10 -10 3 0 -6 5 -15 10 -18 6 -3 10 -34 10 -68 l0 -62 65 2 c49 2 64
-1 58 -10 -5 -9 -3 -9 8 -1 17 13 62 16 54 4 -3 -5 -1 -12 5 -15 6 -4 9 -1 8
6 -2 10 16 14 67 15 39 2 79 3 90 3 19 1 20 8 20 103 -1 57 4 109 10 117 8 12
7 13 -5 6 -13 -8 -13 -7 -1 8 9 11 10 17 2 17 -6 0 -11 5 -11 11 0 5 4 8 8 5
4 -2 14 0 22 6 12 8 12 9 -2 4 -10 -3 -20 -1 -23 4 -4 6 -1 10 5 10 6 0 8 5 4
12 -15 24 -11 48 8 48 10 0 18 4 18 9 0 6 -8 8 -18 6 -10 -2 -19 2 -19 8 0 7
19 13 49 13 33 1 46 -2 41 -10 -5 -8 -3 -8 8 0 20 14 55 12 51 -4 -1 -8 2 -11
8 -7 6 3 8 10 5 14 -2 5 16 9 41 9 32 1 43 -2 37 -11 -5 -9 -3 -9 8 0 8 6 48
13 89 16 41 2 82 7 90 10 8 3 24 7 35 9 11 2 26 9 33 16 8 7 17 10 22 7 4 -3
11 2 14 11 3 8 10 12 16 9 5 -3 10 -1 10 6 0 7 2 10 5 7 8 -8 101 86 96 96 -2
5 4 6 14 2 14 -5 16 -4 6 7 -8 11 -6 19 9 37 11 12 17 27 14 32 -3 5 0 15 6
23 6 8 9 18 6 24 -3 5 3 7 14 4 11 -3 20 -10 20 -15 0 -5 -4 -7 -9 -3 -5 3
-13 0 -17 -6 -4 -8 -3 -9 4 -5 15 9 3 -26 -12 -37 -7 -5 -3 -7 8 -5 10 2 21
-3 24 -11 3 -10 0 -11 -9 -5 -12 6 -12 5 0 -9 15 -19 15 -19 -14 -35 -17 -9
-13 -10 21 -7 l40 3 0 -36 c-1 -21 -5 -43 -9 -49 -5 -9 -3 -11 7 -7 11 4 14
-1 12 -20 -2 -14 0 -23 4 -21 10 6 42 -93 35 -106 -4 -5 -3 -8 2 -7 4 2 8 1 8
-2 0 -3 10 -16 23 -30 22 -23 26 -35 22 -55 -1 -5 2 -7 6 -3 10 10 45 -32 37
-45 -3 -6 -1 -7 6 -3 7 4 15 -2 20 -16 6 -13 10 -17 10 -10 1 7 6 10 12 7 6
-4 8 -12 6 -19 -3 -6 1 -20 9 -31 8 -10 14 -14 14 -9 0 6 -5 15 -12 22 -8 8
-8 12 -1 12 15 0 34 -25 26 -34 -4 -4 0 -4 10 0 11 4 19 0 23 -10 3 -9 11 -16
17 -16 6 0 31 -10 56 -22 25 -13 64 -27 86 -33 22 -5 40 -15 40 -22 0 -6 4
-15 8 -20 5 -4 7 -1 5 7 -1 8 3 15 10 14 6 -1 21 -2 33 -3 13 0 18 -5 13 -14
-5 -9 -4 -9 6 0 9 9 19 9 33 2 13 -8 22 -8 30 0 12 12 51 -5 42 -19 -3 -6 1
-7 10 -3 13 5 14 8 3 15 -18 11 32 6 51 -6 10 -6 12 -5 7 2 -4 7 -3 12 3 12 5
0 17 3 27 7 12 4 15 3 10 -6 -6 -9 -4 -10 10 -2 30 15 114 32 126 25 6 -4 8
-3 5 3 -6 10 23 23 47 22 5 -1 12 3 15 8 10 15 101 75 116 77 8 1 18 6 22 11
4 4 2 5 -4 1 -7 -4 -13 -5 -13 -2 0 9 40 47 41 39 0 -5 4 2 10 15 5 14 13 20
20 16 7 -4 9 -3 6 3 -8 13 22 55 34 48 5 -3 6 1 3 9 -3 8 1 25 10 38 18 26 21
58 5 58 -5 0 -8 3 -6 8 3 4 -5 8 -16 8 -25 2 -160 64 -165 76 -2 5 -7 6 -11 4
-3 -2 -29 6 -56 19 -27 13 -50 23 -50 22 -11 -27 -42 -77 -48 -77 -4 0 -5 6
-1 13 4 7 3 9 -2 4 -5 -5 -10 -13 -10 -18 -1 -5 -2 -13 -3 -17 0 -5 -15 -19
-32 -31 -18 -13 -29 -19 -25 -12 10 15 19 67 11 59 -4 -3 -8 -12 -9 -20 -5
-31 -18 -58 -27 -58 -6 0 -8 4 -5 8 3 5 -1 9 -8 9 -8 0 -12 -7 -8 -15 3 -10 1
-13 -6 -8 -7 4 -12 2 -12 -3 0 -16 -24 -9 -32 9 -5 13 -7 12 -7 -2 -1 -13 -9
-16 -43 -13 -24 2 -52 6 -63 8 -11 3 -23 6 -26 6 -4 1 -9 10 -12 21 -3 13 -11
18 -26 15 -13 -2 -24 2 -28 10 -3 8 -9 13 -13 10 -8 -5 -73 97 -84 131 -3 11
-8 51 -10 88 -4 65 -4 67 17 60 20 -6 20 -5 5 7 -16 13 -16 19 -5 58 8 24 22
50 32 57 10 8 15 14 9 14 -5 0 13 21 40 45 43 40 58 47 82 44 4 0 10 5 15 13
20 32 229 2 229 -34 0 -6 3 -9 6 -5 7 6 54 -33 54 -45 0 -4 9 -17 20 -28 11
-11 20 -27 20 -35 0 -13 4 -14 20 -5 11 6 20 8 20 5 0 -4 14 3 30 15 17 12 30
18 30 14 0 -3 7 -1 15 6 8 7 22 10 30 6 9 -3 13 -2 10 4 -3 5 35 28 84 51 l90
42 -15 29 c-8 16 -12 34 -8 40 4 7 3 8 -4 4 -14 -8 -35 30 -26 47 4 6 4 9 0 5
-7 -6 -56 34 -56 46 0 5 -65 70 -74 73 -33 13 -115 67 -110 74 3 5 -1 6 -9 3
-8 -3 -46 4 -85 15 -39 10 -73 17 -76 13 -3 -3 -6 -1 -6 5 0 5 -12 8 -27 7
-96 -10 -222 -10 -216 0 4 6 0 6 -9 -1 -8 -7 -19 -9 -23 -5 -5 4 -5 2 -2 -4 8
-13 -38 -28 -53 -19 -6 4 -10 2 -10 -2 0 -5 -14 -14 -30 -20 -17 -6 -28 -8
-26 -4 3 4 -1 8 -8 8 -9 0 -12 -7 -8 -16 3 -9 2 -13 -3 -9 -4 4 -14 0 -23 -8
-12 -13 -16 -13 -23 -2 -7 10 -9 9 -9 -5 0 -10 -4 -16 -9 -13 -5 3 -12 -1 -15
-10 -4 -10 -13 -13 -28 -9 -14 4 -18 3 -11 -2 10 -7 8 -13 -7 -26 -11 -9 -25
-17 -30 -17 -6 0 -10 -7 -10 -16 0 -10 -5 -14 -16 -10 -8 3 -13 2 -10 -3 3 -5
-4 -19 -15 -32 -11 -13 -28 -36 -37 -51 -9 -16 -20 -28 -25 -28 -4 0 -5 5 -1
12 4 7 3 8 -5 4 -6 -4 -8 -12 -5 -18 5 -8 1 -9 -12 -5 -18 7 -18 6 -2 -6 12
-9 14 -17 7 -24 -5 -5 -21 -41 -34 -79 -13 -38 -30 -70 -37 -72 -8 -2 -7 0 2
7 13 10 13 11 0 11 -13 0 -13 1 0 10 8 5 11 12 7 17 -10 10 -28 -18 -20 -31 4
-5 0 -7 -9 -4 -11 5 -14 -2 -14 -28 1 -18 -3 -33 -9 -33 -5 1 -9 5 -7 10 1 6
3 22 4 37 1 15 8 33 15 40 7 8 10 18 7 23 -8 13 28 7 39 -6 5 -6 7 -4 4 5 -2
8 -10 14 -16 12 -12 -2 -15 11 -4 21 3 4 12 2 18 -3 9 -8 14 -6 18 4 4 11 1
13 -11 10 -14 -5 -13 -3 2 10 11 9 15 16 9 16 -15 0 -73 -61 -67 -71 2 -4 -1
-11 -8 -15 -7 -4 -10 -4 -6 0 4 5 3 19 -3 33 -6 17 -6 22 2 17 6 -3 15 0 20 7
12 19 11 29 -2 29 -5 0 -7 -4 -4 -10 3 -5 0 -10 -8 -10 -20 0 -17 29 5 36 10
3 18 10 18 16 0 7 -5 6 -15 -2 -20 -17 -38 -4 -25 20 7 13 7 21 -2 26 -7 5 -9
2 -4 -7 4 -8 0 -5 -8 5 -17 21 -22 41 -8 32 5 -3 9 1 9 8 0 9 -7 12 -15 8 -12
-4 -14 -1 -8 13 4 11 4 16 0 13 -7 -8 -54 45 -54 61 0 6 -7 11 -15 11 -10 0
-15 7 -13 18 2 11 -3 16 -13 14 -9 -1 -22 5 -29 13 -7 8 -19 15 -26 15 -8 0
-14 5 -14 10 0 6 -9 10 -19 10 -11 0 -22 4 -25 9 -3 5 -27 12 -53 16 -34 5
-43 9 -32 16 9 7 5 7 -15 3 -19 -5 -31 -2 -37 7 -5 8 -9 9 -9 3 0 -8 -23 -12
-65 -12 -36 0 -62 4 -59 9 3 5 0 9 -5 9 -6 0 -11 -4 -11 -8 0 -5 -16 -9 -35
-10 -20 -1 -33 3 -30 8 3 5 0 12 -6 16 -7 4 -9 3 -5 -4 12 -19 -15 -24 -30 -6
-12 17 -13 17 -8 2 3 -10 3 -18 -2 -18 -4 0 -17 8 -28 18 -19 16 -20 16 -7 0z
m81 -340 c0 -5 -5 -6 -12 -2 -7 5 -8 3 -3 -6 6 -10 11 -9 22 5 13 18 13 18 28
-1 8 -10 15 -15 15 -10 0 6 6 2 13 -9 11 -14 16 -15 22 -5 5 8 4 11 -2 7 -6
-4 -14 0 -17 9 -3 8 -10 12 -16 9 -5 -3 -10 -2 -10 4 0 10 79 8 123 -4 15 -4
27 -14 27 -23 0 -13 -3 -13 -19 2 -13 12 -21 14 -26 6 -4 -6 -4 -14 -1 -17 3
-4 6 -1 6 6 0 7 5 9 10 6 8 -5 7 -11 -1 -21 -6 -7 -14 -12 -18 -10 -3 2 -7 -8
-8 -22 -1 -24 0 -24 9 -7 16 29 16 29 33 15 10 -9 15 -9 16 -1 3 26 4 30 13
38 5 5 6 3 2 -4 -4 -7 -2 -13 4 -13 6 0 8 -4 5 -10 -11 -19 -15 -53 -6 -64 15
-18 13 -25 -15 -51 -32 -30 -21 -27 -114 -30 -46 -2 -81 1 -89 8 -10 8 -13 8
-8 1 4 -8 -10 -11 -46 -10 l-51 2 -1 62 c0 43 4 62 13 62 6 0 12 4 12 10 0 5
-8 7 -17 4 -10 -3 -2 4 17 17 19 12 37 24 39 26 3 2 -1 9 -9 16 -10 10 -11 9
-5 -1 6 -11 3 -12 -13 -3 -25 14 -43 14 -22 1 9 -6 10 -10 3 -10 -13 0 -25 15
-18 22 9 9 115 5 115 -4z m-71 -22 c-2 -2 -15 -9 -29 -15 -24 -11 -24 -11 -6
3 16 13 49 24 35 12z m256 -26 c3 -5 1 -10 -4 -10 -6 0 -11 5 -11 10 0 6 2 10
4 10 3 0 8 -4 11 -10z m45 -54 c0 -3 -4 -8 -10 -11 -5 -3 -10 -1 -10 4 0 6 5
11 10 11 6 0 10 -2 10 -4z m440 -65 c0 -4 -5 -12 -12 -19 -9 -9 -9 -12 1 -12
7 0 9 -5 6 -10 -4 -6 -11 -8 -16 -5 -5 3 -6 -1 -3 -9 3 -9 11 -13 17 -9 6 4 7
1 1 -8 -4 -8 -8 -34 -9 -58 0 -30 -5 -46 -15 -49 -13 -5 -13 -3 -1 11 11 14
11 17 0 17 -10 0 -10 3 -1 12 9 9 8 14 -5 23 -12 9 -13 16 -6 31 6 10 9 37 8
60 -1 35 1 40 17 36 10 -2 18 -7 18 -11z"/>
<path d="M1942 1216 c2 -13 -6 -24 -22 -33 -17 -9 -20 -13 -8 -13 9 0 23 7 31
15 8 8 18 11 23 7 7 -6 -4 12 -24 38 -2 3 -2 -4 0 -14z"/>
<path d="M2082 1217 c10 -8 15 -17 11 -20 -3 -4 -1 -7 5 -7 20 0 13 19 -10 30
-21 10 -21 10 -6 -3z"/>
<path d="M1995 1200 c3 -5 8 -10 11 -10 2 0 4 5 4 10 0 6 -5 10 -11 10 -5 0
-7 -4 -4 -10z"/>
<path d="M2075 1180 c6 -10 4 -12 -7 -7 -17 6 -19 -16 -3 -30 4 -4 5 -2 1 5
-4 7 -1 12 8 12 19 0 21 16 4 26 -7 5 -8 3 -3 -6z"/>
<path d="M1939 1163 c-1 -5 -1 -12 0 -16 1 -5 -8 -6 -19 -2 -11 3 -20 2 -20
-3 0 -17 43 -7 46 11 1 9 0 17 -2 17 -2 0 -5 -3 -5 -7z"/>
<path d="M1975 1159 c-6 -8 -4 -10 5 -4 10 6 12 4 6 -11 -6 -15 -5 -17 5 -6 9
9 10 15 2 23 -8 8 -13 7 -18 -2z"/>
<path d="M2016 1153 c-6 -14 -5 -15 5 -6 7 7 10 15 7 18 -3 3 -9 -2 -12 -12z"/>
<path d="M2136 1143 c-13 -13 -5 -42 14 -56 11 -8 17 -17 13 -20 -3 -4 -15 1
-25 10 -15 13 -21 14 -31 4 -9 -10 -9 -11 4 -6 9 3 21 -1 28 -9 10 -11 7 -14
-16 -15 -53 -1 -63 -2 -68 -10 -5 -9 31 -6 59 5 14 5 17 4 11 -5 -6 -10 -3
-11 12 -3 25 14 40 33 37 50 -1 6 -2 21 -3 31 -1 19 -24 35 -35 24z m20 -28
c-3 -8 -1 -16 5 -19 5 -2 4 -3 -3 -2 -7 1 -15 13 -16 25 -3 16 0 21 8 16 6 -4
9 -13 6 -20z"/>
<path d="M1875 1130 c3 -5 8 -10 11 -10 2 0 4 5 4 10 0 6 -5 10 -11 10 -5 0
-7 -4 -4 -10z"/>
<path d="M1955 1130 c-3 -5 -3 -10 2 -10 4 0 0 -5 -10 -11 -9 -6 -15 -14 -12
-20 4 -5 -1 -9 -9 -9 -19 0 -21 -16 -4 -26 6 -4 8 -3 5 3 -4 6 0 14 9 17 8 3
13 10 10 15 -4 5 -1 11 6 13 6 2 12 12 14 21 3 19 -2 22 -11 7z"/>
<path d="M2010 1118 c0 -3 9 -6 20 -5 11 1 20 5 20 9 0 3 -9 6 -20 5 -11 -1
-20 -5 -20 -9z"/>
<path d="M2085 1120 c-3 -5 -1 -10 5 -10 6 0 8 -5 4 -12 -4 -7 -3 -8 4 -4 6 4
9 13 5 21 -6 18 -10 19 -18 5z"/>
<path d="M1908 1113 c7 -3 16 -2 19 1 4 3 -2 6 -13 5 -11 0 -14 -3 -6 -6z"/>
<path d="M1886 1096 c3 -8 0 -17 -6 -21 -9 -6 -9 -10 1 -16 10 -6 11 -9 2 -9
-7 0 -13 -4 -13 -8 0 -4 11 -8 25 -8 23 0 23 1 8 18 -12 14 -13 21 -4 32 9 11
8 15 -3 19 -10 4 -13 1 -10 -7z"/>
<path d="M1987 1096 c5 -15 3 -17 -8 -11 -8 5 -11 5 -6 -1 5 -5 13 -10 18 -10
5 -1 14 -2 20 -3 5 0 7 -6 3 -13 -5 -7 -3 -8 5 -3 10 6 10 10 0 19 -7 6 -19
18 -26 26 -11 13 -12 12 -6 -4z"/>
<path d="M2067 1096 c5 -14 3 -17 -7 -11 -9 5 -11 4 -6 -4 4 -6 11 -9 16 -6 4
3 11 -1 13 -7 3 -7 6 -8 6 -2 1 5 -6 19 -14 30 -15 18 -15 18 -8 0z"/>
<path d="M1942 1050 c-12 -19 -11 -20 8 -8 20 13 27 28 12 28 -4 0 -13 -9 -20
-20z"/>
<path d="M2032 1050 c-7 -11 -8 -20 -3 -20 9 0 24 30 18 36 -1 2 -8 -6 -15
-16z"/>
<path d="M1985 1040 c3 -5 8 -10 11 -10 2 0 4 5 4 10 0 6 -5 10 -11 10 -5 0
-7 -4 -4 -10z"/>
<path d="M293 1564 c4 -7 -24 -11 -86 -13 -50 -1 -93 -4 -95 -6 -2 -2 -4 -61
-3 -131 0 -87 -3 -132 -12 -143 -9 -12 -9 -13 1 -7 8 5 12 1 12 -13 0 -10 -6
-22 -12 -24 -10 -4 -10 -6 0 -6 6 -1 12 -10 12 -22 0 -13 -4 -18 -12 -13 -10
6 -10 4 0 -8 15 -19 14 -127 -2 -147 -8 -11 -8 -13 1 -7 8 4 13 1 13 -9 0 -9
-4 -14 -8 -11 -5 3 -9 -1 -9 -9 0 -8 4 -12 8 -9 13 7 8 -179 -5 -195 -8 -11
-8 -13 0 -8 9 5 12 -54 12 -224 0 -155 4 -234 11 -238 6 -4 50 -6 98 -5 56 2
92 -1 102 -9 12 -9 13 -9 7 0 -5 9 8 12 53 12 34 -1 59 -5 56 -9 -3 -5 8 -2
24 6 21 10 28 20 24 31 -5 12 -3 14 7 8 10 -6 11 -4 4 6 -11 17 -12 309 -1
309 4 0 4 8 0 18 -5 9 -8 35 -8 57 l1 40 94 1 c57 1 101 -3 109 -10 11 -8 13
-8 8 0 -5 8 11 11 51 11 60 -1 83 -12 75 -37 -4 -13 -4 -13 5 0 8 10 8 18 0
27 -8 10 -6 13 5 13 9 0 19 -9 22 -20 7 -21 39 -27 50 -10 4 6 -3 9 -16 7 -12
-1 -24 3 -26 9 -2 6 9 10 25 10 27 0 28 -1 28 -50 0 -28 -5 -54 -10 -58 -7 -5
-7 -8 2 -8 6 0 12 -8 12 -18 0 -10 -6 -24 -12 -31 -7 -8 -8 -11 -2 -8 7 4 10
-20 10 -73 0 -43 -3 -77 -7 -74 -4 2 -11 0 -14 -6 -4 -6 -1 -9 7 -8 9 2 14
-15 16 -65 l3 -67 62 -1 c69 0 299 0 307 0 3 1 5 27 4 59 0 31 5 63 10 71 8
10 8 13 1 9 -7 -4 -11 11 -11 42 0 28 4 46 10 43 5 -3 6 -1 2 6 -14 21 -18 63
-5 56 8 -5 8 -2 2 11 -12 22 -11 84 0 102 5 6 5 12 0 12 -10 0 -10 91 0 108 5
6 4 12 -1 12 -5 0 -9 13 -9 30 0 16 5 27 10 23 6 -4 7 -1 1 8 -12 20 -12 219
1 219 7 0 7 3 0 8 -12 8 -14 206 -3 218 4 4 4 12 1 18 -11 18 -10 46 1 46 7 0
7 3 -1 8 -7 4 -10 26 -9 54 2 25 0 52 -4 58 -7 11 -351 17 -368 6 -5 -3 -7
-32 -5 -66 2 -36 -1 -59 -6 -55 -5 3 -13 1 -16 -5 -4 -6 -1 -9 7 -8 21 5 19
-279 -2 -288 -23 -10 -50 -12 -44 -2 8 13 -10 10 -25 -4 -11 -10 -13 -10 -7 0
9 15 -6 16 -22 0 -9 -9 -12 -9 -12 1 0 11 -3 11 -15 1 -18 -15 -20 1 -2 19 9
11 7 10 -10 0 -13 -8 -23 -16 -23 -20 0 -8 -38 -5 -46 4 -4 3 -15 2 -25 -4
-13 -6 -19 -6 -20 1 -1 5 -2 14 -3 19 0 5 -5 13 -10 18 -6 5 -6 2 -1 -6 6 -11
4 -13 -11 -8 -18 7 -18 6 -1 -7 15 -11 15 -15 3 -19 -8 -3 -17 -1 -19 6 -3 9
-9 8 -22 -3 -17 -14 -18 -13 -12 3 16 41 17 50 2 25 -8 -16 -18 -28 -21 -28
-3 0 -2 4 1 10 3 5 0 7 -8 4 -8 -3 -19 2 -26 10 -7 8 -18 14 -24 12 -7 -1 -9
-1 -4 1 4 3 4 10 0 16 -11 19 -10 287 2 287 5 0 4 4 -3 9 -7 4 -11 19 -8 33 7
41 -5 47 -89 49 -44 1 -86 6 -94 13 -9 7 -12 7 -8 0z m233 -435 c19 -22 19
-22 -2 -11 -14 7 -24 8 -31 1 -6 -6 -10 -5 -10 5 0 8 4 13 9 10 4 -3 8 0 8 5
0 16 4 14 26 -10z"/>
<path d="M1330 1519 c0 -5 5 -7 10 -4 6 3 10 8 10 11 0 2 -4 4 -10 4 -5 0 -10
-5 -10 -11z"/>
<path d="M3686 1478 c3 -5 10 -6 15 -3 13 9 11 12 -6 12 -8 0 -12 -4 -9 -9z"/>
<path d="M2835 1441 c-3 -5 -2 -12 3 -15 5 -3 9 1 9 9 0 17 -3 19 -12 6z"/>
<path d="M1330 1419 c0 -5 5 -7 10 -4 6 3 10 8 10 11 0 2 -4 4 -10 4 -5 0 -10
-5 -10 -11z"/>
<path d="M1366 1422 c-3 -5 1 -9 9 -9 8 0 12 4 9 9 -3 4 -7 8 -9 8 -2 0 -6 -4
-9 -8z"/>
<path d="M1415 1420 c-3 -5 -1 -10 4 -10 6 0 11 5 11 10 0 6 -2 10 -4 10 -3 0
-8 -4 -11 -10z"/>
<path d="M895 1380 c-3 -5 -1 -10 4 -10 6 0 11 5 11 10 0 6 -2 10 -4 10 -3 0
-8 -4 -11 -10z"/>
<path d="M1436 1361 c-3 -5 2 -15 12 -22 15 -12 16 -12 5 2 -7 9 -10 19 -6 22
3 4 4 7 0 7 -3 0 -8 -4 -11 -9z"/>
<path d="M510 1340 c0 -5 5 -10 11 -10 5 0 7 5 4 10 -3 6 -8 10 -11 10 -2 0
-4 -4 -4 -10z"/>
<path d="M1310 1330 c-9 -6 -10 -10 -3 -10 6 0 15 5 18 10 8 12 4 12 -15 0z"/>
<path d="M1416 1313 c-6 -14 -5 -15 5 -6 7 7 10 15 7 18 -3 3 -9 -2 -12 -12z"/>
<path d="M75 1302 c3 -3 -1 -12 -7 -21 -8 -10 -4 -9 10 3 26 23 26 23 7 23 -8
0 -13 -3 -10 -5z"/>
<path d="M1359 1308 c-5 -16 -4 -46 2 -42 4 2 7 13 6 24 -1 17 -5 26 -8 18z"/>
<path d="M1466 1297 c3 -10 9 -15 12 -12 3 3 0 11 -7 18 -10 9 -11 8 -5 -6z"/>
<path d="M1300 1286 c0 -2 7 -7 16 -10 8 -3 12 -2 9 4 -6 10 -25 14 -25 6z"/>
<path d="M1390 1280 c0 -5 5 -10 11 -10 5 0 7 5 4 10 -3 6 -8 10 -11 10 -2 0
-4 -4 -4 -10z"/>
<path d="M1426 1278 c3 -5 10 -6 15 -3 13 9 11 12 -6 12 -8 0 -12 -4 -9 -9z"/>
<path d="M2630 1280 c0 -5 5 -10 11 -10 5 0 7 5 4 10 -3 6 -8 10 -11 10 -2 0
-4 -4 -4 -10z"/>
<path d="M890 1265 c0 -5 5 -17 10 -25 5 -8 10 -10 10 -5 0 6 -5 17 -10 25 -5
8 -10 11 -10 5z"/>
<path d="M1310 1250 c-8 -5 -10 -10 -5 -10 6 0 17 5 25 10 8 5 11 10 5 10 -5
0 -17 -5 -25 -10z"/>
<path d="M495 1240 c-3 -5 -1 -10 4 -10 6 0 11 5 11 10 0 6 -2 10 -4 10 -3 0
-8 -4 -11 -10z"/>
<path d="M525 1240 c3 -5 8 -10 11 -10 2 0 4 5 4 10 0 6 -5 10 -11 10 -5 0 -7
-4 -4 -10z"/>
<path d="M2660 1240 c0 -5 7 -7 15 -4 8 4 15 8 15 10 0 2 -7 4 -15 4 -8 0 -15
-4 -15 -10z"/>
<path d="M46 1218 c3 -5 10 -6 15 -3 13 9 11 12 -6 12 -8 0 -12 -4 -9 -9z"/>
<path d="M1318 1216 c-17 -12 -16 -14 4 -32 19 -16 20 -16 9 -1 -11 14 -11 20
-1 32 15 18 11 19 -12 1z"/>
<path d="M2630 1220 c0 -5 5 -10 10 -10 6 0 10 5 10 10 0 6 -4 10 -10 10 -5 0
-10 -4 -10 -10z"/>
<path d="M3294 1206 c1 -14 4 -28 7 -31 3 -3 5 6 5 19 -1 14 -4 28 -7 31 -3 3
-5 -6 -5 -19z"/>
<path d="M499 1214 c6 -3 8 -11 5 -18 -5 -14 33 -53 43 -43 3 4 1 7 -6 7 -7 0
-9 5 -6 10 4 6 1 9 -7 8 -7 -2 -13 6 -13 16 0 11 -6 21 -13 22 -7 1 -8 0 -3
-2z"/>
<path d="M535 1209 c-4 -6 -5 -12 -2 -15 2 -3 7 2 10 11 7 17 1 20 -8 4z"/>
<path d="M3250 1216 c0 -2 7 -9 15 -16 9 -7 15 -8 15 -2 0 5 -7 12 -15 16 -8
3 -15 4 -15 2z"/>
<path d="M813 1195 c0 -8 4 -12 9 -9 5 3 6 10 3 15 -9 13 -12 11 -12 -6z"/>
<path d="M876 1202 c-2 -4 0 -14 6 -22 8 -12 9 -11 4 4 -5 14 -2 17 9 12 9 -3
13 -2 10 4 -7 12 -22 13 -29 2z"/>
<path d="M3380 1200 c-8 -5 -10 -10 -5 -10 6 0 17 5 25 10 8 5 11 10 5 10 -5
0 -17 -5 -25 -10z"/>
<path d="M550 1181 c0 -6 4 -13 10 -16 6 -3 7 1 4 9 -7 18 -14 21 -14 7z"/>
<path d="M861 1164 c-1 -26 24 -51 34 -34 4 6 1 9 -6 8 -7 -2 -16 8 -20 22 -6
22 -7 23 -8 4z"/>
<path d="M3436 1167 c3 -10 9 -15 12 -12 3 3 0 11 -7 18 -10 9 -11 8 -5 -6z"/>
<path d="M1312 1154 c10 -10 20 -16 22 -13 3 3 -5 11 -17 18 -21 13 -21 12 -5
-5z"/>
<path d="M3139 1153 c-13 -17 -13 -17 6 -3 11 8 22 16 24 17 2 2 0 3 -6 3 -6
0 -17 -8 -24 -17z"/>
<path d="M798 1143 c7 -3 16 -2 19 1 4 3 -2 6 -13 5 -11 0 -14 -3 -6 -6z"/>
<path d="M3170 1139 c0 -5 5 -7 10 -4 6 3 10 8 10 11 0 2 -4 4 -10 4 -5 0 -10
-5 -10 -11z"/>
<path d="M3405 1140 c-3 -6 1 -7 9 -4 18 7 21 14 7 14 -6 0 -13 -4 -16 -10z"/>
<path d="M1316 1121 c-3 -5 2 -15 12 -22 15 -12 16 -12 5 2 -7 9 -10 19 -6 22
3 4 4 7 0 7 -3 0 -8 -4 -11 -9z"/>
<path d="M1357 1115 c-4 -8 -3 -16 1 -19 4 -3 9 4 9 15 2 23 -3 25 -10 4z"/>
<path d="M76 1098 c3 -5 10 -6 15 -3 13 9 11 12 -6 12 -8 0 -12 -4 -9 -9z"/>
<path d="M3065 1089 c-4 -6 -5 -12 -2 -15 2 -3 7 2 10 11 7 17 1 20 -8 4z"/>
<path d="M3645 1080 c-3 -6 1 -7 9 -4 18 7 21 14 7 14 -6 0 -13 -4 -16 -10z"/>
<path d="M1319 1057 c-15 -11 -15 -14 -1 -27 14 -13 15 -12 10 2 -4 8 -1 21 5
27 15 15 6 14 -14 -2z"/>
<path d="M1461 1044 c0 -11 3 -14 6 -6 3 7 2 16 -1 19 -3 4 -6 -2 -5 -13z"/>
<path d="M3057 1046 c-5 -12 -3 -15 5 -10 8 5 9 1 4 -12 -5 -14 -4 -16 4 -7 8
7 9 17 3 28 -9 16 -10 16 -16 1z"/>
<path d="M1406 1038 c3 -5 10 -6 15 -3 13 9 11 12 -6 12 -8 0 -12 -4 -9 -9z"/>
<path d="M50 1020 c0 -5 5 -10 11 -10 5 0 7 5 4 10 -3 6 -8 10 -11 10 -2 0 -4
-4 -4 -10z"/>
<path d="M1345 1020 c-3 -6 1 -7 9 -4 18 7 21 14 7 14 -6 0 -13 -4 -16 -10z"/>
<path d="M1430 1026 c0 -2 7 -7 16 -10 8 -3 12 -2 9 4 -6 10 -25 14 -25 6z"/>
<path d="M1306 1002 c-3 -5 1 -9 9 -9 8 0 12 4 9 9 -3 4 -7 8 -9 8 -2 0 -6 -4
-9 -8z"/>
<path d="M1414 1002 c4 -3 14 -7 22 -8 9 -1 13 0 10 4 -4 3 -14 7 -22 8 -9 1
-13 0 -10 -4z"/>
<path d="M1466 977 c3 -10 9 -15 12 -12 3 3 0 11 -7 18 -10 9 -11 8 -5 -6z"/>
<path d="M1416 967 c3 -10 9 -15 12 -12 3 3 0 11 -7 18 -10 9 -11 8 -5 -6z"/>
<path d="M3035 959 c-4 -6 -4 -13 -1 -16 3 -4 6 -1 6 6 0 7 5 9 12 5 7 -4 8
-3 4 4 -9 15 -13 15 -21 1z"/>
<path d="M1310 942 c0 -5 10 -17 23 -28 22 -19 22 -19 4 2 -9 11 -14 24 -10
27 3 4 1 7 -5 7 -7 0 -12 -4 -12 -8z"/>
<path d="M1454 921 c0 -11 5 -17 13 -14 10 4 11 9 2 19 -15 18 -15 18 -15 -5z"/>
<path d="M2554 919 c-8 -14 11 -33 25 -25 11 7 4 36 -9 36 -5 0 -12 -5 -16
-11z m21 -9 c3 -5 1 -10 -4 -10 -6 0 -11 5 -11 10 0 6 2 10 4 10 3 0 8 -4 11
-10z"/>
<path d="M3040 911 c0 -6 4 -13 10 -16 6 -3 7 1 4 9 -7 18 -14 21 -14 7z"/>
<path d="M1399 908 c-7 -23 -4 -35 7 -35 9 0 11 4 4 12 -5 7 -7 15 -3 18 3 4
3 7 0 7 -4 0 -7 -1 -8 -2z"/>
<path d="M1312 885 c3 -3 16 -8 28 -10 12 -2 20 -1 16 2 -4 4 -16 8 -28 10
-12 2 -19 1 -16 -2z"/>
<path d="M2540 866 c0 -2 7 -7 16 -10 8 -3 12 -2 9 4 -6 10 -25 14 -25 6z"/>
<path d="M1415 850 c-4 -6 -11 -7 -17 -4 -7 4 -8 2 -4 -5 6 -9 11 -9 22 0 14
11 18 19 10 19 -3 0 -8 -5 -11 -10z"/>
<path d="M1454 841 c0 -11 5 -17 13 -14 10 4 11 9 2 19 -15 18 -15 18 -15 -5z"/>
<path d="M2596 845 c4 -8 8 -15 10 -15 2 0 4 7 4 15 0 8 -4 15 -10 15 -5 0 -7
-7 -4 -15z"/>
<path d="M2495 841 c-3 -5 -2 -12 3 -15 5 -3 9 1 9 9 0 17 -3 19 -12 6z"/>
<path d="M3079 838 c-5 -19 -8 -50 -4 -46 7 7 15 48 9 48 -2 0 -4 -1 -5 -2z"/>
<path d="M80 820 c-9 -6 -10 -10 -3 -10 6 0 15 5 18 10 8 12 4 12 -15 0z"/>
<path d="M1347 819 c7 -7 15 -10 18 -7 3 3 -2 9 -12 12 -14 6 -15 5 -6 -5z"/>
<path d="M1387 819 c7 -7 15 -10 18 -7 3 3 -2 9 -12 12 -14 6 -15 5 -6 -5z"/>
<path d="M2466 803 c-6 -14 -5 -15 5 -6 7 7 10 15 7 18 -3 3 -9 -2 -12 -12z"/>
<path d="M1466 783 c-6 -14 -5 -15 5 -6 7 7 10 15 7 18 -3 3 -9 -2 -12 -12z"/>
<path d="M2576 787 c3 -10 9 -15 12 -12 3 3 0 11 -7 18 -10 9 -11 8 -5 -6z"/>
<path d="M2506 782 c-3 -5 1 -9 9 -9 8 0 12 4 9 9 -3 4 -7 8 -9 8 -2 0 -6 -4
-9 -8z"/>
<path d="M3130 779 c0 -5 5 -7 10 -4 6 3 10 8 10 11 0 2 -4 4 -10 4 -5 0 -10
-5 -10 -11z"/>
<path d="M501 764 c6 -8 12 -24 13 -36 0 -12 8 -23 16 -25 13 -4 13 -3 0 6
-13 10 -13 12 0 21 10 6 11 10 3 10 -7 0 -13 4 -13 10 0 5 6 7 14 4 8 -3 17 0
22 7 5 9 2 11 -8 6 -9 -3 -19 -3 -22 1 -4 3 -13 7 -22 8 -12 2 -13 -1 -3 -12z"/>
<path d="M611 771 c-8 -5 -20 -7 -28 -4 -7 3 -13 1 -13 -4 0 -14 49 -11 54 4
6 15 5 16 -13 4z"/>
<path d="M1396 767 c3 -10 9 -15 12 -12 3 3 0 11 -7 18 -10 9 -11 8 -5 -6z"/>
<path d="M749 757 c6 -8 7 -18 3 -22 -4 -5 -1 -5 6 -1 10 6 10 11 1 22 -6 8
-14 14 -16 14 -3 0 0 -6 6 -13z"/>
<path d="M1315 740 c3 -5 8 -10 11 -10 2 0 4 5 4 10 0 6 -5 10 -11 10 -5 0 -7
-4 -4 -10z"/>
<path d="M1466 737 c3 -10 9 -15 12 -12 3 3 0 11 -7 18 -10 9 -11 8 -5 -6z"/>
<path d="M3120 735 c-7 -9 -10 -18 -7 -21 3 -3 10 4 17 15 13 25 8 27 -10 6z"/>
<path d="M3349 723 c-13 -16 -12 -17 4 -4 16 13 21 21 13 21 -2 0 -10 -8 -17
-17z"/>
<path d="M865 720 c3 -5 8 -10 11 -10 2 0 4 5 4 10 0 6 -5 10 -11 10 -5 0 -7
-4 -4 -10z"/>
<path d="M559 718 c-5 -18 -6 -38 -1 -34 7 8 12 36 6 36 -2 0 -4 -1 -5 -2z"/>
<path d="M890 711 c0 -6 4 -13 10 -16 6 -3 7 1 4 9 -7 18 -14 21 -14 7z"/>
<path d="M3295 701 c-3 -5 -2 -12 3 -15 5 -3 9 1 9 9 0 17 -3 19 -12 6z"/>
<path d="M1932 680 c0 -14 2 -19 5 -12 2 6 2 18 0 25 -3 6 -5 1 -5 -13z"/>
<path d="M3213 685 c0 -8 4 -12 9 -9 5 3 6 10 3 15 -9 13 -12 11 -12 -6z"/>
<path d="M585 680 c-3 -6 1 -7 9 -4 18 7 21 14 7 14 -6 0 -13 -4 -16 -10z"/>
<path d="M1366 682 c-3 -5 1 -9 9 -9 8 0 12 4 9 9 -3 4 -7 8 -9 8 -2 0 -6 -4
-9 -8z"/>
<path d="M1960 676 c-5 -5 -10 -15 -10 -20 0 -6 5 -3 11 7 6 9 14 15 19 12 5
-3 11 -2 14 3 7 12 -21 11 -34 -2z"/>
<path d="M3348 673 c7 -3 16 -2 19 1 4 3 -2 6 -13 5 -11 0 -14 -3 -6 -6z"/>
<path d="M3230 659 c0 -5 5 -7 10 -4 6 3 10 8 10 11 0 2 -4 4 -10 4 -5 0 -10
-5 -10 -11z"/>
<path d="M3271 653 c6 -7 17 -13 23 -12 7 0 6 2 -2 6 -6 2 -10 8 -8 12 3 4 -1
8 -9 8 -11 0 -12 -4 -4 -14z"/>
<path d="M73 645 c0 -8 4 -12 9 -9 5 3 6 10 3 15 -9 13 -12 11 -12 -6z"/>
<path d="M505 639 c-4 -6 -5 -12 -2 -15 2 -3 7 2 10 11 7 17 1 20 -8 4z"/>
<path d="M874 635 c3 -23 12 -26 13 -5 1 11 -2 20 -7 20 -4 0 -7 -7 -6 -15z"/>
<path d="M1310 640 c0 -5 5 -10 10 -10 6 0 10 5 10 10 0 6 -4 10 -10 10 -5 0
-10 -4 -10 -10z"/>
<path d="M81 616 c-9 -11 -9 -16 1 -22 7 -4 10 -4 6 1 -4 4 -3 14 3 22 6 7 9
13 6 13 -2 0 -10 -6 -16 -14z"/>
<path d="M535 620 c-3 -5 -1 -10 4 -10 6 0 11 5 11 10 0 6 -2 10 -4 10 -3 0
-8 -4 -11 -10z"/>
<path d="M1437 612 c-15 -16 -15 -19 -2 -19 8 0 13 3 10 5 -3 3 0 11 6 19 17
20 5 16 -14 -5z"/>
<path d="M1461 594 c0 -11 3 -14 6 -6 3 7 2 16 -1 19 -3 4 -6 -2 -5 -13z"/>
<path d="M1349 583 c-13 -16 -12 -17 4 -4 16 13 21 21 13 21 -2 0 -10 -8 -17
-17z"/>
<path d="M1310 580 c0 -5 5 -10 10 -10 6 0 10 5 10 10 0 6 -4 10 -10 10 -5 0
-10 -4 -10 -10z"/>
<path d="M509 563 c-13 -16 -12 -17 4 -4 9 7 17 15 17 17 0 8 -8 3 -21 -13z"/>
<path d="M1413 567 c0 -8 6 -14 14 -14 9 0 10 4 2 14 -6 7 -12 13 -14 13 -1 0
-2 -6 -2 -13z"/>
<path d="M876 542 c-3 -5 1 -9 9 -9 8 0 12 4 9 9 -3 4 -7 8 -9 8 -2 0 -6 -4
-9 -8z"/>
<path d="M1316 533 c-6 -14 -5 -15 5 -6 7 7 10 15 7 18 -3 3 -9 -2 -12 -12z"/>
<path d="M1450 539 c0 -5 5 -7 10 -4 6 3 10 8 10 11 0 2 -4 4 -10 4 -5 0 -10
-5 -10 -11z"/>
<path d="M1430 521 c0 -6 4 -13 10 -16 6 -3 7 1 4 9 -7 18 -14 21 -14 7z"/>
<path d="M1886 522 c-3 -5 1 -9 9 -9 8 0 12 4 9 9 -3 4 -7 8 -9 8 -2 0 -6 -4
-9 -8z"/>
<path d="M2756 507 c3 -10 9 -15 12 -12 3 3 0 11 -7 18 -10 9 -11 8 -5 -6z"/>
<path d="M45 500 c-3 -6 1 -7 9 -4 18 7 21 14 7 14 -6 0 -13 -4 -16 -10z"/>
<path d="M1333 475 c0 -8 4 -12 9 -9 5 3 6 10 3 15 -9 13 -12 11 -12 -6z"/>
<path d="M1370 480 c0 -5 5 -10 11 -10 5 0 7 5 4 10 -3 6 -8 10 -11 10 -2 0
-4 -4 -4 -10z"/>
<path d="M1339 448 c-5 -18 -6 -38 -1 -34 7 8 12 36 6 36 -2 0 -4 -1 -5 -2z"/>
<path d="M3675 369 c-4 -6 -5 -12 -2 -15 2 -3 7 2 10 11 7 17 1 20 -8 4z"/>
<path d="M2974 342 c4 -3 14 -7 22 -8 9 -1 13 0 10 4 -4 3 -14 7 -22 8 -9 1
-13 0 -10 -4z"/>
<path d="M1130 299 c0 -5 5 -7 10 -4 6 3 10 8 10 11 0 2 -4 4 -10 4 -5 0 -10
-5 -10 -11z"/>
<path d="M1170 299 c0 -5 5 -7 10 -4 6 3 10 8 10 11 0 2 -4 4 -10 4 -5 0 -10
-5 -10 -11z"/>
<path d="M3216 253 c-6 -14 -5 -15 5 -6 7 7 10 15 7 18 -3 3 -9 -2 -12 -12z"/>
<path d="M3335 260 c-3 -5 -1 -10 4 -10 6 0 11 5 11 10 0 6 -2 10 -4 10 -3 0
-8 -4 -11 -10z"/>
</g>
</svg>
