<svg xmlns="http://www.w3.org/2000/svg" width="640" height="640" version="1.0" viewBox="0 0 480 480"><path d="M158.6 31.8c-.3.5.1.9.9.9s1.2-.4.9-.9c-.3-.4-.7-.8-.9-.8s-.6.4-.9.8m4.1.3c.7.7 1.5 1 1.8.7s-.2-.9-1.2-1.2c-1.4-.6-1.5-.5-.6.5m-143.2 2c.5 1.4-.5 1.6-7 1.6-4.2 0-7.8.3-8.1.6-.7.7-.8 30.2-.1 31.4.4.5 3.7.9 7.4.8 3.7 0 7.4.3 8.1.8.7.6 1.2.6 1.2 0 0-.5.9-.9 2-.9 2.5 0 2.6 1.3.3 1.9-1.7.4-1.7.5 0 .6 1 0 2-.6 2.3-1.4.6-1.4.8-1.3 2.1.2.8 1 1.2 1.3.8.6-.4-.9.7-1.2 3.8-1.1h4.3v8.4c.1 4.6-.3 8.1-.8 7.8-.4-.3-.8 0-.8.5 0 .6.5 1.1 1 1.1.6 0 1 .9 1 2.1 0 1.3-.4 1.8-1.2 1.3-1-.6-1-.5-.1.7 1.3 1.6 1.2 3.6-.1 5.8-.6 1-.5 1.2.2.7 2-1.2 1.4 4.5-.5 6-1.7 1.3-1.7 1.4 0 .8 1.4-.5 1.8-.2 1.5 1.2-.2 1.1-.7 2.2-1.3 2.6-.6.5-.5.8.3.8.7 0 1.2 1.4 1.2 3.6 0 1.9-.4 3.3-.8 3-.5-.3-.9.1-.9.9s.4 1.2.9.9c.4-.3.8.2.8 1 0 1-.7 1.3-2 1.1-1.2-.2-1.8 0-1.5.6.4.5 1.1.7 1.6.4 1.9-1.2 2.1 2.6.3 4.8-1.1 1.3-1.3 1.7-.3 1 1.3-1.1 1.5-.3 1.7 6.3.2 4.9-.1 7.3-.8 6.9-.5-.3-1-.1-1 .4 0 .6.5 1.1 1 1.1.6 0 1 3.7 1 9v8.9l7.3.3c4.4.2 7 .7 6.7 1.3-.3.5-.9.9-1.5.7-.5-.2-.6 0-.2.4 1.6 1.6 3.5 1.2 3.2-.7-.3-1.5.2-1.9 2.3-1.9s2.4.2 1.2 1c-.9.6-1 1-.3 1 .6 0 1.5-.5 1.8-1 .4-.6 1.2-1 1.8-.9.7.1 4.4.1 8.4 0l7.1-.1-.5-3.1c-.3-2.2-.1-2.9.7-2.4.9.6.9.2.1-1.3-.8-1.4-.8-2.3-.1-2.7s.7-1.1.2-1.8c-1-1.4-1-6.7.1-8.4.4-.6.4-1.4 0-1.6-.5-.3-.8-5.2-.8-10.9.1-7.5.4-10.2 1.3-10.1.7.2 1.2-.2 1.2-.7 0-.6-.6-1-1.4-1-.9 0-1.3-1-1.2-2.5.1-1.8.5-2.4 1.6-2 1.3.4 1.3.4 0-.7-2.1-1.8-2.1-8 0-7.3 1.3.4 1.3.3 0-.7-2.1-1.7-2.1-9 0-10 1.3-.6 1.3-.7-.1-.7-1.3-.1-1.6-1.3-1.5-5.9.1-3.6.6-6.1 1.5-6.8 1.1-.9 1.2-1.2.1-1.9-.9-.6-1.1-.4-.5.5.5.7.4 1.1-.1.7-.7-.4-.9-3.6-.5-8 .1-.4 1.7-.7 3.7-.7 2.1 0 3.3.4 2.9 1s-1 .8-1.5.5-.8.4-.7 1.5c.1 2 .2 2 1.9-.2 1-1.3 1.8-2.6 1.8-3s1.2-.3 2.6.2c1.6.7 2.3.7 1.9 0-.3-.6-.1-1 .4-1 .6 0 1.1.8 1.2 1.7 0 1.5.2 1.5.7.3s2.6-1.5 9-1.5l8.2.1.1-6.6c.1-11.9-.2-25.5-.6-25.8-.2-.3-4.9-.5-10.4-.5-6-.1-9.7-.5-9.4-1.1.4-.5.1-.6-.7-.1-2.2 1.3-11 1.5-11 .2 0-.8-.3-.8-.8-.2-1 1.4-10.5 1.5-11.4.1-.6-.8-.8-.7-.8.1 0 .7-.5 1.3-1.1 1.3-.5 0-.7-.6-.3-1.3.6-.9.4-.9-.7-.1-1.8 1.4-8.2 1.4-9.1 0-.5-.8-.8-.7-.8.1 0 .7-.5 1.3-1.1 1.3-.5 0-.7-.5-.3-1.2.5-.8.3-.8-.7-.2-.8.5-7 .9-13.9 1-10.3.1-12.7-.2-13.8-1.5-1.1-1.5-1.2-1.5-.7 0"/><path d="M42.5 34c-.3.6.1.7.9.4 1.8-.7 2.1-1.4.7-1.4-.6 0-1.3.4-1.6 1m12 0c-.3.6.1.7.9.4 1.8-.7 2.1-1.4.7-1.4-.6 0-1.3.4-1.6 1m12 0c-.3.6.1.7.9.4 1.8-.7 2.1-1.4.7-1.4-.6 0-1.3.4-1.6 1m12 0c-.3.6.1.7.9.4 1.8-.7 2.1-1.4.7-1.4-.6 0-1.3.4-1.6 1m99.4-.3c-.1.5-.1 1.1-.1 1.4.1.4-6.9.7-15.6.7-23.7.1-21.9-.1-22.5 2.4-1.1 4.9-5 14.8-5.8 14.8-.5 0-.5.7-.2 1.7.4 1 .2 1.4-.4 1-.7-.5-.9.1-.5 1.5.3 1.4.1 1.9-.6 1.4-.8-.4-1-.2-.6.7.3.8-.1 2.1-.8 2.8-.7.8-1.4 2.7-1.6 4.4-.2 1.6-.8 3.5-1.3 4.1s-.6 1.4-.2 1.7c.3.4 0 .7-.7.7s-1.1.3-.7.6c.3.3-.3 2.5-1.3 4.9s-1.6 4.5-1.3 4.8c.8.8-3 2.5-5 2.2-.9-.2-1.5.1-1.2.5.3.5 1.7.7 3 .4 2.4-.4 2.5-.3 1.3 1.8-.7 1.3-1.5 2.5-1.8 2.8s-.6 1.5-.8 2.7-2 6.6-4.1 12-4.2 11.3-4.5 13c-.4 1.8-1.1 3.3-1.5 3.3s-.7 1-.8 2.2c-.1 1.1-.7 2.4-1.3 2.8-.7.4-1.1 1-1.1 1.4.2 1.7-1.3 6.7-2 7.2-.5.3-.6 1-.3 1.6.5.8.1.9-1.1.4-1.6-.6-1.6-.4-.4 1.1 1.3 1.5 1.2 1.6-.6.9-1.6-.6-1.8-.5-.7.5 1.4 1.5 1.7 4.3.3 3.5-.5-.3-.8 0-.7.7.2 2-3.5 11.7-4.4 11.7-.5 0-.7.7-.4 1.5.4 1 2 1.5 5.2 1.5 2.9 0 5.3.6 6.6 1.7 1.9 1.7 2 1.7.7.1-1.2-1.6-.8-1.7 5.8-1.7 4.7.1 7.1.5 7.1 1.2s.5.5 1-.3c.9-1.3 1.1-1.3 2 0 .6.9 1 1 1 .3 0-.8 1.6-1.2 4.3-1.1 5.8.1 8.7-.9 8-2.8-.3-.7-.1-1.4.3-1.4.5 0 1-1.4 1.1-3.1.3-3.8 1.1-4.8 2.3-2.9 1.3 1.9 1.3.4.1-1.9-.6-1.1-.6-2.2 0-3.2.8-1.1 1.2-1.1 1.6-.2.2.7 1.2 1.3 2.1 1.3 1.3 0 1.4-.2.3-.9-.9-.6-.5-.9 1.4-.9 1.9.1 2.3.4 1.6 1.1-.6.6-1.1 1.5-1.1 2.1 0 .5.6.1 1.4-.9 1.4-1.9 6.2-3.3 5.1-1.5-.3.5-.1 1 .4 1 .6 0 1.1-.4 1.1-.8 0-.5 2.5-.9 5.5-.9 3.6 0 5.2.4 4.8 1.1-.4.6.1.5 1.1-.3 1.5-1.3 1.9-1.3 2.7 0 .6 1 .9 1 .9.1 0-.6.7-1.2 1.6-1.2.8 0 1.2.5.9 1.1-.4.6.3.5 1.4-.3 1.8-1.1 2.3-1.1 3.1.2.5.8 1 1 1 .3 0-.6 1.5-1.1 3.5-1.1 3.1 0 4 .7 3.6 3-.2 1.2 1.7 1 2.4-.2.3-.6.1-1-.4-1-.6 0-1.1-.5-1.1-1.1 0-.8.4-.8 1.4 0 .8.7 1.3 2.1 1.1 3.2-.2 1 .1 1.9.7 1.9s.8.3.5.7c-.4.3-.2 1.2.3 1.8.6.7 1.2 2.7 1.3 4.4l.2 3.1h7.8c5.5 0 7.7.4 7.7 1.2 0 1 .2 1 .8.1.5-.8 4.5-1.1 13.4-1 11.8.2 12.5.1 11.7-1.6-.6-.9-.7-2.2-.4-2.7.3-.6.2-1-.3-1-.9 0-2.2-2.9-2.6-5.5-.1-.6-.7-1.9-1.3-3s-1.1-2.2-1.1-2.5-.6-1.8-1.2-3.4c-.8-2.1-.7-3.2.1-4.2.9-1.1.6-1.6-1.2-2.3-1.3-.5-1.8-1-1-1 1.2-.1 1.2-.3-.1-1.4-3.5-2.8-2.6-6.8 1.4-6.2 1 .2 2 0 2.3-.4.5-1-4.2-.8-5.1.2-1 .9-2.4.9-2.2-.1.1-.4-.4-2.1-1.1-3.7-1.4-3.2-2.2-6.2-2.3-8.3-.1-.6-.5-1.2-1-1.2-.4 0-.8-.8-.8-1.8s-.6-2.4-1.2-3.1c-1.1-1.1-1-1.2.1-.6s1 .2-.2-1.5c-1.2-1.8-1.4-2.7-.5-3.7.8-1 .7-1.2-.4-.8-1 .4-1.7-.1-2.1-1.4-.3-1.4-.1-1.8 1.2-1.5.9.3.6-.1-.6-.7-2.1-1.1-2.8-2.8-2.4-5.3.1-.5-.3-1.2-1-1.6-.6-.4-1.1-1.9-1.1-3.4 0-1.4-.4-2.3-.9-2s-.9.1-.9-.5c0-.5.5-1.3 1-1.6.6-.3 1-1.2.9-1.8q0-1.35-.6 0c-.2.7-.9 1.3-1.4 1.3-.6 0-.7-.5-.4-1 .3-.6.1-1-.4-1-.6 0-1.1-.5-1.1-1.1 0-.5.6-.7 1.3-.3.6.4.3-.2-.7-1.4-1.1-1.2-1.5-2.2-1-2.2s.4-.4-.3-.8c-.6-.4-1.3-1.6-1.5-2.7-.1-1.1-.7-2.3-1.3-2.7-.6-.5-.4-.8.4-.8 1.1 0 .9-.4-.4-1.4-1.9-1.4-1.9-1.5 0-3.7 1.7-2 1.7-2.1.2-.9-1.6 1.2-2 1.2-2.8-.1-.5-.8-.7-2-.4-2.7.2-.6.1-1.2-.3-1.2-.6 0-2.8-5.2-3.5-8.7-.2-.7-.6-1.6-1-1.9-.4-.4-.7-1.4-.7-2.3-.1-.9-.9-3.2-1.8-5.1-1.6-3.1-2.1-3.4-6.2-3.5-3.1 0-4.4-.4-4.2-1.3.1-.6 0-1.2-.3-1.2s-.6.3-.6.7m-11.3 42.8c-.2.7.1 2.3.8 3.7.7 1.3 1 3 .8 3.7-.3.8 0 1.1.7.7s.9-.2.5.7c-.3.8-.1 1.8.5 2.2 1.9 1.1 1.2 3.4-.9 3.2-1.1-.1-1.8-.6-1.6-1.2.2-.5 1-.9 1.7-.7 1.1.3 1.1.1.2-.9-.9-.9-1.7-.5-3.6 1.7-1.4 1.6-2.3 3.1-2.1 3.4.3.2.8 0 1.2-.6.9-1.3 4.2-1.4 4.2-.1 0 .5.7.7 1.5.3.8-.3 1.5-.1 1.5.4 0 1.6-1.9 2.1-3.9 1-2.4-1.2-3.5.1-2.6 3 .8 2.6 2.7 2.6 4.3 0 .7-1.1 1.7-2 2.3-2s.1 1.3-1 2.9c-1.8 2.4-1.9 3-.6 3.5.8.3 2.2.2 3.2-.1.9-.4 1.4-.2 1 .4-.3.5 0 2.1.8 3.6s1 2.7.5 2.7c-1.3 0-3.1-3.6-2.2-4.6.4-.5-.1-.2-1 .5-1 .7-1.8.9-1.8.3 0-.5-.7-1.2-1.4-1.5-.9-.4-1.3-.1-1 .6.2.8-.4 1.3-1.7 1.4-1.7.2-1.8-.1-.9-1.3 1.4-1.6 1.4-1.6-1.8-1.9-1.3-.1-2.6.4-2.9 1.2-.4 1.1-1 1-2.8-.7-1.7-1.6-2.5-1.8-3-.9-.6.8-.4 1 .5.4.9-.5 1-.2.5 1.4-.4 1.3-.2 2.1.5 2.1.6 0 .8-.5.5-1-.3-.6-.2-1 .4-1 .5 0 1.2.6 1.5 1.2.3 1 .8.9 1.8-.2.7-.8 2.2-1.7 3.3-1.8 1.5-.3 1.7-.1.8.8-.6.7-.9 1.8-.7 2.5.6 1.4-2.4 4.1-3.4 3-.4-.4-.1-1 .6-1.2.6-.3 1.2-.9 1.2-1.5 0-.7-.4-.7-1.2-.1-.7.6-3 .9-5.1.8-2.8-.2-3.5.1-2.7 1 .5.6.6 1.6.2 2-.4.5-.1.5.7 0q1.5-.9.6.6c-.5.8-.4 1.1.1.6s.9-1.4.9-1.9c0-.6.5-1.3 1.2-1.5.7-.3 1.1.3.8 1.5-.2 1.4.1 1.9 1.3 1.7.9-.2 2-.4 2.4-.4.4-.1 1.7-1.1 2.8-2.3 2.2-2.3 8.4-3.5 7.7-1.4-.2.6-1.2 1-2.2.8-1.1-.2-1.5.2-1.3 1 .3.7 1.4 1.2 2.6 1.2 1.2-.1 1.9.3 1.6.7-.3.5 0 .9.6.9.7 0 1-.7.6-1.5-.5-1.3-.2-1.4 1.5-.4 1.1.6 1.8 1.4 1.4 1.7-.9 1-9.5.9-8.9 0 .3-.4 0-1.6-.5-2.5-.8-1.5-1.1-1.5-1.2-.3-.1.8-.1 2.1 0 2.7.1.7-.3 1.3-.9 1.3-.5 0-1-.5-1-1 0-.6-.5-1-1.1-1-.5 0-.8.4-.5.8.2.4-2.4.8-5.9.7-4 0-6.1-.4-5.7-1 .4-.5.7-1.8.7-2.8s.7-2.2 1.5-2.7c1.3-.9 1.3-1 0-1-.9 0-1.1-.3-.5-.8.6-.4 1.1-1.5 1.3-2.6.2-1 .8-3 1.4-4.5.6-1.4 1.1-2.9 1-3.3s.6-2.4 1.5-4.5c1.7-4 2.3-5.9 2.5-8.1.1-.6.5-1.2 1-1.2s.7-.4.4-.8c-.2-.4-.1-1.4.3-2.1.6-.9 1.1-1 1.5-.2.4.6.2 1.1-.4 1.1s-.8.5-.4 1.1c.5.8 1 .6 1.6-.5.5-.9.6-2.1.2-2.8-.5-.7-.3-.8.5-.4.7.5 1 1.4.7 2.1m2.2 19.7c-.5 1.5-2.3 1.1-2.6-.6-.2-1.1.2-1.4 1.3-1 .9.4 1.4 1.1 1.3 1.6m4.4 4c-1.5 1.5-2.4.6-1.6-1.6.5-1.2 1-1.4 1.7-.7.8.8.8 1.4-.1 2.3"/><path d="M162.7 80.4c-.3.8-.2 1.8.3 2.1.6.4 1 1.1 1 1.7s-.7.5-1.7-.3-1.4-.9-1-.2c.4.6.2 1.5-.3 1.8-.7.5-.5 1.2.7 2.1 2.5 1.8 3.1 1.7 3.8-.6.4-1.1 1-1.8 1.4-1.6 1.1.7.7-2.6-.7-4.9-.8-1.4-1.2-1.6-1.2-.5 0 1.2-.2 1.2-.9.2-.7-1.1-.9-1.1-1.4.2m4.1 1.5c.1.1-.5 1.5-1.3 3.1-1.5 2.8-3.5 3.3-3.5.9 0-.6.4-.8.9-.4 1.5.9 2.4-1.4 1.1-3-1-1.2-.2-1.4 2.8-.6m-6.5 6.8c.4.3-.1 1.1-.9 1.8-1.5 1.1-1.5 1.2 0 1.2.9 0 1.6-.4 1.6-.9s.6-.6 1.3-.2c.8.5.8.2-.2-.9-.7-.9-1.6-1.7-1.9-1.7s-.2.3.1.7m-1.4 5.6c-.1.7-.1 1.5 0 1.9 0 .5-.3.8-.9.8-.5 0-1 .5-1 1.1 0 .8.6.7 1.6-.2 1.5-1.2 1.6-1.1 1 .9-.5 1.5-.3 2.2.5 2.2.7 0 .9-.3.6-.6-1-1 1.3-4.5 2.5-3.8.7.5.8.1 0-1.1-1.1-2.1-4.1-2.9-4.3-1.2m2.6 1.6c-.3.6-1.1.8-1.7.5q-.9-.6.3-1.5c1.6-1 2.3-.4 1.4 1m1.3 3.8c.7.3 1.6.2 1.9-.1.4-.3-.2-.6-1.3-.5-1.1 0-1.4.3-.6.6m95.1-66c-.1.5-.1 1.1-.1 1.4.1.3-3.7.6-8.4.6s-8.7.3-9.1.6c-.3.4-.6 3.6-.5 7.2 0 3.6-.3 6.3-.8 6s-1.2-.1-1.5.5c-.4.6-.1.9.7.8 1.6-.4 1.9 5 .4 7.1-.8 1.1-.8 1.3 0 .8 1.4-.8 1.6 4.1.2 6.7-.6 1.1-.6 1.6 0 1.2 1.4-.8 1.3 11.6-.1 13.3-.8 1-.8 1.3-.1.8 1.4-.8 1.4 15.1 0 17.2-.6 1-.5 1.2.2.7.8-.5 1.1 1.7 1 7.3-.1 4.8-.5 7.8-1 7.4-.6-.3-.5.4.1 1.5 1.4 2.7 1.4 3.5-.1 2.6-1-.6-1-.5-.1.7 1.3 1.7 1.3 10 0 9.2-.6-.4-.7-.1-.1.8 1.5 2.5 1.4 13.7-.2 14.3s-1.9 2.6-.3 2.6c.5 0 .7-.5.4-1-.3-.6-.2-1 .4-1 .5 0 .9 2.4.9 5.2-.1 9.8.1 10.8 2 10.8 1 0 2.4.6 3.1 1.2 1.1 1 1.3 1 .7 0-.5-.8.1-1.2 1.9-1.2 1.5 0 2.4.4 2 1-.3.5-.2 1 .4 1 .5 0 1.2-.6 1.4-1.3.4-.9.8-.9 1.6.3.5.8.7 1.8.4 2.4-.3.5-.1.6.5.2s.9-1.3.5-2.1c-.6-1.8.8-1.9 2.6-.3 1.1 1 1.3 1 .7 0-.4-.6-.2-1.2.3-1.2.6 0 1.1.6 1.1 1.2 0 1 .2 1 .8.1.9-1.4 5.4-1.3 6.4.2.5.6.8.6.8-.3 0-.6.5-1.2 1.1-1.2.5 0 .7.6.3 1.2-.6 1-.4 1 .7.2.8-.6 2.5-1.1 3.9-1.2 1.9-.1 2.1.1 1 .8-.8.5-1 1-.4 1 .5 0 1.6-.6 2.2-1.2 1-1 1.5-1 2.2.2.7 1 1 1.1 1 .2 0-1.8 1.8-1.5 2.3.5.4 1.7.5 1.7.6 0 0-.9.6-1.7 1.2-1.7.5 0 .7.5.3 1.2-.5.7-.3.8.7.2.8-.5 4.1-1 7.3-1.1 3.8-.1 5.4.2 4.5.7-1 .7-.8.9.8.7 1.2 0 2-.4 1.8-.8-.3-.3 2.4-.6 5.8-.7 3.6 0 6.5.5 6.9 1.1.6.9.8.8.8-.1 0-1 1.5-1.3 5.3-1.1 6.6.3 7.9-.4 6.7-3.5-.5-1.3-.6-2.7-.2-3 .9-.9.8-10.6-.1-10.6-.4 0-.4-.8 0-1.8 1.3-2.8.8-13.7-.6-13.4-.6.1-2.1-.3-3.3-.9-1.1-.6-1.8-.7-1.5-.2s-1.2.9-3.4.9c-2.1 0-3.9-.4-3.9-.9s-.8-.3-1.7.4c-1.1 1-1.4 1-.9.1.4-.6.3-1.2-.3-1.2-.5 0-1.1.6-1.4 1.2-.3.9-1 .7-2.3-.7-1-1.2-1.5-1.5-1-.8.5.9.4 1.3-.5 1.4-4.9.5-7.5.3-8.1-.6-.5-.6-.8-.4-.8.5 0 1.2-.2 1.3-.9.1-.6-.8-1.4-1-2.2-.5s-1.9.9-2.6 1c-1.6.3-3.6-2.3-2.8-3.6.4-.6-.2-.7-1.7-.1-1.3.4-2.9.6-3.5.4-.7-.3-1.3 0-1.3.7 0 .6.4.9.9.6s1.1 0 1.4.7c.3.8-.1 1.4-.9 1.4s-1.4-.4-1.4-.9-.4-.6-1-.3c-1.1.7-.2-2.3 1.3-4.3.8-1.1 1.2-1.1 1.8 0 .7 1 .9.9.9-.5 0-1.9-1.5-2.3-2.5-.7-1.1 1.8-2 1-2.1-2-.1-1.7.3-3 .8-3s.6-.6.1-1.3c-1.3-2-1.4-4.9-.2-4.1.8.4.8 0 0-1.5-1.1-2-1-2.1 2.1-1.6 1.8.3 3 .3 2.6 0-.5-.6-2.8-1.2-5-1.4-.5-.1-.8-.6-.8-1.2 0-.5.5-.7 1.2-.3.7.5.8.3.2-.7-1.3-2-1.2-15.9.1-15.2.5.3.4 0-.2-.8-.7-.7-1.3-2-1.3-2.8 0-1.4.2-1.4 1.1-.1.9 1.2.9 1.1.4-.5-.4-1.1-.9-3.5-1-5.3-.3-2.8-.1-3.1 1.1-2.1.7.6 1.1 1.6.7 2.2s-.1.7.6.2c.9-.5.7-1.3-.8-2.9-1.7-1.8-1.8-2.5-.8-3.6.6-.7.7-1 .2-.7-1.4.7-1.4-16.5 0-17.5.6-.5.5-.8-.4-.8-1.1 0-1.1-.3-.1-1.5s1-1.9.2-2.7c-.7-.7-.8-1.7-.2-2.9.6-1 .6-2 .1-2.3-.4-.3-.7-2.1-.6-4.1.2-3.9 1.3-3.5-12-3.8-5-.2-6.9-.6-6.7-1.5.1-.6 0-1.2-.3-1.2s-.6.3-.6.7m26.6 91.2c.3.5.1 1.2-.4 1.5s-1.1-.1-1.5-.9c-.6-1.6.9-2.1 1.9-.6"/><path d="M265 34c0 .5.5 1 1.1 1 .5 0 .7-.5.4-1-.3-.6-.8-1-1.1-1-.2 0-.4.4-.4 1M1.5 50.9c-.3.5-.2 1.2.3 1.5s.9-.1.9-.9c0-1.7-.3-1.9-1.2-.6M127 56c0 .5.5 1 1.1 1 .5 0 .7-.5.4-1-.3-.6-.8-1-1.1-1-.2 0-.4.4-.4 1m70.6 2.7c-.6 1.4-.5 1.5.5.6.7-.7 1-1.5.7-1.8s-.9.2-1.2 1.2M125.5 64c-.3.5-.1 1 .4 1 .6 0 1.1-.5 1.1-1 0-.6-.2-1-.4-1-.3 0-.8.4-1.1 1m156 2c.3.5.8 1 1.1 1 .2 0 .4-.5.4-1 0-.6-.5-1-1.1-1-.5 0-.7.4-.4 1m-159.9 3.8c-.3.5.1.9.9.9s1.2-.4.9-.9c-.3-.4-.7-.8-.9-.8s-.6.4-.9.8m-93.1 2.4-2 2.1 2.3-1.2C30 72.5 31 71.5 31 71c0-1.3-.2-1.2-2.5 1.2m46.9-1.1c-.5.8-.3.9.6.4 1-.6 1.2-.3.8 1.3-.4 1.2-.2 2 .3 1.6 1.2-.7 1.2-3.1 0-3.9-.5-.3-1.3 0-1.7.6m15.6-.7c0 .2.8 1 1.8 1.7 1.5 1.3 1.6 1.2.3-.4S91 69.6 91 70.4m-57.9 2.8c1.4 2.7 2.4 2.8 2.5.3.1-1.7-.3-2.3-1.6-2.2-1.4.1-1.6.5-.9 1.9M95 71.4c0 .2.7.7 1.6 1 .8.3 1.2.2.9-.4-.6-1-2.5-1.4-2.5-.6m-5.5 1.7c-.4.6-.5 1.2-.2 1.5.2.3.7-.2 1-1.1.7-1.7.1-2-.8-.4m-58.2 1.7c0 1.2.5 2.2.9 2.2 1.1 0 1-1.2-.2-3-.7-1.2-.9-1-.7.8m51.5-1.1c.6.2 1.8.2 2.5 0 .6-.3.1-.5-1.3-.5s-1.9.2-1.2.5m121.9.4c.7.7 1.5 1 1.8.7s-.2-.9-1.2-1.2c-1.4-.6-1.5-.5-.6.5m-81.4 1.6c.4.3.1 1.3-.6 2.2-1.1 1.4-1 1.4.6.2 2-1.5 2.2-3.1.5-3.1-.6 0-.8.3-.5.7m84.3 1c-.6 1.4-.5 1.5.5.6.7-.7 1-1.5.7-1.8s-.9.2-1.2 1.2m29.9.4c-.4.6-.5 1.2-.2 1.5.2.3.7-.2 1-1.1.7-1.7.1-2-.8-.4m-211.1.7c.4.3 1.4.7 2.2.8.9.1 1.3 0 1-.4-.4-.3-1.4-.7-2.2-.8-.9-.1-1.3 0-1 .4m7.1.1c-.6 1.1 1.3 2.6 2.2 1.7.4-.3.1-.6-.6-.6s-.9-.5-.6-1c.3-.6.4-1 .1-1s-.7.4-1.1.9m43.1 1.9c-.3.5.1.9.9.9s1.5-.4 1.5-.9c0-.4-.4-.8-.9-.8-.6 0-1.2.4-1.5.8m-45.1 1.1c-.3.5-.2 1.2.3 1.5s.9-.1.9-.9c0-1.7-.3-1.9-1.2-.6m206 8.2c-.4.6-.5 1.2-.2 1.5.2.3.7-.2 1-1.1.7-1.7.1-2-.8-.4M115 90.4c0 .2.8 1 1.8 1.7 1.5 1.3 1.6 1.2.3-.4s-2.1-2.1-2.1-1.3M33.5 94c-.3.5-.1 1 .4 1 .6 0 1.1-.5 1.1-1 0-.6-.2-1-.4-1-.3 0-.8.4-1.1 1M76 94c-1.2.7-1 .9.7.7 1.2 0 1.9-.5 1.7-.9-.6-1-.6-1-2.4.2m205.5 4c-.3.5-.1 1 .4 1 .6 0 1.1-.5 1.1-1 0-.6-.2-1-.4-1-.3 0-.8.4-1.1 1m-166.6 1.7c-1.3 1.6-1.2 1.7.4.4.9-.7 1.7-1.5 1.7-1.7 0-.8-.8-.3-2.1 1.3m122.6 3.4c-.4.6-.5 1.2-.2 1.5.2.3.7-.2 1-1.1.7-1.7.1-2-.8-.4m-126.2 5.4c0 .8.4 1.2.9.9s.6-1 .3-1.5c-.9-1.3-1.2-1.1-1.2.6m107.4 1.6c.7.7 1.5 1 1.8.7s-.2-.9-1.2-1.2c-1.4-.6-1.5-.5-.6.5m.7 6.3c0 1.2.6 2.3 1.3 2.3q1.35 0 .3-1.2c-.5-.7-.7-1.4-.4-1.7s.1-.8-.3-1.1c-.5-.3-.9.5-.9 1.7m66.1-1.5c-.3.5-.2 1.2.3 1.5s.9-.1.9-.9c0-1.7-.3-1.9-1.2-.6m-60.5 1.2c0 .5.5.7 1 .4.6-.3 1-.8 1-1.1 0-.2-.4-.4-1-.4-.5 0-1 .5-1 1.1m-119.4 1.7c-.3.5.1.9.9.9s1.2-.4.9-.9c-.3-.4-.7-.8-.9-.8s-.6.4-.9.8m124 .4c.3.5 1 .6 1.5.3 1.3-.9 1.1-1.2-.6-1.2-.8 0-1.2.4-.9.9m6-.4c-.2.4-.1 1.4.4 2.2.7 1.1.9.9.7-.8-.1-2.4-.3-2.6-1.1-1.4m49.7 1.5c0 .8.6 1.4 1.4 1.4.9 0 1-.4.2-1.4-.6-.7-1.2-1.3-1.4-1.3-.1 0-.2.6-.2 1.3m11.7.1c0 .2.7.7 1.6 1 .8.3 1.2.2.9-.4-.6-1-2.5-1.4-2.5-.6m-9 2.6c-.9.6-1 1-.3 1 .6 0 1.5-.5 1.8-1 .8-1.2.4-1.2-1.5 0m3.5-.1c-.3.5-.2 1.2.3 1.5s.9-.1.9-.9c0-1.7-.3-1.9-1.2-.6m-58.2 1.6c0 .8.4 1.2.9.9s.6-1 .3-1.5c-.9-1.3-1.2-1.1-1.2.6m64.3.3c-.3.4.4.9 1.5.9 2.3.2 2.5-.3.4-1-.8-.4-1.6-.3-1.9.1m-10.6.6c0 .2.7.7 1.6 1 .8.3 1.2.2.9-.4-.6-1-2.5-1.4-2.5-.6m-51.2 1.3c.7.3 1.6.2 1.9-.1.4-.3-.2-.6-1.3-.5-1.1 0-1.4.3-.6.6m.3 2.4c-.1.9.7 2.3 1.7 3 1.5 1.2 1.6 1.2.6-.1-.6-.8-1.4-2.2-1.7-3-.5-1.3-.6-1.2-.6.1m-159.5 1.7c-.3.5.1.9.9.9s1.2-.4.9-.9c-.3-.4-.7-.8-.9-.8s-.6.4-.9.8m149.2.4c.5.5 1.6.8 2.3.6.8-.3.3-.7-1-1.1-1.7-.4-2.1-.3-1.3.5m5.2 1.8c0 .6.4.9.9.6.5-.4 1.2-.1 1.4.4.3.6.4.5.3-.2-.3-1.5-2.6-2.3-2.6-.8m4.3 1.5c0 .8.7 1.1 1.6.7 1.4-.5 1.4-.3.2 1.1-.7.9-1.1 1.7-.8 1.7.2 0 1-.6 1.6-1.4 1-1.2.8-1.7-.7-2.5-1.4-.7-1.9-.7-1.9.4m-8.3 3c-1.1 1.3-1 1.4.4.9.9-.3 1.6-1 1.6-1.5 0-1.3-.6-1.1-2 .6m6.6-.1c.5 1.3.4 1.7-.4 1.3-1.2-.8-6.2 1.2-6.2 2.5 0 .5 1.1.1 2.5-.8 1.3-.8 2.9-1.3 3.4-1 1.5 1 2.5-1.4 1.2-2.7-.9-.9-1-.7-.5.7m3.8 2.1c-.4.8-1 1.2-1.5.9s-.6.3-.2 1.2c.4 1.1.8 1.3 1.1.6.2-.7.7-1 1.1-.8.4.3.7-.4.7-1.5 0-2.3-.5-2.4-1.2-.4m-7.7 3.7c.2.5 1.3.8 2.3.8s2.1-.3 2.3-.8c.3-.4-.8-.7-2.3-.7s-2.6.3-2.3.7m-1 1.9c.7.7 1.5 1 1.8.7s-.2-.9-1.2-1.2c-1.4-.6-1.5-.5-.6.5m-47.7 3.1c-1.5 2.1-1.7 2.8-.6 1.9 1.6-1.3 4.1-5.1 3.3-5.1-.2 0-1.4 1.5-2.7 3.2M32 146c-1.2.7-1 .9.7.7 1.2 0 1.9-.5 1.7-.9-.6-1-.6-1-2.4.2m65 .1c0 .5.5.7 1 .4.6-.3 1-.8 1-1.1 0-.2-.4-.4-1-.4-.5 0-1 .5-1 1.1m77.6-.3c-.3.5.1.9.9.9s1.2-.4.9-.9c-.3-.4-.7-.8-.9-.8s-.6.4-.9.8m150.4.2c0 .5.5 1 1.1 1 .5 0 .7-.5.4-1-.3-.6-.8-1-1.1-1-.2 0-.4.4-.4 1m-175.4 1.3c.3 1 .9 1.5 1.2 1.2s0-1.1-.7-1.8c-1-.9-1.1-.8-.5.6m81.1.1q-.6 1.5.9.9c1.5-.6 1.9-2.3.5-2.3-.5 0-1.1.7-1.4 1.4m-66.7.6c-.9.6-1 1-.3 1 .6 0 1.5-.5 1.8-1 .8-1.2.4-1.2-1.5 0m11 1.4c0 .2.7.7 1.6 1 .8.3 1.2.2.9-.4-.6-1-2.5-1.4-2.5-.6m57 .6c-.9.6-1 1-.3 1 .6 0 1.5-.5 1.8-1 .8-1.2.4-1.2-1.5 0m3.3.9c-.1 1.1.6 2.6 1.5 3.3 1.5 1.1 1.5 1.1.4-.3-.7-.9-1-2.4-.6-3.3.3-.9.2-1.6-.3-1.6s-.9.9-1 1.9m2.2 7.1c-.3.5-.1 1 .4 1 .6 0 1.1-.5 1.1-1 0-.6-.2-1-.4-1-.3 0-.8.4-1.1 1m-172.2 3.5c0 .8.4 1.2.9.9s.6-1 .3-1.5c-.9-1.3-1.2-1.1-1.2.6m62.1.5c0 1.3.4 1.6 1 1 .7-.7.7-1.3 0-2-.6-.6-1-.3-1 1m-65.9 0c.3.5.8 1 1.1 1 .2 0 .4-.5.4-1 0-.6-.5-1-1.1-1-.5 0-.7.4-.4 1m229.2.7c.3.7.6 1.3.8 1.3.1 0 .7-.6 1.3-1.3.8-1 .6-1.3-.7-1.3-1.1 0-1.7.6-1.4 1.3m9.2-1.5c-.5 1.5-.4 5 .1 5.3.3.2.6-.9.6-2.6 0-2.4-.3-3.7-.7-2.7m2.7 1c.3.5 1 .6 1.5.3 1.3-.9 1.1-1.2-.6-1.2-.8 0-1.2.4-.9.9m4.1-.1c.7.9 1 1.9.6 2.2-.3.4-.1.7.5.7 1.7 0 1.5-1.6-.5-3.1-1.6-1.2-1.7-1.2-.6.2m-251.7.3c0 .2.8 1 1.8 1.7 1.5 1.3 1.6 1.2.3-.4s-2.1-2.1-2.1-1.3m222.5.6c-.4.6-1.1.7-1.7.4-.7-.4-.8-.2-.4.5.6.9 1.1.9 2.2 0 1.4-1.1 1.8-1.9 1-1.9-.3 0-.8.5-1.1 1m-74 1.1c-.3.4.2.6 1 .5 2.1-.3 2.8-1.3 1-1.3-.9 0-1.8.4-2 .8m77.8.6c0 .9.4 1 1.4.2.7-.6 1.3-1.2 1.3-1.4 0-.1-.6-.2-1.3-.2-.8 0-1.4.6-1.4 1.4m7.7-.8c0 .6.4 1.3 1 1.6s.7-.1.4-.9c-.7-1.8-1.4-2.1-1.4-.7m-163.7 1.8c.4.3.1 1.3-.6 2.2-1.1 1.4-1 1.4.5.2 1.6-1.2 1.6-3.1.1-3.1-.4 0-.3.3 0 .7m156.2 2.2c-.3.5-.2 1.2.3 1.5s.9-.1.9-.9c0-1.7-.3-1.9-1.2-.6m4 0c.3.3 1.7.6 3.1.7 1.3 0 2.2-.2 1.9-.5s-1.7-.6-3.1-.7c-1.3 0-2.2.2-1.9.5m-222 1.2c-.4.6-.5 1.2-.2 1.5.2.3.7-.2 1-1.1.7-1.7.1-2-.8-.4m206.1.7c-.2.4-.1 1.4.4 2.2.7 1.1.9.9.7-.8-.1-2.4-.3-2.6-1.1-1.4m27.9.1c-.3.5-.2 1.2.3 1.5s.9-.1.9-.9c0-1.7-.3-1.9-1.2-.6m-111.9 1.4c.3 1 .9 1.5 1.2 1.2s0-1.1-.7-1.8c-1-.9-1.1-.8-.5.6m95.4.6c0 .6.4 1.3 1 1.6s.7-.1.4-.9c-.7-1.8-1.4-2.1-1.4-.7m-141.4 1.4c.3 1 .9 1.5 1.2 1.2s0-1.1-.7-1.8c-1-.9-1.1-.8-.5.6m11.9-.4c-.3.5-.2 1.2.3 1.5s.9-.1.9-.9c0-1.7-.3-1.9-1.2-.6m39.1.6c-1.1.8-1.5 1.5-.9 1.5s1.6-.7 2.3-1.5c1.6-1.9 1.1-1.9-1.4 0m-153.1.4c-.3.5-.2 1.2.3 1.5s.9-.1.9-.9c0-1.7-.3-1.9-1.2-.6m90.1.8c-.6 1.4-.5 1.5.5.6.7-.7 1-1.5.7-1.8s-.9.2-1.2 1.2m68.4-.7c-.9.6-1 1-.3 1 .6 0 1.5-.5 1.8-1 .8-1.2.4-1.2-1.5 0m67-.5c0 .7 3 1.3 3.4.7.3-.4-.4-.9-1.5-.9-1-.1-1.9 0-1.9.2m8.6.3c-.3.5.1.9.9.9s1.2-.4.9-.9c-.3-.4-.7-.8-.9-.8s-.6.4-.9.8m-220.1 1.1c-.3.5-.2 1.2.3 1.5s.9-.1.9-.9c0-1.7-.3-1.9-1.2-.6m242 .1c-.4.6-1.1.7-1.7.4-.7-.4-.8-.2-.4.5.6.9 1.1.9 2.2 0 1.4-1.1 1.8-1.9 1-1.9-.3 0-.8.5-1.1 1m-253.4 1.4c-.8 1-.9 1.6-.1 2.1.6.4.9.1.8-.7-.2-.7.3-1.2 1-1 .8.1 1.1-.2.7-.8-.8-1.3-1-1.3-2.4.4m27.8.3c-1.2 1.6-1.2 1.7.2.6.9-.7 2-.9 2.4-.5.5.4.5.1.1-.6-.9-1.6-1.1-1.5-2.7.5m210.6-.7c-.3.6.1.7.9.4 1.8-.7 2.1-1.4.7-1.4-.6 0-1.3.4-1.6 1m6.5 0c0 .5.5 1 1 1 .6 0 1-.5 1-1 0-.6-.4-1-1-1-.5 0-1 .4-1 1"/><path d="M297.2 176.5c.5.8-.4 1.2-2.7 1.3-1.9.1-3.7-.3-4-.8-.3-.6-1.2-1-1.8-1-.7 0-.6.4.3 1.1 1.1.8.4.9-2.7.7-2.5-.2-4.3.1-4.3.7 0 .5-.4.4-.9-.4s-1.1-.9-1.5-.3c-.7 1.1-2.4 1.1-4.3-.1-.9-.6-1.1-.3-.6 1 .6 1.6.5 1.7-1.2.3-1.3-1-1.6-1.1-1.1-.2s.3 1.3-.5 1.1c-.8-.1-2.7.3-4.3 1-1.6.6-3.6.9-4.3.7-.8-.3-1.1-.2-.8.3.5.9-3.2 2.7-4.7 2.3-.5-.1-.8.3-.8.8s-.6 1-1.2 1c-.7 0-3.1 1.4-5.2 3s-4.3 2.7-4.7 2.4c-.5-.3-.9.2-.9 1.1s-.4 1.4-.9 1.1-1.2.1-1.5 1c-.4 1-1.2 1.4-2.2 1-1.4-.5-1.5-.4-.5.8 1 1.1.8 1.6-.6 2-1 .4-2.5 2.1-3.4 3.9-.9 1.7-2.3 3.1-3.1 3.1-1-.1-1.4.5-1.1 1.7.3 1.1 0 1.9-.6 1.9s-1 .3-.9.7c.1.5-.8 3-2 5.7s-2.2 5.4-2.2 6.2c0 .7-.4 1.5-1 1.9-.5.3-.7 1.2-.4 2 .4.9-.1 1.8-1.1 2.1-1.2.5-1.3.9-.4 1.4.9.6.8 1.2-.5 2.5-1.2 1.2-1.4 2.1-.6 3 1.3 1.6 1 7.5-.4 9.4-.8 1.1-.8 1.3.2.7 1.2-.7 1.4.5 1.5 7.4 0 1.4.5 2.8 1.1 3.2.7.5.6.8-.4.8-1.2 0-1.2.2-.2.9.8.5 1.5 2 1.5 3.5.1 1.4.6 2.6 1.1 2.6s.3.7-.4 1.6c-.8.8-.9 1.4-.4 1.2s1 .1 1.1.6.5 1.2 1 1.5c1.3 1 4.5 7.1 3.7 7.1-.4 0 0 .6 1.1 1.3 1.1.9 1.5 1.9 1 2.7s-.4 1.1.3.6c1.3-.8 4.4 3.3 3.5 4.7-.3.6-.2.8.3.4 1.4-.8 4.7 2 3.8 3.4-.4.7-.3 1 .3.6 1.4-.9 6.5 3.2 5.7 4.5-.4.7-.2.8.5.4.6-.4 2.3.1 3.9 1.1 1.5 1 3.9 2.5 5.4 3.2 1.5.8 2.5 1.8 2.2 2.2-.2.4.1 1.1.7 1.5.7.4.9.3.5-.4-.3-.6-.2-1.3.3-1.7.5-.3 1.3 0 1.8.7.4.7 1.3 1.3 1.8 1.4 3.5.2 9.5 1.8 9.5 2.4 0 .5.9.6 2 .3 1.6-.4 1.9-.2 1.4 1.1-.3.9-.1 1.6.5 1.6s1-.5.8-1.2c-.1-.8 1.5-1 5.3-.9 12.2.6 14 .6 14.4-.4.3-.6.5-.4.5.2.1.7.6 1.3 1.2 1.3.5 0 .7-.5.3-1.1-.5-.8.1-1 2-.7 1.4.3 2.9.1 3.2-.3.8-1.4 2.6-1 1.9.3-.4.7.1.4.9-.6.9-1.1 1.6-1.6 1.6-1.2 0 .5.6.3 1.4-.3.7-.6 2.5-1.2 4-1.3 1.4-.1 2.6-.6 2.6-1.1 0-.4.5-.5 1-.2.6.3 1 .1 1-.5 0-.7.7-1 1.5-.6.9.3 1.5 0 1.5-.8 0-1.6 2.7-2.9 4.2-1.9.6.3.8.1.5-.4-.8-1.3 6.2-6.9 8.3-6.6 1 .2 1 0 .3-.3-1.9-.8-1.6-2.7.3-2 .9.3 1.2.2.9-.5-.9-1.3 1.4-4.1 2.8-3.2.5.3.7.1.4-.4-.4-.6.4-2.7 1.8-4.7s2.5-4.1 2.5-4.5c0-.5 1-2.1 2.2-3.7 1.8-2.3 1.8-2.6.4-1.4-1.5 1.1-2 1.2-2.3.2-.3-.6-1.1-1.2-1.8-1.2-2.3 0-8.5-3.3-7.9-4.2.3-.4-.1-.5-.9-.2s-4-.9-7.3-2.6c-3.2-1.6-6.4-3-7.1-3s-1.3-.5-1.3-1.1c0-.5-.4-.8-.8-.5-.4.2-1.4.1-2.2-.4-1.1-.7-2 .2-3.6 3.3-1.2 2.4-2.8 4.1-3.7 4.1-.9-.1-1.3.4-1.1 1.1.6 1.5-4.4 5.7-5.7 4.9-.5-.3-.9-.1-.9.4 0 1.9-3.3 2.2-4.6.5-1.2-1.7-1.3-1.7-.8.2.4 1.6 0 2-2.6 2.2-1.8.1-3-.3-3-1 0-.9-.2-.9-.8.1-.5.7-1.9 1-3.3.8-1.3-.3-3-.5-3.7-.5-.7-.1-1.1-.5-.7-1 .3-.6-.3-.9-1.4-.8-1.1 0-3.5-.7-5.4-1.8-3.2-1.7-3.4-2-1.9-3.1 1.5-1.2 1.5-1.2-.4-.8-1.6.4-2.8-.3-4.7-2.8-1.4-1.8-2.7-4-2.9-4.8s-.7-1.9-1.3-2.3c-.6-.5 0-.7 1.3-.4 3 .7 2.8-.1-.3-1.3-1.9-.7-2.4-1.5-2.1-3.2.2-1.3-.1-2.9-.6-3.6-.7-.8-.6-1.7.3-2.9 1-1.1 1-1.4.2-.9-.7.4-1.3.3-1.3-.3 0-.5.6-1.2 1.3-1.4.9-.4.9-.6-.1-.6-1.3-.1-.7-4.8.9-6.5.4-.5.5-1.6.1-2.5-.5-1.4-.4-1.4 1.3-.1 1.7 1.4 1.7 1.4.7-.5-1.2-2.4.3-6 2-4.9.7.5.8.2.3-.5-.8-1.4 5.3-8.3 6.7-7.5.4.3.8.1.8-.5s1-1.5 2.1-2.2c1.7-.9 2-.8 1.4.3-.3.7 0 .5.8-.5.8-.9 1.7-1.7 2.1-1.7.8 0 .3 2.3-.7 3.1-1.2.9-1.8 5.1-.6 4.3.6-.3.8-.9.5-1.2s0-1.2.8-2.1 1.6-2.1 1.8-2.6c.2-.6.6-.9 1.1-.8.4.2.7-.1.7-.5 0-.5 2.4-.8 5.3-.8 3.9.1 5.1.4 4.9 1.5s0 1.2 1 .3c1.7-1.4 6.2.7 11.2 5.2 3.3 3.1 5.1 6.6 2.4 5-.7-.4-.8-.3-.4.4.4.6 1.3.9 2 .6.8-.3 1.6.5 2 2.1.6 2.2.9 2.4 2.6 1.5 1.1-.6 2-.7 2-.3s.4.3.8-.2c1.1-1.6 6.2-3.6 7.4-2.9.6.4.8.2.4-.4-.6-1 3-2.8 4.7-2.4.4.1.7-.3.7-.9s.7-.9 1.5-.5c.8.3 1.5 0 1.5-.7 0-.8.4-.6 1 .3.8 1.3 1 1.2 1-.3 0-1 1.1-2.2 2.5-2.7 1.4-.6 3.6-1.4 5-2l2.5-1-2.5-5c-1.4-2.8-2.3-5.6-1.9-6.2.4-.7.3-.8-.4-.4-1.2.7-5.9-5-5.4-6.6.1-.5-.2-.7-.7-.4-.5.4-1.7-.4-2.5-1.6-.9-1.2-1.6-1.9-1.6-1.5 0 .5-1.5-.6-3.2-2.2-1.8-1.7-3.9-3.1-4.5-3.1-.7 0-1.3-.4-1.3-.9s-1.5-1.4-3.2-2.1c-8-3.1-8.7-3.4-7.5-4.2.9-.6.9-.8 0-.8-.6 0-1.4.4-1.8.9-.3.6-2.1.4-4.5-.4-2.2-.8-4-1.1-4-.7s-.5 0-1-.8c-.8-1.2-1-1.2-1-.1 0 .9-.5.7-1.7-.6-1-1-1.5-1.4-1.1-.8M224 233c0 .5-.5 1-1.1 1-.5 0-.7-.5-.4-1 .3-.6.8-1 1.1-1 .2 0 .4.4.4 1"/><path d="M303.5 175.9c-.3.5-.2 1.2.3 1.5s.9-.1.9-.9c0-1.7-.3-1.9-1.2-.6m62 1c-.3.5-.2 1.2.3 1.5s.9-.1.9-.9c0-1.7-.3-1.9-1.2-.6m-320 1.1c.3.5.8 1 1.1 1 .2 0 .4-.5.4-1 0-.6-.5-1-1.1-1-.5 0-.7.4-.4 1"/><path d="M50.5 178.1c.5 1.3-.2 1.6-3.5 1.6-2.2 0-4-.5-4-1.1 0-.8-.2-.8-.8 0-.9 1.4-10.4 1.4-11.4-.1-.5-.7-.8-.7-.8 0s-4.7 1.1-12.6 1.3c-7 .1-12.8.3-13.1.5-.2.2-.5 7.6-.6 16.4l-.2 15.9h7.8c4.2-.1 7.7.2 7.7.6s1.1.3 2.4-.2c2-.7 2.6-.6 2.9.8.4 1.5.5 1.5.6 0 .1-1 .8-1.5 1.9-1.3 6.2 1.3 8.2 1.4 7.7.5-.3-.6.1-.7 1-.3 1.3.5 1.4.7.3 1.4-1 .7-1.1.9 0 .9.7 0 1 .5.7 1.1-.5.7-1.3.5-2.4-.5-2-1.9-3.1-2-3.1-.5 0 .5.5.7 1.2.3.7-.5.9-.2.6.8-.5 1.1 0 1.4 1.6 1.3 2.1-.3 2.3.1 2.2 5.1-.1 3.6-.6 5.8-1.6 6.5-1.3.9-1.2 1 .3.5 1.1-.3 1.7 0 1.7 1 0 .8-.4 1.2-1 .9-.5-.3-1-.2-1 .4 0 .5.6 1.1 1.3 1.4.9.3.9.9-.1 2.7-.9 1.4-.9 2-.2 1.5 1.5-.9 1.1 5.3-.4 7.4-.8 1.1-.8 1.3.1.8.9-.6 1.2.2 1.1 2.7-.1 1.9-.4 3.3-.8 3.1s-.7.2-.7 1 .4 1.2.9.9c1.6-1 .8 4.9-.9 6.2s-1.7 1.4 0 .8c1.9-.7 2.4 1.2.5 1.9q-1.5.6 0 .6c1.8.1 1.5 3.2-.5 4.7-1.5 1.1-1.5 1.3-.2.9 2.3-.8 2.4 5.4.1 7.2-1.5 1.1-1.5 1.2-.1.7 1.4-.4 1.6.3 1.6 4.5 0 3.4-.3 4.9-1.1 4.4-.6-.3-.5 0 .2.8s1.2 4.2 1.2 9.1v7.8l7.3.1c3.9.1 9 .1 11.1 0 2.3-.1 4.3.4 4.8 1.1.6 1 .8 1 .8 0 0-.8 2.1-1.2 6.9-1.2h7l-.4-3.7c-.2-2.1.2-4.4.8-5.2 1-1.2.9-1.3-.1-.7-.9.6-1.2.3-1-1 .2-1.1 1-2.2 1.8-2.6 1.3-.6 1.2-.7-.2-.7-1.6-.1-1.9-2.3-.5-3.7.3-.4.3-1.4-.2-2.3-1-1.9-.9-6.1.2-7.8.4-.6.4-1.4-.1-1.7-1-.6-.8-10.8.2-12.4.4-.7 1.2-.9 1.8-.6.7.4.8.2.4-.5-.5-.8-1.2-.9-2-.2-.9.7-1.1-2.5-1.1-13.7 0-8.1.5-15.3.9-16.1.7-1.1.6-1.2-.5-.6-1.1.7-1.1.5.1-1 .8-1 1-1.6.4-1.3-.7.5-1-1.8-1-6.7.1-4 .4-7.1.8-6.9s.9 0 1.3-.6 1.1-.7 1.8-.3c.6.3 3.6.5 6.6.3 3.1-.1 9.7-.3 14.7-.3 6.6-.1 9.1-.4 9.1-1.4 0-.6-.4-1-.9-.7-.4.3-.8-.2-.8-1.1 0-1 .5-1.4 1.3-.9 1 .6 1 .4 0-.7-1.5-1.6-1.8-6.3-.3-5.4.6.3 1 .1 1-.4 0-.6-.5-1.1-1.1-1.1-.8 0-.8-.5.1-1.5 1-1.2 1-1.8 0-3-.9-1-.9-1.5-.1-1.5.6 0 1.1-.5 1.1-1.1 0-.5-.4-.8-.8-.5-.5.3-.9-2.5-1-6.1s-.4-6.8-.7-7.1-2.2-.6-4.3-.6c-2.5-.1-3.6-.5-3.4-1.4.1-.8-.2-1.1-.8-.7-.6.3-.8 1-.5 1.4.6 1.1-21.7.8-23.4-.3-.9-.6-1.2-.5-.8.1s-1.1 1-3.9.9c-3.5 0-4.3-.3-3.9-1.6.4-1.1.2-1.1-.8.2-1.1 1.4-1.6 1.5-2.7.5-1-.9-1.1-.9-.6 0 1.1 1.9-.5 1.6-2-.5-1.1-1.3-1.3-1.4-.9-.1.7 1.9-2.2 2.2-4.4.5-1.1-.8-1.3-.8-.7.1 1.1 1.9-.5 1.5-2-.5-1.1-1.4-1.3-1.4-.9-.1"/><path d="M86.5 178c-.3.6.1.7.9.4 1.8-.7 2.1-1.4.7-1.4-.6 0-1.3.4-1.6 1m68 0c-.3.6.1.7.9.4 1.8-.7 2.1-1.4.7-1.4-.6 0-1.3.4-1.6 1m10 0c-.3.6.1.7.9.4 1.8-.7 2.1-1.4.7-1.4-.6 0-1.3.4-1.6 1m97 0c.3.5.8 1 1.1 1 .2 0 .4-.5.4-1 0-.6-.5-1-1.1-1-.5 0-.7.4-.4 1m116.4-.3c-.1.5-.1 1-.1 1.4 0 .3-4.2.6-9.5.7s-9.8.3-10 .6c-.2.2-.5 6-.5 12.9-.1 11-.3 12.5-1.7 12-1.4-.4-1.4-.3-.1.6 2.2 1.5 2.3 19.1.2 20.7-1.2.9-1.2 1.3-.2 1.9q1.35.75.6-.3c-.4-.7-.3-1.2.2-1.2s.9 6.5.9 14.7c0 11.8-.3 15.2-1.5 16.5-1.4 1.6-1.3 2 .1 3.6 1.9 2.1 2.1 10.5.3 9.5-.6-.3-.5 0 .2.8.6.7 1.2 2.7 1.2 4.5s-.6 3.5-1.2 3.7q-1.5.6 0 .6c.6.1 1.2.9 1.2 1.9s-.6 2.4-1.2 3.1c-1 1.1-1 1.3 0 .7.6-.4 1.2-.3 1.2.3 0 .5-.6 1.2-1.2 1.4q-1.5.6 0 .6c.8.1 1.2 2.2 1.2 7.1v7h8.6c6.5 0 8.4.3 7.8 1.2-.6 1-.4 1 .7 0 1.9-1.8 2.8-1.5 2.4.9-.3 1.2-.1 1.8.3 1.5.4-.4.7-1.3.7-1.9 0-.8 3-1.4 8.7-1.7 4.7-.3 9-.8 9.4-1.3.4-.4.2-.7-.4-.7-1.3 0-1.1-7.8.2-9.9.6-.9.5-1.2-.1-.8-.5.3-1 0-1-.8s.5-1.1 1-.8c.6.4.7.1.1-.8-1.1-1.8-1.3-6-.3-5.3.4.2 1.1-.1 1.5-.7.4-.7.3-.9-.4-.5-.6.3-1.4.1-1.8-.5-.3-.6 0-1.5.7-2 1.1-.7 1.1-.9.1-.9s-1-.5-.1-2.1c.8-1.5.8-1.9 0-1.5-.6.4-1.1.2-1.1-.3 0-.6.5-1.1 1.1-1.1.8 0 .7-.6-.2-1.7-1-1.1-1-1.4-.1-.9.6.4 1.2.2 1.2-.3 0-.6-.4-1.1-.9-1.1-1.2 0-.9-3.3.4-4.3.6-.4.4-1.1-.5-1.7-1-.6-1.1-1-.2-1 .6 0 1.2-.8 1.2-1.8 0-1.3.2-1.4.9-.3.5.8 1.1.9 1.5.3.3-.5-.1-1.2-.9-1.6-.8-.3-1.9.3-2.4 1.2-.9 1.5-1 1.4-.8-.6.1-1.2.4-2.2.7-2.3.3 0 1.3-.2 2.3-.4.9-.2 1.5.1 1.1.6-.3.5 0 .9.5.9.6 0 1.1-.4 1.1-.8s1.1-.9 2.5-1 2.5.3 2.5.8-.6.7-1.3.4c-.8-.3-2 .3-2.8 1.3-1.3 1.6-1.2 1.7.3.5.9-.8 2.2-1.1 2.8-.7.5.3 1.3 0 1.6-.8.3-1 2.2-1.4 6.6-1.3 5.1.1 6.2.4 6.4 1.9.1 1.1.5 2.2.9 2.5.3.4.4-.5.2-1.9-.5-2.3-.2-2.5 2.9-2.6 1.9-.1 3.4.3 3.4.8v1.6c0 .5-.4.8-1 .8-.5 0-1.5.6-2.2 1.4-1.1 1.2-1 1.2.2.5.8-.5 1.7-.9 2-.9s1.6-.9 3-1.9c1.4-1.1 1.8-1.6.8-1.3-1 .4-1.8.2-1.8-.3s1.1-.9 2.5-.8c1.6.2 2.4.7 2.1 1.5-.3.7.1 1 .9.6.8-.3 1.3-.8 1.1-1.2-.3-.4.5-.7 1.7-.7 2 0 2.2.5 2.3 5 .1 2.8-.4 5.4-1 5.8-.7.5-.8.8 0 .8.5 0 1 1.8 1.1 4 0 2.2-.3 3.8-.7 3.5-.5-.3-1.2 0-1.6.6-.4.8-.3.9.5.5 1.7-1.1 2.5 2.2 1 4.1-1 1.2-1 1.5-.1.9.9-.5 1.2.7 1.2 5.1 0 3.3-.5 6.5-1.2 7.2-1 1.1-1 1.3 0 .7.9-.5 1.2.5 1.2 3.8v4.6h8.1c6.1 0 7.9.3 7.3 1.2-.6 1-.4 1 .7 0 1.7-1.6 3.2-1.6 2.3 0-.6 1-.3.9.9 0 .9-.8 2.6-1.3 3.9-1.2s5 .2 8.4.1l6-.1-.1-7.6c-.1-5.8.3-7.8 1.5-8.5 1.3-.9 1.2-1-.2-.5-1 .3-1.8.1-1.8-.4 0-.6.6-1 1.3-1s.8-.3.2-.8c-1.2-.9-1.3-7.2-.1-9.1.6-.9.5-1.2 0-.8-1.2.7-1.1-13.3.1-15.2.5-.9.4-1.2-.2-.8-1.3.8-1.1-6.6.2-7.5.7-.5.6-.8-.1-.8-.6 0-1-2.4-1-5.9 0-3.3.5-5.7 1-5.4.5.4.6.1.1-.7-1.3-2.1-1.4-15.4-.2-16.9.9-1.2.9-1.3 0-.7-.7.4-1.3.2-1.3-.3 0-.6.6-1.1 1.3-1.1.8 0 .9-.2.1-.8-1.4-.9-1.3-10.4.1-11.4.6-.5.6-.8-.1-.8s-1.1-2-.9-5.8c.1-3.1.7-5.6 1.2-5.5s1-.5 1-1.2c0-1-.4-1.2-1.3-.5-.9.8-1.1-.5-1-6 .2-3.8 0-7-.3-7.1-.3 0-2.8-.1-5.6-.2-2.7-.1-5.6-.6-6.4-1.1-.9-.6-1.2-.5-.7.2.4.7-1.9 1-7.1 1-4.3 0-10 .1-12.8.1l-5 .1.3 9.1c.3 6.8 0 9.4-1 10-1 .7-1 .9 0 .9.8 0 1.2 1.9 1.2 6.1 0 3.7-.4 5.8-1 5.4-.5-.3-1-.1-1 .4 0 .6.5 1.1 1 1.1.6 0 1 .5 1 1 0 .6-.7 1-1.6.8-1-.2-1.9.3-2.2 1.1-.3.9.1 1.1 1.4.7 1.6-.5 1.9 0 2 2.7.1 3-.1 3.3-3 3.4-1.7 0-3.5.2-4.1.3-2.8.6-5.6-.1-5-1.3.4-.6-.1-.3-1 .8-1.7 2-1.7 1.9-1.1-.8.4-1.6.2-2.7-.4-2.7-.5 0-.9.3-.9.7.5 3.1-.3 3.8-4.1 3.8-2.2 0-4-.3-4-.8 0-.4.5-.7 1.2-.7.6 0 .8-.3.4-.7-.4-.5-1.3-.1-1.9.7-1.4 1.8-3.7 2.4-3.7 1 0-.5.5-1 1-1 .6 0 1-.6 1-1.3-.1-.6-1-.1-2 1.2-1.1 1.3-2 1.9-2 1.5 0-.5-2-.8-4.5-.6-6.8.6-9.2-.3-9.1-3.2.1-1.4.5-2.8.9-3.2 1-1 .9-2.6-.1-2-.5.3-.9-.1-.9-1q0-1.5 2.1-.9c2.1.6 2.1.6.1-.7-1.9-1.2-3.2-6.4-1.4-5.2.5.3.9.1.9-.5 0-.5-.6-1.2-1.2-1.4-1-.4-.9-.8.2-1.6.8-.6 1-1.1.5-1.1-.6 0-1.1-.9-1.1-2 0-1.5.5-1.9 2.1-1.5 1.7.4 1.6.3-.3-.7-2.2-1.1-2.5-3.3-.5-3.3.6 0 1.5-.3 1.9-.7.3-.4-.2-.6-1.3-.4-1.6.4-2-.1-2-2 0-1.5.4-2.1 1.1-1.7.8.5.8.3.1-.8-.6-.8-1.2-2.7-1.4-4.3-.2-2.1.1-2.6 1.1-2s1.1.5.1-.8c-.7-.8-1.1-1.7-.9-1.9.3-.2-3.5-.4-8.2-.4-6.4 0-8.6-.3-8.4-1.3.1-.6 0-1.2-.3-1.2s-.6.3-.6.7M358 260.2c0 1.6-.3 1.9-1.1 1.1-.6-.6-.8-1.6-.5-2.2 1.1-1.7 1.6-1.3 1.6 1.1"/><path d="M457.5 178c-.3.5-.1 1 .4 1 .6 0 1.1-.5 1.1-1 0-.6-.2-1-.4-1-.3 0-.8.4-1.1 1m-264.2.8c-.6.4-17.5.7-37.5.7h-36.3l.2 7.2c.1 4.3-.2 7.3-.8 7.3s-.7-.5-.3-1.2q.75-1.05-.6-.3c-1.1.7-1 1 .1 1.9 2 1.5 2.2 10.3.2 11-.8.3-1.1 1-.8 1.6.8 1.3-.1 1.3-2.4.1-1.3-.7-1.8-.6-1.8.4 0 .8.7 1.1 1.6.7 1.4-.5 1.4-.4.1 1.3-1.5 1.8-1.4 1.8 1.2.1 1.5-1 2.5-2.2 2.2-2.7s-.1-.9.3-.9c1.4 0 1.3 28.3-.1 29.9-.8 1.2-.8 1.3.2.7.8-.5 1.2 0 1.2 1.6 0 1.8-.2 2-1 .8-.6-.9-1-1-1-.3 0 .6.5 1.5 1.1 1.9.8.4.7.9-.2 1.5-1 .6-1.1.9-.1.9.6 0 1.2.7 1.2 1.6s-.5 1.2-1.2.8c-.7-.5-.8-.3-.2.7.5.8 1 5.6 1.1 10.7.2 7-.1 9.1-1 8.5-.9-.5-.9-.3-.1.8.6.8 1.1 6.3 1.2 12.6.1 10.2 0 11.2-1.6 10.7-1.4-.5-1.5-.4-.2.5 1.6 1.1 1.7 1.4 1.9 8.3l.1 4.8h5.5c3.7 0 5.5.4 5.5 1.2 0 .9.4.8 1-.2.9-1.3 1.1-1.3 2 0 .6 1 1 1.1 1 .2 0-.6.7-1.2 1.6-1.2s1.2.5.8 1.2c-.6 1-.4 1 .7 0 .7-.6 1.7-1.2 2.2-1.2.4 0 .5.6.1 1.2-.6 1-.4 1 .7 0 .7-.6 1.9-1.2 2.7-1.2 1.2 0 1.2.3.2 1.5-.9 1.1-1 1.9-.3 2.6.8.8 1.1.6 1-.7-.1-1.1.4-1.8 1.1-1.6.8.1 1.1-.2.7-.8-.3-.5 0-1 .9-1 .8 0 1.7.6 1.9 1.2q.6 1.5.6 0c.1-.6.8-1.2 1.6-1.2s1.5.6 1.5 1.2c0 1 .2 1 .8.1 1-1.6 5.3-1.3 7.7.6 1.8 1.5 1.9 1.5.7 0-1-1.4-.7-1.6 2.8-1.6 2.6 0 3.7.4 3.3 1.1-.4.6.1.5 1.1-.3 1.5-1.3 1.9-1.3 2.7 0 .6 1 .9 1 .9.1 0-.6.7-1.2 1.5-1.2s1.5.6 1.5 1.2c0 .9.3.9.8.3.8-1.3 5.5-1.8 4.7-.5-.3.5-.1 1.2.5 1.5.6.4.9.1.8-.6-.2-.7.9-1.4 2.5-1.5 1.5-.2 2.5.1 2.2.6s-.1 1.2.5 1.5c.6.4.9.1.8-.6-.2-.8.7-1.4 2-1.5 1.2-.1 2.2.3 2.2.7 0 .5.5.9 1.1.9.5 0 .8-.4.5-.8-.2-.4 3.7-.9 8.7-1 5.1-.1 9.4-.7 9.7-1.3.4-.6.6-2.1.4-3.5-.1-1.3.2-2.6.7-2.9s.3-1.4-.3-2.5c-.9-1.4-.9-2.2.3-3.6.8-1 .9-1.5.3-1.1-1.3.7-1.4-9.6-.2-10.9.4-.4.4-1.2-.1-1.8-.9-1.1-1.1-1.7-1.1-3.4 0-.4-3.9-.6-8.6-.4-7 .3-8.5.1-7.9-1 .6-1 .5-1.1-.6-.1-.7.7-2.3 1.3-3.6 1.3s-2.3-.6-2.3-1.3c0-.8-.3-.9-.8-.1-.8 1.2-17.3 1.4-16.6.2.3-.4 0-.8-.5-.8-.6 0-1.1.4-1.1.8 0 1.4-12.9.9-13.5-.6-.2-.6-.1-1.2.3-1.2s.8-.9.9-2c.1-1.3-.2-1.8-.9-1.4s-.8.2-.4-.4c.7-1.2 3.6-.5 3.6.9 0 .5-.6.9-1.2.9-.9 0-.8.4.2 1 1.1.7 1.1 1 .2 1-.7 0-1 .5-.6 1.1.3.6.9.7 1.3.3 1-1.4 3.1-1.5 3.1-.1 0 .8.3.8.9-.2.5-.8.8-2.5.6-3.8-.1-1.4.4-2.7 1.2-3 1.1-.5 1.1-.9-.3-2.4-.9-1.1-1.2-1.9-.6-1.9s1.8 1 2.6 2.2c.9 1.2 1.8 1.9 2.1 1.7.2-.3-.4-1.5-1.5-2.6-1-1.2-1.7-2.2-1.5-2.4s-.8-.5-2.2-.6c-1.6 0-2.1.2-1.4.7.9.5.8.9-.4 1.4-2.4.9-3.2.7-1.6-.3.7-.5.9-1.1.5-1.4-.5-.3-1.5.1-2.2.9-1 1.1-1 1.4 0 1.4.9 0 .9.3-.2 1s-1.1 1-.2 1c.7 0 1.1.4.7 1-.3.5-1.3.6-2.1.3-1-.4-1.2-.9-.5-1.6s.7-1.6-.1-3c-.9-1.7-.8-1.9.6-1.4.9.4 1.6.3 1.6-.2 0-.4 3.8-.8 8.5-.7 4.7 0 8.5.3 8.5.6 0 1.5-1.4 1.9-2.7.9-.8-.7-1.3-.8-1.3-.1 0 1.4 2.8 2.3 3.5 1.1.4-.5 1.1-.7 1.6-.3.5.3.6 1 .3 1.6-.4.7-.2.8.5.4.6-.4.8-1.2.5-1.8-.5-.7-.1-.9.9-.5.9.3 1.9.1 2.3-.5.4-.7.3-.8-.4-.4s-1.2.3-1.2-.2 3-.9 6.8-.9c4.8.1 7.1.5 8 1.6 1.1 1.4 1.1 1.4.6-.1s.3-1.6 6.6-1.4c7.6.2 8.3 0 9.3-2.6.4-1 1.5-1.5 3.1-1.4 1.4.2 2.3-.1 2-.5-.3-.5-1.6-.7-2.8-.5-2.3.4-2.3.2-2.3-7.2 0-4.4.5-8 1.1-8.4.8-.6.8-.8 0-.8-1.4 0-1.6-7-.3-8.6.6-.7-1-1.1-5.3-1.3-7.6-.3-8.1-.4-9-1.6-.5-.6-.8-.5-.8.2s-.7 1.3-1.5 1.3-1.5-.5-1.5-1c0-.6-.5-1-1.1-1-.5 0-.8.4-.5.9s-.5.8-1.8.8c-1.4 0-2.9-.8-3.5-2.1-1.1-2.1-1.1-2.1-.5.1.3 1.3.1 2.3-.4 2.3-1.6 0-2.3-3-1.2-5.1.9-1.5.7-2.1-.5-2.5-.9-.4-1.9-.4-2.2 0-.4.3.1.6 1 .6 1 0 1.4.5 1.1 1.5-.4.8-1.3 1.5-2.2 1.5-1.3 0-1.2.3.4 1.4 1 .8 1.5 1.8 1.1 2.2-.4.5-1.2.2-1.7-.6-.6-.8-1-1-1-.4s-2.5 1.1-6 1.1c-3.3 0-6-.3-6-.8 0-1.4 4.2-3.8 5.6-3.2.8.3 1.4 0 1.4-.7 0-.6-.4-.8-1-.5-.5.3-1 .1-1-.4 0-.6-.5-1.1-1.1-1.1-.5 0-.7.4-.4 1 .3.5.2 1-.4 1-1.5 0-3.2-3.6-2.5-5.4.9-2.3 2.6-1.9 1.9.4-.4 1.2-.2 2 .5 2 .6 0 .9-.4.6-.9s.1-1.4.9-2.1c1.3-1 1.9-.9 3.6.6 1.7 1.6 1.9 1.6 1.3.1-.3-.9-1-1.7-1.5-1.7s-.9-.4-.9-.8 2-.8 4.5-.9 4.5.2 4.5.7c0 2 3.5 2.8 5.5 1.3 1.6-1.3 1.7-1.5.3-1-1 .4-1.8.3-1.8-.2s2.5-.9 5.5-.9q5.55 0 4.8 1.2c-.3.6 0 .6.8-.2.7-.6 3.8-1.2 6.9-1.2 3.8 0 5.7-.4 5.7-1.3 0-.6.4-2.1.8-3.2.5-1.6.5-1.7-.4-.5s-1.1 1-1.1-1.3c0-1.6.4-2.6 1-2.2.6.3 1 .1 1-.4 0-.6-.5-1.1-1.2-1.1-.9 0-.9-.3 0-1.2.7-.7 1.2-1.7 1.2-2.3 0-.5-.5-.3-1 .5-.8 1.2-1 1-1-1.1 0-1.4.6-3.1 1.2-3.7 1-1 1-1.5.1-2-.7-.4-1.2-2.8-1.2-5.2.1-2.5.1-5 0-5.5-.1-.6-3.9-.9-9.6-.8-5.9.1-9.3-.1-9-.7.7-1.2.4-1.2-1.2-.2m-17.9 33.4c-.3.5-1.4.6-2.4.3-3-.9-4.6 3-2.5 6.1.8 1.3 1.2 2.4.7 2.4s-1.4 1-2.1 2.2c-.6 1.3-.9 1.5-.7.6.3-1 .1-2-.5-2.3-.5-.4-.7-1.1-.3-1.6 1.1-1.8 1.2-5.9.1-5.2-.6.4-.8 0-.5-.9.4-.8.1-1.5-.6-1.5-1.3 0-1.6 4.1-.3 5.3 1.3 1.3.8 2.7-.6 1.5-.8-.6-1.7-.8-2.1-.4-.5.5-.3-2.4.3-4.5.3-.8 0-1.2-.6-1-.5.2-.7.6-.5 1 .1.5-.3.8-.9.8s-.8.7-.5 1.6c.3.8.2 1.3-.3.9-.5-.3-.8.3-.6 1.2.1 1 0 2.2-.4 2.8-.3.5-.6 1.3-.6 1.7 0 .5-.4.8-1 .8-1.3 0-1.4-2.1-.2-3.8.5-.6.6-1.2.2-1.2s-.2-.7.5-1.5c1.1-1.3 1-1.4-.4-.9-1.8.7-2.2-1.1-.6-2.1.7-.5.8-1.1.1-1.9s1.4-1.1 8.4-1.2c5.2 0 9.2.3 8.9.8m13.9.2q.6 1.5-.9.9c-1.5-.6-1.9-2.3-.5-2.3.5 0 1.1.7 1.4 1.4m-21.9 4.2c.3.8.2 1.2-.4.9s-1-1-1-1.6c0-1.4.7-1.1 1.4.7m-4.8 4c-.3.8-.2 1.2.3.9s1.2-.1 1.6.5c.3.5.1 1-.5 1s-.9.4-.6.8c.3.5-.1.9-.8.9s-1.2-1.2-1.2-2.9c0-1.5.4-2.8.9-2.8s.6.7.3 1.6m4.5 2.2c-.6.2-.9.8-.5 1.3.3.5 0 .9-.6.9-.7 0-1-.7-.7-1.5.4-.8.2-1.7-.3-2-.6-.4-1-1.1-1-1.7s.9-.3 2.1.8c1.1 1 1.6 2 1 2.2m12.9 33.6c0 .3-.4.8-1 1.1-.5.3-1 .1-1-.4 0-.6.5-1.1 1-1.1.6 0 1 .2 1 .4m-14.5 5.7c0 .8-.5 1.4-1.2 1.4-1.8 0-2.6 1.2-1.2 2.1.8.5 1 .3.4-.6-.5-.8-.4-1.1.3-.6 1.6 1 1 4.4-.7 4.1-1.8-.2-2.3-6.6-.7-7.7 1.5-1.1 3.1-.4 3.1 1.3"/><path d="M159.3 212.7c.4.3.2 1.2-.5 2-.8 1.1-.7 1.2.6.7 1.8-.7 2.2-3.4.4-3.4-.6 0-.8.3-.5.7m106.2-33.6c-.4.6-.5 1.2-.2 1.5.2.3.7-.2 1-1.1.7-1.7.1-2-.8-.4m48.5.4c0 .2.6.8 1.3 1.4 1 .8 1.4.7 1.4-.2 0-.8-.6-1.4-1.4-1.4-.7 0-1.3.1-1.3.2m-204.5 1.4c-.3.5-.2 1.2.3 1.5s.9-.1.9-.9c0-1.7-.3-1.9-1.2-.6m148 1.1c-.3.5-.1 1 .4 1 .6 0 1.1-.5 1.1-1 0-.6-.2-1-.4-1-.3 0-.8.4-1.1 1m63.5-.1c0 .6.4 1.3 1 1.6s.7-.1.4-.9c-.7-1.8-1.4-2.1-1.4-.7m-203 5.2c0 .6-.7.9-1.5.5-.8-.3-1.5-.1-1.5.4 0 .6.7 1 1.6 1s1.2.5.8 1.2-.3 1 .1.5c1-.8 1.8-4.7 1-4.7-.3 0-.5.5-.5 1.1m215 3c0 .5.5.7 1 .4.6-.3 1-.8 1-1.1 0-.2-.4-.4-1-.4-.5 0-1 .5-1 1.1m-223.9.4c0 .5.3 1.5.7 2.2.5.9 1.2.6 2.1-1 1.3-2 1.3-2.1-.1-.9-1.3 1-1.7 1-2.1 0-.3-.7-.6-.9-.6-.3m4.4 1.6c-.4.6-.5 1.2-.2 1.5.2.3.7-.2 1-1.1.7-1.7.1-2-.8-.4m242-.1c.3.5.8 1 1.1 1 .2 0 .4-.5.4-1 0-.6-.5-1-1.1-1-.5 0-.7.4-.4 1M115 193.9c0 .6.4 1.3 1 1.6s.7-.1.4-.9c-.7-1.8-1.4-2.1-1.4-.7m238.6-.1c-.3.5.1.9.9.9s1.2-.4.9-.9c-.3-.4-.7-.8-.9-.8s-.6.4-.9.8m-118.6.6c0 .2.8 1 1.8 1.7 1.5 1.3 1.6 1.2.3-.4s-2.1-2.1-2.1-1.3M1.6 196.7c-.6 1.4-.5 1.5.5.6.7-.7 1-1.5.7-1.8s-.9.2-1.2 1.2m108.5-.1c0 1.1.3 1.4.6.6.3-.7.2-1.6-.1-1.9-.3-.4-.6.2-.5 1.3m5.9 1.4c1.8 1.2 3 1.3 3 .2 0-.4-1-.9-2.2-.9-1.8-.2-2 0-.8.7m223.3.5c0 .8.4 1.2.9.9s.6-1 .3-1.5c-.9-1.3-1.2-1.1-1.2.6m16-.8c.4.3.1 1.3-.6 2.2-1.1 1.4-1 1.4.6.2 2-1.5 2.2-3.1.5-3.1-.6 0-.8.3-.5.7m-242.2 1.9c0 1.1.3 1.4.6.6.3-.7.2-1.6-.1-1.9-.3-.4-.6.2-.5 1.3m-2.6.5c-.4.6-.5 1.2-.2 1.5.2.3.7-.2 1-1.1.7-1.7.1-2-.8-.4m4.5 1.7c0 .6.9 1.2 2 1.5s2 .3 2 .1-.9-.8-2-1.4-2-.7-2-.2m320.9.9c-1.3 1.6-1.2 1.7.4.4s2.1-2.1 1.3-2.1c-.2 0-1 .8-1.7 1.7m-322.9.2c0 .8-.7 1.1-1.7.6-1.5-.5-1.6-.4-.5.6.9 1 1.5 1 2.4.1.6-.6.9-1.5.5-1.9-.4-.3-.7-.1-.7.6m324.2 5.1c0 1.4.2 1.9.5 1.2.2-.6.2-1.8 0-2.5-.3-.6-.5-.1-.5 1.3m-89.7 0c-.3.5-.1 1 .4 1 .6 0 1.1-.5 1.1-1 0-.6-.2-1-.4-1-.3 0-.8.4-1.1 1m4.4 1.1-2.4 2 2.8-1.7c1.5-.9 2.7-1.8 2.7-2 0-.8-.8-.4-3.1 1.7m47.7-.6c-.3.9-1.1 1.3-1.7.9-.8-.5-.9-.3-.4.5.6 1 1.1.9 2.3-.3.9-.8 1.3-1.8 1-2.1s-.8.1-1.2 1m-172 1.8c.3 1 .9 1.5 1.2 1.2s0-1.1-.7-1.8c-1-.9-1.1-.8-.5.6m-117 1.9c.3.5 1 .6 1.5.3 1.3-.9 1.1-1.2-.6-1.2-.8 0-1.2.4-.9.9m244.7.3c0 .8.4 1.5.9 1.5.4 0 .8-.7.8-1.5s-.4-1.5-.8-1.5c-.5 0-.9.7-.9 1.5m-174.7.9c.3.8 1.3 1.7 2.2 2.1 1.3.5 1.3.2-.3-1.5-2.1-2.4-2.6-2.5-1.9-.6m2.9-.4c.3.5.8 1 1.1 1 .2 0 .4-.5.4-1 0-.6-.5-1-1.1-1-.5 0-.7.4-.4 1m108.3-.3c.7.3 1.6.2 1.9-.1.4-.3-.2-.6-1.3-.5-1.1 0-1.4.3-.6.6m-215.5 1.8c-.7.8-.9 1.6-.4 1.9s1.2-.1 1.5-1c.8-2.2.4-2.5-1.1-.9m117.6-.8c-.1.5-.1 1.2 0 1.7s-.5.6-1.4.2q-1.65-.6-.9.6c.5.8.1.9-1.2.4-1-.4-1.5-.4-1.1 0s.2 1.2-.3 1.9c-.6.8-.5 1.8.5 3.1 1.4 1.8 1.5 1.8 1.1-.7-.3-2.1.1-2.9 2-3.8 1.5-.7 2.2-1.6 1.8-2.3-.5-.8-.2-.9.9-.5 1 .3 1.7.2 1.7-.3 0-1.2-2.9-1.4-3.1-.3m23.6.3c-.3.5-.1 1 .4 1 .6 0 1.1-.5 1.1-1 0-.6-.2-1-.4-1-.3 0-.8.4-1.1 1m68.2-.3c-.9.8 1.2 3.3 2.7 3.3.6 0 .3-.5-.7-1.1-.9-.6-1.5-1.4-1.2-2 .7-1 .2-1.2-.8-.2m2.9.1c-.3.5.1.9.9.9s1.2-.4.9-.9c-.3-.4-.7-.8-.9-.8s-.6.4-.9.8m116.1.3c.7.7 1.5 1 1.8.7s-.2-.9-1.2-1.2c-1.4-.6-1.5-.5-.6.5m-382.6 1.5c0 1.1.3 1.4.6.6.3-.7.2-1.6-.1-1.9-.3-.4-.6.2-.5 1.3m6-.8c-.1.8-.6 1-1.3.6-1-.5-1-.4-.1.6 1.5 1.6 2.8.8 2-1.2q-.6-1.65-.6 0m50.9 1.4c-1 2-.9 2.1.2.6 1.3-1.5 1.5-1.5 2.6 0 1 1.4 1.1 1.3.2-.6-.6-1.2-1.3-2.2-1.5-2.2s-.9 1-1.5 2.2m5.8-1c-.7 1.7 1.5 1.9 2.9.3.4-.4.3-.5-.4-.2-.6.4-1.3.2-1.5-.5-.3-.8-.6-.6-1 .4m334.1.5c-1.3 1.6-1.2 1.7.4.4s2.1-2.1 1.3-2.1c-.2 0-1 .8-1.7 1.7m-303.5.9c.1.8.4 1.5.7 1.6.2.2.3.1.2-.1-.2-.2.2-.9.7-1.6.7-.8.5-1.2-.4-1.2-.8 0-1.3.6-1.2 1.3m59.6-.5c0 .5.4.8.9.5.5-.4 1.1-.1 1.3.6.2.6 1.5 1.3 2.9 1.5 1.8.2 2 .1.9-.6-.8-.5-1.7-.8-2.1-.5-.4.2-.9-.3-1.3-1.1-.6-1.7-2.6-2-2.6-.4m10-.7c0 .2.7.7 1.6 1 .8.3 1.2.2.9-.4-.6-1-2.5-1.4-2.5-.6m18.7.3c-.2.5-.3 1.7-.1 2.8.1 1-.1 2.4-.6 3q-.9 1.2.3 1.2c.9 0 1.3-1.4 1.3-3.9 0-3.9-.2-4.4-.9-3.1m97.6.8c0 .7.6 1.1 1.4.8.7-.3 1.3-.6 1.3-.8s-.6-.5-1.3-.8c-.8-.3-1.4.1-1.4.8m100.2-.5c.3.5.8 1 1.1 1 .2 0 .4-.5.4-1 0-.6-.5-1-1.1-1-.5 0-.7.4-.4 1m-205.6.2c-.7 2.1-.8 5.8-.2 5.8.5 0 .8-1.4.8-3 .1-2.5-.2-3.8-.6-2.8m203.3 1.2c.7.8 1.5 1.2 1.7 1.1.5-.6-1-2.5-2-2.5-.5 0-.4.6.3 1.4m-375.6.4c-.3.4.4.9 1.5.9 2.3.2 2.5-.3.4-1-.8-.4-1.6-.3-1.9.1m5.9.1c-.6 1.1 1.3 2.6 2.2 1.7.4-.3.1-.6-.6-.6s-.9-.5-.6-1c.3-.6.4-1 .1-1s-.7.4-1.1.9m246 .1c-1.6.7-1.7.9-.3.9.9.1 2-.4 2.3-.9.7-1.1.7-1.1-2 0m121.2.5c.3.8.9 1.2 1.4.9 1.2-.7 1.1-1.1-.5-1.7-1-.4-1.3-.1-.9.8m36-.9c.7.3.9 1.2.6 2-.5 1.3-.7 1.3-1.4.2-.6-.9-.9-.9-.9-.1 0 2.1 1.9 2.4 2.9.5 1.1-2 .5-3.3-1.3-3.1-.7 0-.6.2.1.5m-357.4 1.9c0 .8.4 1.2.8.9.4-.2.9.1 1.1.8.3.7.7.5 1.1-.6.4-1 .3-1.5-.3-1.1-.6.3-1 .1-1-.4 0-.6-.4-1.1-.8-1.1-.5 0-.9.7-.9 1.5m195.1.7-1.9 2.3 2.3-1.9c2.1-1.8 2.7-2.6 1.9-2.6-.2 0-1.2 1-2.3 2.2m131.2-.6c-.3.8-.9 1.3-1.4 1-.4-.2-1.4-.1-2.1.4-.9.5-.3.7 1.6.7 2-.1 2.9-.7 3-1.9.2-2.2-.3-2.3-1.1-.2m7.3.1c-1.3 1.6-1.2 1.7.4.4s2.1-2.1 1.3-2.1c-.2 0-1 .8-1.7 1.7m18.9-1c.7.3 1.6.2 1.9-.1.4-.3-.2-.6-1.3-.5-1.1 0-1.4.3-.6.6M33 220c0 .5.5 1 1 1 .6 0 1-.5 1-1 0-.6-.4-1-1-1-.5 0-1 .4-1 1m47.4-.2c.4.3 1.4.7 2.2.8.9.1 1.3 0 1-.4-.4-.3-1.4-.7-2.2-.8-.9-.1-1.3 0-1 .4M199 221c1.3 2.4 1.7 2.5 1.7.5 0-.8-.6-1.6-1.4-1.9-1.1-.4-1.1-.1-.3 1.4m94-1c0 .5.5 1 1.1 1 .5 0 .7-.5.4-1-.3-.6-.8-1-1.1-1-.2 0-.4.4-.4 1m49.6-.2c-.3.5.1.9.9.9s1.2-.4.9-.9c-.3-.4-.7-.8-.9-.8s-.6.4-.9.8m11.9.3c-.4.6-.5 1.2-.2 1.5.2.3.7-.2 1-1.1.7-1.7.1-2-.8-.4m49.6.5c0 1.1.3 1.4.6.6.3-.7.2-1.6-.1-1.9-.3-.4-.6.2-.5 1.3m-225.3.1c.7.3 1.6.2 1.9-.1.4-.3-.2-.6-1.3-.5-1.1 0-1.4.3-.6.6m126.8.6c.3 1 .9 1.5 1.2 1.2s0-1.1-.7-1.8c-1-.9-1.1-.8-.5.6m-275 .5c-.3.5.1.9.9.9s1.2-.4.9-.9c-.3-.4-.7-.8-.9-.8s-.6.4-.9.8m191.9.2c-.3.6.1.7.9.4 1.8-.7 2.1-1.4.7-1.4-.6 0-1.3.4-1.6 1m205.5-.6c0 .2.7.7 1.6 1 .8.3 1.2.2.9-.4-.6-1-2.5-1.4-2.5-.6m-393.4 2.3c-.6 1.4-.5 1.5.5.6.7-.7 1-1.5.7-1.8s-.9.2-1.2 1.2m80.4-1.3c0 .2.8 1 1.8 1.7 1.5 1.3 1.6 1.2.3-.4s-2.1-2.1-2.1-1.3m57.6.4c-.2.4.4.8 1.4.8s1.6-.4 1.4-.8c-.3-.4-.9-.8-1.4-.8s-1.1.4-1.4.8m4.4.3c0 .5.5.7 1 .4.6-.3 1-.8 1-1.1 0-.2-.4-.4-1-.4-.5 0-1 .5-1 1.1m158-.7c0 .2.8 1 1.8 1.7 1.5 1.3 1.6 1.2.3-.4s-2.1-2.1-2.1-1.3m-258.8 2c.7.8 1.5 1.2 1.7 1.1.5-.6-1-2.5-2-2.5-.5 0-.4.6.3 1.4m144.5-.3c.7.7 1.5 1 1.8.7s-.2-.9-1.2-1.2c-1.4-.6-1.5-.5-.6.5m48.4.5c0 1.1.3 1.4.6.6.3-.7.2-1.6-.1-1.9-.3-.4-.6.2-.5 1.3m-185.5 1.6c.3.5 1 .6 1.5.3 1.3-.9 1.1-1.2-.6-1.2-.8 0-1.2.4-.9.9m132 0c.3.5 1 .6 1.5.3 1.3-.9 1.1-1.2-.6-1.2-.8 0-1.2.4-.9.9m-98.1.9c-.4.6-.5 1.2-.2 1.5.2.3.7-.2 1-1.1.7-1.7.1-2-.8-.4m148.5-.3c0 .6.5 1.4 1 1.7.6.4.7 1.1.4 1.7-.4.7-.2.8.5.4.9-.6.9-1.2-.1-2.4-.7-1-1.4-1.9-1.5-2.1-.2-.2-.3.1-.3.7m-47.5 1.3c-.4.6-.5 1.2-.2 1.5.2.3.7-.2 1-1.1.7-1.7.1-2-.8-.4m-4.9.8c-.4.5.3.7 1.4.4 2.3-.6 2.6-1.3.6-1.3-.8 0-1.7.4-2 .9m5.6 2.1c-.7 1.1-.8 2-.3 2 .9 0 2.4-3 1.8-3.6-.1-.2-.8.6-1.5 1.6m136.4 2.7c-.6 1.4-.5 1.5.5.6.7-.7 1-1.5.7-1.8s-.9.2-1.2 1.2m-140.2 1.9c.7 3.8 1.4 4 1.2.5 0-1.7-.4-3.1-.9-3.1-.4 0-.5 1.2-.3 2.6m48.2-1.7c-.3.5.2 1.5 1.2 2.2 1.5 1.3 1.6 1.2.4-.3-1-1.3-1-1.7 0-2.1.9-.4.9-.6.1-.6-.6-.1-1.4.3-1.7.8m-44.3 1.9c-.9.6-.7 1.1.7 2 1.2.7 2 .8 2 .2 0-.5-.5-1-1.1-1-.5 0-.7-.5-.4-1 .7-1.2.4-1.2-1.2-.2m-5.8 3.9c.1 2.8 1.9 4.2 3 2.4.3-.7 0-.8-.9-.5-1.1.4-1.4 0-1.1-1.5.2-1.1 0-2.3-.4-2.5-.4-.3-.7.7-.6 2.1m48.5-2.3c0 .2.7.7 1.6 1 .8.3 1.2.2.9-.4-.6-1-2.5-1.4-2.5-.6m91.6.4c-.3.5.1.9.9.9s1.2-.4.9-.9c-.3-.4-.7-.8-.9-.8s-.6.4-.9.8M218 240.5c0 .8.2 1.5.4 1.5s.6-.7 1-1.5c.3-.8.1-1.5-.4-1.5-.6 0-1 .7-1 1.5m1.5 2.5c-.7 2.3.1 4 1.8 4 .8 0 .8-.3-.2-.9-.8-.5-1.1-1.6-.6-3 .3-1.1.4-2.1.1-2.1-.2 0-.7.9-1.1 2m134-1c-.3.5-.1 1 .4 1 .6 0 1.1-.5 1.1-1 0-.6-.2-1-.4-1-.3 0-.8.4-1.1 1M215 245c-2.3 1.8-2.4 1.9-.3 1.4 1.2-.3 2.4-1.2 2.7-2 .7-1.8.6-1.8-2.4.6m48-.8c0 .4.4.8.9.8.6 0 1.2-.4 1.5-.8.3-.5-.1-.9-.9-.9s-1.5.4-1.5.9m90.5 1.8c.3.5.8 1 1.1 1 .2 0 .4-.5.4-1 0-.6-.5-1-1.1-1-.5 0-.7.4-.4 1m-134.9 2.5c1 .8 2.3 1.5 2.8 1.5.6 0 .1-.7-1-1.5-1-.8-2.3-1.5-2.8-1.5-.6 0-.1.7 1 1.5m-2.6.9c0 .2.7.7 1.6 1 .8.3 1.2.2.9-.4-.6-1-2.5-1.4-2.5-.6m-140.5 2.5c-.3.5-.2 1.2.3 1.5s.9-.1.9-.9c0-1.7-.3-1.9-1.2-.6m145.5.6c0 .8.2 1.5.4 1.5s.6-.7 1-1.5c.3-.8.1-1.5-.4-1.5-.6 0-1 .7-1 1.5m133.6-.7c-.3.5.1.9.9.9s1.2-.4.9-.9c-.3-.4-.7-.8-.9-.8s-.6.4-.9.8m-140.7 2.4c-.5 1.8-.6 3.8-.1 3.4.7-.8 1.2-3.6.6-3.6-.2 0-.4.1-.5.2m-182.3 2.5c-.6 1.4-.5 1.5.5.6.7-.7 1-1.5.7-1.8s-.9.2-1.2 1.2m186.9-.7c-.3.6.1.7.9.4 1.8-.7 2.1-1.4.7-1.4-.6 0-1.3.4-1.6 1m-48.3 3c.7 1.1 1.8 2 2.5 2 .8 0 .5-.8-.7-2-1.1-1.1-2.2-2-2.5-2s0 .9.7 2m14-.8c-.7.7-1.2 1.7-1.2 2.2 0 .6.5.3 1.1-.8.9-1.5 1.3-1.6 2-.5 1.2 2 1.1 3.1-.3 2.3-.7-.4-.8-.3-.4.4.4.6 1.3.9 2.1.6 1.2-.5 1.2-.9-.2-3-1.8-2.8-1.6-2.7-3.1-1.2m15.2 1.7c.2 4.2 1.1 4.6 1.2.5 0-1.9-.2-3.4-.6-3.4s-.7 1.3-.6 2.9m67.6-1.8c0 .5.5.7 1 .4.6-.3 1-.8 1-1.1 0-.2-.4-.4-1-.4-.5 0-1 .5-1 1.1m40.9.6c-1.3 1.6-1.2 1.7.4.4s2.1-2.1 1.3-2.1c-.2 0-1 .8-1.7 1.7m-32.4.4c-.4.6-.5 1.2-.2 1.5.2.3.7-.2 1-1.1.7-1.7.1-2-.8-.4m59.4.6c-1.3 1.6-1.2 1.7.4.4.9-.7 1.7-1.5 1.7-1.7 0-.8-.8-.3-2.1 1.3m-219.3.5c.3.5 1 .6 1.5.3 1.3-.9 1.1-1.2-.6-1.2-.8 0-1.2.4-.9.9m75.2-.5c.7.3 1.6.2 1.9-.1.4-.3-.2-.6-1.3-.5-1.1 0-1.4.3-.6.6m4.7 1.3c1 1.1 2 2 2.3 2s-.3-.9-1.3-2-2-2-2.3-2 .3.9 1.3 2m18.2-.5c-.4.8-.3 1.6.1 1.9s.9-.4.9-1.5c.2-2.3-.3-2.5-1-.4m192.8-.5c-.3.6.1.7.9.4 1.8-.7 2.1-1.4.7-1.4-.6 0-1.3.4-1.6 1m27 .1c-1.1 1.6-.1 1.9 1.3.3.7-.8.8-1.4.3-1.4s-1.3.5-1.6 1.1m-29.9 1.2c.3 1 .9 1.5 1.2 1.2s0-1.1-.7-1.8c-1-.9-1.1-.8-.5.6M175 262c0 .5.5 1 1 1 .6 0 1-.5 1-1 0-.6-.4-1-1-1-.5 0-1 .4-1 1m42.5 0c-.3.5-.1 1 .4 1 .6 0 1.1-.5 1.1-1 0-.6-.2-1-.4-1-.3 0-.8.4-1.1 1m53.1.2c.3.5 1 .6 1.5.3 1.3-.9 1.1-1.2-.6-1.2-.8 0-1.2.4-.9.9m128.8-.4c-.8.5-.3 1.4 1.5 2.6l2.6 2-2-2.4c-1.8-2.1-1.8-2.3-.2-1.7 1.1.4 1.6.3 1.2-.3-.7-1.2-1.6-1.2-3.1-.2m14.1.1c-.3.5-.2 1.2.3 1.5s.9-.1.9-.9c0-1.7-.3-1.9-1.2-.6m15.2.2c.7.7 1.5 1 1.8.7s-.2-.9-1.2-1.2c-1.4-.6-1.5-.5-.6.5m6.3-.2c0 .6.4 1.1 1 1.1.5 0 .7.7.4 1.5-.4.8-1.1 1.2-1.7.8-.6-.3-.7-.1-.3.5 1 1.6 1.4 1.5 2.5-.7.8-1.4.7-2.2-.4-3.1s-1.5-.9-1.5-.1m-255 1c0 .6.4 1.3 1 1.6s.7-.1.4-.9c-.7-1.8-1.4-2.1-1.4-.7m163.5 0c-.3.5-.2 1.2.3 1.5s.9-.1.9-.9c0-1.7-.3-1.9-1.2-.6m10.8.7c.9 1.1 1.4 2.4 1 2.7-.3.4-.1.7.5.7 1.9 0 1.4-1.5-1-3.6-2.3-1.9-2.3-1.9-.5.2m-181.3.1c.5.2 1 .9 1 1.4 0 .6-.4.8-.8.5-.4-.2-1.4 0-2.2.5-1.1.7-.8.8 1 .6 2.6-.4 3.5-2.8 1.2-3.3-.7-.1-.8 0-.2.3m4.5.4c-.4.6-.5 1.2-.2 1.5.2.3.7-.2 1-1.1.7-1.7.1-2-.8-.4m117.6 1.2c-1.3 2.1-1.2 2.1.5.5 1-1 1.6-2 1.3-2.2-.3-.3-1.1.5-1.8 1.7m51.9-1.4c0 .6.4 1.3 1 1.6s.7-.1.4-.9c-.7-1.8-1.4-2.1-1.4-.7M167.3 266c-.1 1.1.2 2 .5 2 .4 0 .8-.9.9-2s-.2-2-.5-2c-.4 0-.8.9-.9 2m20.4-.9c.7.7 1.5 1 1.8.7s-.2-.9-1.2-1.2c-1.4-.6-1.5-.5-.6.5m8.2-.9c-.5 1.8-.6 3.8-.1 3.4.7-.8 1.2-3.6.6-3.6-.2 0-.4.1-.5.2m21.6.7c-.3.5-.2 1.2.3 1.5s.9-.1.9-.9c0-1.7-.3-1.9-1.2-.6m86.1.4c.3 1 .9 1.5 1.2 1.2s0-1.1-.7-1.8c-1-.9-1.1-.8-.5.6m-124.3 1.9c.1 1.5.6 2.3 1.1 1.8.4-.4.4-1.6-.2-2.6-.9-1.6-1-1.4-.9.8m4.3-1.3c-1.8.7-1.8.8-.3 1.4.9.3 1.7.2 1.7-.4s.5-.7 1.2-.3.8.3.4-.4-.8-1.2-.9-1.1c-.1 0-1.1.4-2.1.8m29.7 1.2c-.2 2.3.3 2.5 1 .4.4-.8.3-1.6-.1-1.9s-.9.4-.9 1.5m61.5-1.4c.7.3 1.6.2 1.9-.1.4-.3-.2-.6-1.3-.5-1.1 0-1.4.3-.6.6m4 1.1c.4 1 .7 1.2 1 .4.2-.7.9-.9 1.5-.5.7.3.8.2.4-.2-1.4-1.6-3.6-1.4-2.9.3m4.7-.9c-.3.5-.2 1.2.3 1.5s.9-.1.9-.9c0-1.7-.3-1.9-1.2-.6m114 0c-.3.5 0 1.3.6 1.7.7.4.9.3.5-.4-.3-.5 0-1.3.6-1.5.9-.4 1-.6.1-.6-.6-.1-1.4.3-1.8.8m34.4-.7c-.6 2.1-.5 3.8.1 3.8.5 0 .8-.9.7-2-.1-1.7-.5-2.6-.8-1.8m-142.6 2.3c0 .8.4 1.2.9.9s.6-1 .3-1.5c-.9-1.3-1.2-1.1-1.2.6m-213.7.3c-.3.5.1.9.9.9s1.2-.4.9-.9c-.3-.4-.7-.8-.9-.8s-.6.4-.9.8m101.5.8c0 1.1.3 1.4.6.6.3-.7.2-1.6-.1-1.9-.3-.4-.6.2-.5 1.3m10.9-.1c-1.9 2.2-.8 2.5 1.3.3.9-1 1.3-1.8.8-1.8s-1.4.7-2.1 1.5m9.5-.5c-.3.5-.1 1 .4 1 .6 0 1.1-.5 1.1-1 0-.6-.2-1-.4-1-.3 0-.8.4-1.1 1m101.1.7c-.6 1.4-.5 1.5.5.6.7-.7 1-1.5.7-1.8s-.9.2-1.2 1.2m-126.8 0c.7.3 1.6.2 1.9-.1.4-.3-.2-.6-1.3-.5-1.1 0-1.4.3-.6.6m21.7.3c.6 1 .4 1.2-.8.7-1-.3-1.7-.2-1.7.3 0 1.3 2.7 1.3 3.5.1.3-.5 0-1.3-.6-1.7-.8-.5-.9-.3-.4.6m9.6.3c-.8 1-.7 1.4.2 1.4.8 0 1.4-.6 1.4-1.4 0-.7-.1-1.3-.2-1.3-.2 0-.8.6-1.4 1.3m151.5.4c-.6 1.4-.5 1.5.5.6.7-.7 1-1.5.7-1.8s-.9.2-1.2 1.2m-188 .1c-.2.4.4.8 1.5.8 1 0 1.9-.4 1.9-.8s-.6-.8-1.4-.8-1.7.4-2 .8m15 .1c-.3.4.4.7 1.4.6 2.7-.2 3.3-1 1-1.2-1.1-.1-2.2.2-2.4.6m35.7-.2c.4.3.1 1.3-.6 2.2-1.1 1.4-1 1.4.5.2 1.6-1.2 1.6-3.1.1-3.1-.4 0-.3.3 0 .7m66.3.5c.3.5 1 .6 1.5.3 1.3-.9 1.1-1.2-.6-1.2-.8 0-1.2.4-.9.9m7.4 0c0 .4.4.8.9.8.6 0 1.2-.4 1.5-.8.3-.5-.1-.9-.9-.9s-1.5.4-1.5.9m144.5 1.4c0 2.5 1 2.3 1.7-.4.3-1 0-1.9-.6-1.9s-1.1 1-1.1 2.3m-236.7-.9c.7.3 1.6.2 1.9-.1.4-.3-.2-.6-1.3-.5-1.1 0-1.4.3-.6.6m152.5 1.8c0 .8.4 1.2.9.9.4-.3.8-.9.8-1.5 0-.5-.4-.9-.8-.9-.5 0-.9.7-.9 1.5m48.3.2c-.6 1.4-.5 1.5.5.6.7-.7 1-1.5.7-1.8s-.9.2-1.2 1.2m-52.6-.3c0 .2.8 1 1.8 1.7 1.5 1.3 1.6 1.2.3-.4s-2.1-2.1-2.1-1.3m-127.4 1.8c.3.4 1.1.5 1.9.1 2.1-.7 1.9-1.2-.4-1-1.1 0-1.8.5-1.5.9m135.8 2.3c0 1.4.3 2.5.7 2.5.3 0 .7-1.1.7-2.5s-.4-2.5-.7-2.5c-.4 0-.7 1.1-.7 2.5M76 278c-1.2.7-1 .9.7.7 1.2 0 1.9-.5 1.7-.9-.6-1-.6-1-2.4.2m149.4-.2c.4.3 1.4.7 2.2.8.9.1 1.3 0 1-.4-.4-.3-1.4-.7-2.2-.8-.9-.1-1.3 0-1 .4m118.1.1c-.3.5-.2 1.2.3 1.5s.9-.1.9-.9c0-1.7-.3-1.9-1.2-.6m3.9.5c.1.8.5 1.8.8 2.2.4.3.5-.1.4-1-.1-.8-.5-1.8-.8-2.2-.4-.3-.5.1-.4 1m86.2.3c-.6 1.4-.5 1.5.5.6.7-.7 1-1.5.7-1.8s-.9.2-1.2 1.2M115 280c0 .4.7.7 1.5.6 2.3-.3 2.6-1.2.5-1.3-1.1-.1-2 .2-2 .7m237 0c-.9.6-1 1-.3 1 .6 0 1.5-.5 1.8-1 .8-1.2.4-1.2-1.5 0m-234.5 6c.3.5.8 1 1.1 1 .2 0 .4-.5.4-1 0-.6-.5-1-1.1-1-.5 0-.7.4-.4 1m97.5 0c0 .5.5 1 1.1 1 .5 0 .7-.5.4-1-.3-.6-.8-1-1.1-1-.2 0-.4.4-.4 1m124.3 1.5c0 .8.4 1.2.9.9s.6-1 .3-1.5c-.9-1.3-1.2-1.1-1.2.6m-96.3 3.9c0 .2.7.7 1.6 1 .8.3 1.2.2.9-.4-.6-1-2.5-1.4-2.5-.6m82 6.7c0 .5.5.7 1 .4.6-.3 1-.8 1-1.1 0-.2-.4-.4-1-.4-.5 0-1 .5-1 1.1m-275.7 7.4c0 .8.4 1.2.9.9s.6-1 .3-1.5c-.9-1.3-1.2-1.1-1.2.6m220.2-.6c-.3.5-.2 1.2.3 1.5s.9-.1.9-.9c0-1.7-.3-1.9-1.2-.6m-113.6 1.8c-1.3 1.6-1.2 1.7.4.4s2.1-2.1 1.3-2.1c-.2 0-1 .8-1.7 1.7m22.1-1.3c0 .2.8 1 1.8 1.7 1.5 1.3 1.6 1.2.3-.4s-2.1-2.1-2.1-1.3m6.7.7c.7.7 1.5 1 1.8.7s-.2-.9-1.2-1.2c-1.4-.6-1.5-.5-.6.5m5.3-.7c0 .2.8 1 1.8 1.7 1.5 1.3 1.6 1.2.3-.4s-2.1-2.1-2.1-1.3m123.5.7c-.3.4.2.6 1 .5 2.1-.3 2.8-1.3 1-1.3-.9 0-1.8.4-2 .8m55-.1c-.3.6.1.7.9.4 1.8-.7 2.1-1.4.7-1.4-.6 0-1.3.4-1.6 1m-219.2 1.5c0 .8.4 1.2.9.9s.6-1 .3-1.5c-.9-1.3-1.2-1.1-1.2.6m18.6-1.3c-.5 1.8-.6 3.8-.1 3.4.7-.8 1.2-3.6.6-3.6-.2 0-.4.1-.5.2m-108.3 1.6c-.3.5.1.9.9.9s1.2-.4.9-.9c-.3-.4-.7-.8-.9-.8s-.6.4-.9.8m125.7 1.7c0 .8.4 1.2.9.9s.6-1 .3-1.5c-.9-1.3-1.2-1.1-1.2.6m-32.8.5c-.3.6.1.7.9.4 1.8-.7 2.1-1.4.7-1.4-.6 0-1.3.4-1.6 1m28.5 0c0 .5.5 1 1.1 1 .5 0 .7-.5.4-1-.3-.6-.8-1-1.1-1-.2 0-.4.4-.4 1m8 .1c0 .5.5.7 1 .4.6-.3 1-.8 1-1.1 0-.2-.4-.4-1-.4-.5 0-1 .5-1 1.1m6.6-.3c-.3.5.1.9.9.9s1.2-.4.9-.9c-.3-.4-.7-.8-.9-.8s-.6.4-.9.8m-14.3 3.7c0 .8.4 1.2.9.9s.6-1 .3-1.5c-.9-1.3-1.2-1.1-1.2.6m-10.3 0c0 .7 3 1.3 3.4.7.3-.4-.4-.9-1.5-.9-1-.1-1.9 0-1.9.2m14.9-.3c-.5 1.8-.6 3.8-.1 3.4.7-.8 1.2-3.6.6-3.6-.2 0-.4.1-.5.2m9.4 2.3c0 .8.4 1.2.9.9s.6-1 .3-1.5c-.9-1.3-1.2-1.1-1.2.6m124.3 1.8c.3 1 .9 1.5 1.2 1.2s0-1.1-.7-1.8c-1-.9-1.1-.8-.5.6m-154 .9c.3.5 1 .6 1.5.3 1.3-.9 1.1-1.2-.6-1.2-.8 0-1.2.4-.9.9m3.9-.2c-.3.5-.1 1 .4 1 .6 0 1.1-.5 1.1-1 0-.6-.2-1-.4-1-.3 0-.8.4-1.1 1m3.8.5c0 .8.4 1.2.9.9s.6-1 .3-1.5c-.9-1.3-1.2-1.1-1.2.6m-141.8.4c-.3.5-.2 1.2.3 1.5s.9-.1.9-.9c0-1.7-.3-1.9-1.2-.6m160 1c-.2.4 1.2.7 3 .7 1.9 0 3.2-.3 2.9-.5-.7-.8-5.4-.9-5.9-.2m7.5 0c0 .6.4 1.2.8 1.5.5.3.9-.1.9-.9s-.4-1.5-.9-1.5c-.4 0-.8.4-.8.9m3.5.2c-.3.4.2.6 1 .5 2.1-.3 2.8-1.3 1-1.3-.9 0-1.8.4-2 .8m5.1-.3c-.3.5.1.9.9.9s1.2-.4.9-.9c-.3-.4-.7-.8-.9-.8s-.6.4-.9.8m10.4-.4c0 .2.8 1 1.8 1.7 1.5 1.3 1.6 1.2.3-.4s-2.1-2.1-2.1-1.3m117.3 1.1c0 .8.4 1.2.9.9s.6-1 .3-1.5c-.9-1.3-1.2-1.1-1.2.6m18 1c0 .8.4 1.2.9.9s.6-1 .3-1.5c-.9-1.3-1.2-1.1-1.2.6m-316 1c0 .8.4 1.2.9.9s.6-1 .3-1.5c-.9-1.3-1.2-1.1-1.2.6m69.4-.4c.7.7 1.5 1 1.8.7s-.2-.9-1.2-1.2c-1.4-.6-1.5-.5-.6.5m12 0c.7.7 1.5 1 1.8.7s-.2-.9-1.2-1.2c-1.4-.6-1.5-.5-.6.5m53.8-.1c-.3.6.1.7.9.4 1.8-.7 2.1-1.4.7-1.4-.6 0-1.3.4-1.6 1m5.5-.6c0 .2.8 1 1.8 1.7 1.5 1.3 1.6 1.2.3-.4s-2.1-2.1-2.1-1.3m33.6.9c.3 1 .9 1.5 1.2 1.2s0-1.1-.7-1.8c-1-.9-1.1-.8-.5.6m93.9-.4c-.3.5-.2 1.2.3 1.5s.9-.1.9-.9c0-1.7-.3-1.9-1.2-.6"/><path d="M189.9 323.2c1.2 1.6 1 1.7-2.5 1.5-2.2-.1-4.2-.6-4.6-1.2-.5-.6-.8-.5-.8.2s-.9 1.3-1.9 1.3c-1.1 0-2.2-.6-2.4-1.3q-.6-1.5-.6 0c-.1.7-.6 1.3-1.2 1.3-.5 0-.7-.5-.4-1.1.4-.6-.3-.5-1.4.3-1.8 1.1-2.3 1.1-3.1-.2-.6-1-1-1.1-1-.3 0 .7-.5 1.3-1.1 1.3-.5 0-.7-.6-.3-1.3.6-1 .4-1-.7 0-.7.7-1.7 1.3-2.2 1.3-.4 0-.5-.6-.1-1.3.6-.9.4-.9-.7-.1-1.9 1.5-12.9 1.8-12.9.4 0-.7-.7-.5-1.5.4-1.1 1-1.5 3.6-1.5 8.6 0 3.9-.4 6.9-.8 6.6-.5-.3-.9.1-.9.9s.4 1.2.9.9c.4-.3.8 1.1.8 3.1 0 2.6-.3 3.4-1.2 2.9-1-.6-1-.5-.2.7 1.4 1.6 1.5 6.8.3 7-.5.1-1.3.2-1.8.3-.5 0-1.3.4-1.6.8-.4.4.4.5 1.9.2 1.9-.3 2.6 0 2.6 1.1 0 1-.5 1.3-1.2.9-1-.6-1-.4 0 .7 1.4 1.6 1.6 3.3.2 2.4-.5-.3-1-.1-1 .4 0 .6.5 1.1 1 1.1.6 0 1 .8 1 1.7 0 1.4-.2 1.5-.9.5-.7-1.1-.9-1.1-1.4.2-.4.9-.1 1.5.5 1.3.6-.1 1.3.4 1.6 1.2.3 1 0 1.1-.9.5-1.1-.6-1.2-.5-.2.7 1.4 1.8 1.4 11-.1 10.2-.6-.3-.5 0 .2.8 1.5 1.6 1.6 6.3.1 5.4-.6-.4-.5.3.3 1.4 1.1 1.8 1.1 2.3-.2 3.1-1 .6-1.1 1-.2 1 .6 0 1.2.7 1.2 1.6 0 .8-.5 1.2-1.1.9-.6-.4-.5.3.3 1.4 1.1 1.8 1.1 2.3-.2 3.1-.8.5-1 1-.4 1 .8 0 1.2 2.7 1.2 7.7 0 4.9-.3 7.1-.9 6.2-.5-.9-.9-1-.9-.2 0 .6.5 1.5 1 1.8.6.3 1 1.3 1 2.1s-.5 1.2-1.1.9c-.6-.4-.5.2.2 1.3 1.1 1.7 1 2.4-.2 3.8-1 1.3-1 1.6-.1 1 1.6-1 1.3 2.5-.3 3.6-.6.5-.5.8.3.8.7 0 1.2 1.4 1.2 3.7 0 2.8-.3 3.4-1 2.3-.6-.9-1-1-1-.3 0 .6.5 1.5 1 1.8.6.3 1 3.4 1 6.8v6.2l6.5-.2c4.9-.2 6.4.1 5.8 1-.5.9-.3.9.8.1 1.7-1.3 6.2-1.6 5.4-.4-.3.5-.1 1.2.5 1.5.6.4.9.1.8-.6-.2-1 1.6-1.4 6.7-1.5 3.9-.2 7.9-.3 9-.3 1.9-.1 2-.8 2-10.3-.1-5.7.4-10.9 1-11.7.8-1.2.7-1.3-.5-.6-1.3.8-1.3.7-.1-.8.9-1.1 1-1.7.2-1.7-.6 0-1.1-.5-1.1-1.1 0-.5.4-.8.8-.5.4.2 1.4 0 2.2-.6 1.2-.8 1.2-.9-.2-.4-1 .3-2 .1-2.3-.4-.4-.6-.1-1 .5-1s.8-.5.4-1.2c-1.5-2.4-1.1-4.8.8-4.8 1 0 1.8-.4 1.8-.9 0-.6-.8-.8-1.8-.6s-1.9-.2-1.9-.8c0-.7 1.9-1.3 4.9-1.3 3.3-.1 4.6.2 4.1 1s-.3.8.8 0c2-1.4 5.5-1.2 5.1.4-.1.8.2 1.1.8.7.6-.3.8-1 .5-1.4-.2-.5 1.6-.9 4.1-.9 3.2-.1 4.3.2 3.7 1.1-.5.9-.3.9.8 0 .8-.6 4.8-1.3 8.9-1.6 4.1-.2 8.2-.7 9-1s2.4-.7 3.5-.9 2.6-.9 3.3-1.6c.8-.7 1.7-1 2.2-.7.4.3 1.1-.2 1.4-1.1.3-.8 1-1.2 1.6-.9.5.3 1 .1 1-.6s.2-1 .5-.7c.8.8 10.1-8.6 9.6-9.6-.2-.5.4-.6 1.4-.2 1.4.5 1.6.4.6-.7-.8-1.1-.6-1.9.9-3.7 1.1-1.2 1.7-2.7 1.4-3.2s0-1.5.6-2.3.9-1.8.6-2.4c-.3-.5.3-.7 1.4-.4s2 1 2 1.5-.4.7-.9.3c-.5-.3-1.3 0-1.7.6-.4.8-.3.9.4.5 1.5-.9.3 2.6-1.2 3.7-.7.5-.3.7.8.5 1-.2 2.1.3 2.4 1.1.3 1 0 1.1-.9.5-1.2-.6-1.2-.5 0 .9 1.5 1.9 1.5 1.9-1.4 3.5-1.7.9-1.3 1 2.1.7l4-.3v3.6c-.1 2.1-.5 4.3-.9 4.9-.5.9-.3 1.1.7.7 1.1-.4 1.4.1 1.2 2-.2 1.4 0 2.3.4 2.1 1-.6 4.2 9.3 3.5 10.6-.4.5-.3.8.2.7.4-.2.8-.1.8.2s1 1.6 2.3 3c2.2 2.3 2.6 3.5 2.2 5.5-.1.5.2.7.6.3 1-1 4.5 3.2 3.7 4.5q-.45.9.6.3c.7-.4 1.5.2 2 1.6.6 1.3 1 1.7 1 1 .1-.7.6-1 1.2-.7.6.4.8 1.2.6 1.9-.3.6.1 2 .9 3.1.8 1 1.4 1.4 1.4.9 0-.6-.5-1.5-1.2-2.2-.8-.8-.8-1.2-.1-1.2 1.5 0 3.4 2.5 2.6 3.4-.4.4 0 .4 1 0 1.1-.4 1.9 0 2.3 1 .3.9 1.1 1.6 1.7 1.6s3.1 1 5.6 2.2c2.5 1.3 6.4 2.7 8.6 3.3 2.2.5 4 1.5 4 2.2 0 .6.4 1.5.8 2 .5.4.7.1.5-.7-.1-.8.3-1.5 1-1.4.6.1 2.1.2 3.3.3 1.3 0 1.8.5 1.3 1.4s-.4.9.6 0c.9-.9 1.9-.9 3.3-.2 1.3.8 2.2.8 3 0 1.2-1.2 5.1.5 4.2 1.9-.3.6.1.7 1 .3 1.3-.5 1.4-.8.3-1.5-1.8-1.1 3.2-.6 5.1.6 1 .6 1.2.5.7-.2-.4-.7-.3-1.2.3-1.2.5 0 1.7-.3 2.7-.7 1.2-.4 1.5-.3 1 .6-.6.9-.4 1 1 .2 3-1.5 11.4-3.2 12.6-2.5.6.4.8.3.5-.3-.6-1 2.3-2.3 4.7-2.2.5.1 1.2-.3 1.5-.8 1-1.5 10.1-7.5 11.6-7.7.8-.1 1.8-.6 2.2-1.1.4-.4.2-.5-.4-.1-.7.4-1.3.5-1.3.2 0-.9 4-4.7 4.1-3.9 0 .5.4-.2 1-1.5.5-1.4 1.3-2 2-1.6q1.05.6.6-.3c-.8-1.3 2.2-5.5 3.4-4.8.5.3.6-.1.3-.9s.1-2.5 1-3.8c1.8-2.6 2.1-5.8.5-5.8-.5 0-.8-.3-.6-.8.3-.4-.5-.8-1.6-.8-2.5-.2-16-6.4-16.5-7.6-.2-.5-.7-.6-1.1-.4-.3.2-2.9-.6-5.6-1.9s-5-2.3-5-2.2c-1.1 2.7-4.2 7.7-4.8 7.7-.4 0-.5-.6-.1-1.3s.3-.9-.2-.4-1 1.3-1 1.8c-.1.5-.2 1.3-.3 1.7 0 .5-1.5 1.9-3.2 3.1-1.8 1.3-2.9 1.9-2.5 1.2 1-1.5 1.9-6.7 1.1-5.9-.4.3-.8 1.2-.9 2-.5 3.1-1.8 5.8-2.7 5.8-.6 0-.8-.4-.5-.8.3-.5-.1-.9-.8-.9-.8 0-1.2.7-.8 1.5.3 1 .1 1.3-.6.8-.7-.4-1.2-.2-1.2.3 0 1.6-2.4.9-3.2-.9-.5-1.3-.7-1.2-.7.2-.1 1.3-.9 1.6-4.3 1.3-2.4-.2-5.2-.6-6.3-.8-1.1-.3-2.3-.6-2.6-.6-.4-.1-.9-1-1.2-2.1-.3-1.3-1.1-1.8-2.6-1.5-1.3.2-2.4-.2-2.8-1-.3-.8-.9-1.3-1.3-1-.8.5-7.3-9.7-8.4-13.1-.3-1.1-.8-5.1-1-8.8-.4-6.5-.4-6.7 1.7-6 2 .6 2 .5.5-.7-1.6-1.3-1.6-1.9-.5-5.8.8-2.4 2.2-5 3.2-5.7 1-.8 1.5-1.4.9-1.4-.5 0 1.3-2.1 4-4.5 4.3-4 5.8-4.7 8.2-4.4.4 0 1-.5 1.5-1.3 2-3.2 22.9-.2 22.9 3.4 0 .6.3.9.6.5.7-.6 5.4 3.3 5.4 4.5 0 .4.9 1.7 2 2.8s2 2.7 2 3.5c0 1.3.4 1.4 2 .5 1.1-.6 2-.8 2-.5 0 .4 1.4-.3 3-1.5 1.7-1.2 3-1.8 3-1.4 0 .3.7.1 1.5-.6s2.2-1 3-.6c.9.3 1.3.2 1-.4-.3-.5 3.5-2.8 8.4-5.1l9-4.2-1.5-2.9c-.8-1.6-1.2-3.4-.8-4 .4-.7.3-.8-.4-.4-1.4.8-3.5-3-2.6-4.7.4-.6.4-.9 0-.5-.7.6-5.6-3.4-5.6-4.6 0-.5-6.5-7-7.4-7.3-3.3-1.3-11.5-6.7-11-7.4.3-.5-.1-.6-.9-.3s-4.6-.4-8.5-1.5c-3.9-1-7.3-1.7-7.6-1.3-.3.3-.6.1-.6-.5 0-.5-1.2-.8-2.7-.7-9.6 1-22.2 1-21.6 0 .4-.6 0-.6-.9.1-.8.7-1.9.9-2.3.5-.5-.4-.5-.2-.2.4.8 1.3-3.8 2.8-5.3 1.9-.6-.4-1-.2-1 .2 0 .5-1.4 1.4-3 2-1.7.6-2.8.8-2.6.4.3-.4-.1-.8-.8-.8-.9 0-1.2.7-.8 1.6.3.9.2 1.3-.3.9-.4-.4-1.4 0-2.3.8-1.2 1.3-1.6 1.3-2.3.2-.7-1-.9-.9-.9.5 0 1-.4 1.6-.9 1.3s-1.2.1-1.5 1c-.4 1-1.3 1.3-2.8.9-1.4-.4-1.8-.3-1.1.2 1 .7.8 1.3-.7 2.6-1.1.9-2.5 1.7-3 1.7-.6 0-1 .7-1 1.6 0 1-.5 1.4-1.6 1-.8-.3-1.3-.2-1 .3s-.4 1.9-1.5 3.2-2.8 3.6-3.7 5.1c-.9 1.6-2 2.8-2.5 2.8-.4 0-.5-.5-.1-1.2s.3-.8-.5-.4c-.6.4-.8 1.2-.5 1.8.5.8.1.9-1.2.5-1.8-.7-1.8-.6-.2.6 1.2.9 1.4 1.7.7 2.4-.5.5-2.1 4.1-3.4 7.9s-3 7-3.7 7.2c-.8.2-.7 0 .2-.7 1.3-1 1.3-1.1 0-1.1s-1.3-.1 0-1c.8-.5 1.1-1.2.7-1.7-1-1-2.8 1.8-2 3.1.4.5 0 .7-.9.4-1.1-.5-1.4.2-1.4 2.8.1 1.8-.3 3.3-.9 3.3-.5-.1-.9-.5-.7-1 .1-.6.3-2.2.4-3.7s.8-3.3 1.5-4c.7-.8 1-1.8.7-2.3-.8-1.3 2.8-.7 3.9.6.5.6.7.4.4-.5-.2-.8-1-1.4-1.6-1.2-1.2.2-1.5-1.1-.4-2.1.3-.4 1.2-.2 1.8.3.9.8 1.4.6 1.8-.4.4-1.1.1-1.3-1.1-1-1.4.5-1.3.3.2-1 1.1-.9 1.5-1.6.9-1.6-1.5 0-7.3 6.1-6.7 7.1.2.4-.1 1.1-.8 1.5s-1 .4-.6 0c.4-.5.3-1.9-.3-3.3-.6-1.7-.6-2.2.2-1.7.6.3 1.5 0 2-.7 1.2-1.9 1.1-2.9-.2-2.9-.5 0-.7.4-.4 1 .3.5 0 1-.8 1-2 0-1.7-2.9.5-3.6 1-.3 1.8-1 1.8-1.6 0-.7-.5-.6-1.5.2-2 1.7-3.8.4-2.5-2 .7-1.3.7-2.1-.2-2.6-.7-.5-.9-.2-.4.7.4.8 0 .5-.8-.5-1.7-2.1-2.2-4.1-.8-3.2.5.3.9-.1.9-.8 0-.9-.7-1.2-1.5-.8-1.2.4-1.4.1-.8-1.3.4-1.1.4-1.6 0-1.3-.7.8-5.4-4.5-5.4-6.1 0-.6-.7-1.1-1.5-1.1-1 0-1.5-.7-1.3-1.8s-.3-1.6-1.3-1.4c-.9.1-2.2-.5-2.9-1.3s-1.9-1.5-2.6-1.5c-.8 0-1.4-.5-1.4-1 0-.6-.9-1-1.9-1-1.1 0-2.2-.4-2.5-.9s-2.7-1.2-5.3-1.6c-3.4-.5-4.3-.9-3.2-1.6.9-.7.5-.7-1.5-.3-1.9.5-3.1.2-3.7-.7-.5-.8-.9-.9-.9-.3 0 .8-2.3 1.2-6.5 1.2-3.6 0-6.2-.4-5.9-.9s0-.9-.5-.9c-.6 0-1.1.4-1.1.8 0 .5-1.6.9-3.5 1-2 .1-3.3-.3-3-.8s0-1.2-.6-1.6c-.7-.4-.9-.3-.5.4 1.2 1.9-1.5 2.4-3 .6-1.2-1.7-1.3-1.7-.8-.2.3 1 .3 1.8-.2 1.8-.4 0-1.7-.8-2.8-1.8-1.9-1.6-2-1.6-.7 0m8.1 34c0 .5-.5.6-1.2.2q-1.05-.75-.3.6c.6 1 1.1.9 2.2-.5 1.3-1.8 1.3-1.8 2.8.1.8 1 1.5 1.5 1.5 1 0-.6.6-.2 1.3.9 1.1 1.4 1.6 1.5 2.2.5.5-.8.4-1.1-.2-.7s-1.4 0-1.7-.9c-.3-.8-1-1.2-1.6-.9-.5.3-1 .2-1-.4 0-1 7.9-.8 12.3.4 1.5.4 2.7 1.4 2.7 2.3 0 1.3-.3 1.3-1.9-.2-1.3-1.2-2.1-1.4-2.6-.6-.4.6-.4 1.4-.1 1.7.3.4.6.1.6-.6s.5-.9 1-.6c.8.5.7 1.1-.1 2.1-.6.7-1.4 1.2-1.8 1-.3-.2-.7.8-.8 2.2-.1 2.4 0 2.4.9.7 1.6-2.9 1.6-2.9 3.3-1.5 1 .9 1.5.9 1.6.1.3-2.6.4-3 1.3-3.8.5-.5.6-.3.2.4s-.2 1.3.4 1.3.8.4.5 1c-1.1 1.9-1.5 5.3-.6 6.4 1.5 1.8 1.3 2.5-1.5 5.1-3.2 3-2.1 2.7-11.4 3-4.6.2-8.1-.1-8.9-.8-1-.8-1.3-.8-.8-.1.4.8-1 1.1-4.6 1l-5.1-.2-.1-6.2c0-4.3.4-6.2 1.3-6.2.6 0 1.2-.4 1.2-1 0-.5-.8-.7-1.7-.4-1 .3-.2-.4 1.7-1.7 1.9-1.2 3.7-2.4 3.9-2.6.3-.2-.1-.9-.9-1.6-1-1-1.1-.9-.5.1.6 1.1.3 1.2-1.3.3-2.5-1.4-4.3-1.4-2.2-.1.9.6 1 1 .3 1-1.3 0-2.5-1.5-1.8-2.2.9-.9 11.5-.5 11.5.4m-7.1 2.2c-.2.2-1.5.9-2.9 1.5-2.4 1.1-2.4 1.1-.6-.3 1.6-1.3 4.9-2.4 3.5-1.2m25.6 2.6c.3.5.1 1-.4 1-.6 0-1.1-.5-1.1-1 0-.6.2-1 .4-1 .3 0 .8.4 1.1 1m4.5 5.4c0 .3-.4.8-1 1.1-.5.3-1 .1-1-.4 0-.6.5-1.1 1-1.1.6 0 1 .2 1 .4m44 6.5c0 .4-.5 1.2-1.2 1.9-.9.9-.9 1.2.1 1.2.7 0 .9.5.6 1-.4.6-1.1.8-1.6.5s-.6.1-.3.9c.3.9 1.1 1.3 1.7.9s.7-.1.1.8c-.4.8-.8 3.4-.9 5.8 0 3-.5 4.6-1.5 4.9-1.3.5-1.3.3-.1-1.1 1.1-1.4 1.1-1.7 0-1.7-1 0-1-.3-.1-1.2s.8-1.4-.5-2.3c-1.2-.9-1.3-1.6-.6-3.1.6-1 .9-3.7.8-6-.1-3.5.1-4 1.7-3.6 1 .2 1.8.7 1.8 1.1"/><path d="M194.2 358.4c.2 1.3-.6 2.4-2.2 3.3-1.7.9-2 1.3-.8 1.3.9 0 2.3-.7 3.1-1.5s1.8-1.1 2.3-.7c.7.6-.4-1.2-2.4-3.8-.2-.3-.2.4 0 1.4m14-.1c1 .8 1.5 1.7 1.1 2-.3.4-.1.7.5.7 2 0 1.3-1.9-1-3-2.1-1-2.1-1-.6.3m-8.7 1.7c.3.5.8 1 1.1 1 .2 0 .4-.5.4-1 0-.6-.5-1-1.1-1-.5 0-.7.4-.4 1m8 2c.6 1 .4 1.2-.7.7-1.7-.6-1.9 1.6-.3 3 .4.4.5.2.1-.5s-.1-1.2.8-1.2c1.9 0 2.1-1.6.4-2.6q-1.05-.75-.3.6m-13.6 1.7c-.1.5-.1 1.2 0 1.6.1.5-.8.6-1.9.2-1.1-.3-2-.2-2 .3 0 1.7 4.3.7 4.6-1.1.1-.9 0-1.7-.2-1.7s-.5.3-.5.7m3.6.4c-.6.8-.4 1 .5.4 1-.6 1.2-.4.6 1.1s-.5 1.7.5.6c.9-.9 1-1.5.2-2.3s-1.3-.7-1.8.2m4.1.6c-.6 1.4-.5 1.5.5.6.7-.7 1-1.5.7-1.8s-.9.2-1.2 1.2m12 1c-1.3 1.3-.5 4.2 1.4 5.6 1.1.8 1.7 1.7 1.3 2-.3.4-1.5-.1-2.5-1-1.5-1.3-2.1-1.4-3.1-.4-.9 1-.9 1.1.4.6.9-.3 2.1.1 2.8.9 1 1.1.7 1.4-1.6 1.5-5.3.1-6.3.2-6.8 1-.5.9 3.1.6 5.9-.5 1.4-.5 1.7-.4 1.1.5-.6 1-.3 1.1 1.2.3 2.5-1.4 4-3.3 3.7-5-.1-.6-.2-2.1-.3-3.1-.1-1.9-2.4-3.5-3.5-2.4m2 2.8c-.3.8-.1 1.6.5 1.9.5.2.4.3-.3.2s-1.5-1.3-1.6-2.5c-.3-1.6 0-2.1.8-1.6.6.4.9 1.3.6 2m-28.1-1.5c.3.5.8 1 1.1 1 .2 0 .4-.5.4-1 0-.6-.5-1-1.1-1-.5 0-.7.4-.4 1m8 0c-.3.5-.3 1 .2 1 .4 0 0 .5-1 1.1-.9.6-1.5 1.4-1.2 2 .4.5-.1.9-.9.9-1.9 0-2.1 1.6-.4 2.6.6.4.8.3.5-.3-.4-.6 0-1.4.9-1.7.8-.3 1.3-1 1-1.5-.4-.5-.1-1.1.6-1.3.6-.2 1.2-1.2 1.4-2.1.3-1.9-.2-2.2-1.1-.7m5.5 1.2c0 .3.9.6 2 .5s2-.5 2-.9c0-.3-.9-.6-2-.5s-2 .5-2 .9"/><path d="M208.5 368c-.3.5-.1 1 .5 1s.8.5.4 1.2-.3.8.4.4c.6-.4.9-1.3.5-2.1-.6-1.8-1-1.9-1.8-.5m-17.7.7c.7.3 1.6.2 1.9-.1.4-.3-.2-.6-1.3-.5-1.1 0-1.4.3-.6.6m-2.2 1.7c.3.8 0 1.7-.6 2.1-.9.6-.9 1 .1 1.6s1.1.9.2.9c-.7 0-1.3.4-1.3.8s1.1.8 2.5.8c2.3 0 2.3-.1.8-1.8-1.2-1.4-1.3-2.1-.4-3.2s.8-1.5-.3-1.9c-1-.4-1.3-.1-1 .7m10.1 0c.5 1.5.3 1.7-.8 1.1-.8-.5-1.1-.5-.6.1.5.5 1.3 1 1.8 1 .5.1 1.4.2 2 .3.5 0 .7.6.3 1.3-.5.7-.3.8.5.3 1-.6 1-1 0-1.9-.7-.6-1.9-1.8-2.6-2.6-1.1-1.3-1.2-1.2-.6.4m8 0c.5 1.4.3 1.7-.7 1.1-.9-.5-1.1-.4-.6.4.4.6 1.1.9 1.6.6.4-.3 1.1.1 1.3.7.3.7.6.8.6.2.1-.5-.6-1.9-1.4-3-1.5-1.8-1.5-1.8-.8 0m-12.5 4.6c-1.2 1.9-1.1 2 .8.8 2-1.3 2.7-2.8 1.2-2.8-.4 0-1.3.9-2 2m9 0c-.7 1.1-.8 2-.3 2 .9 0 2.4-3 1.8-3.6-.1-.2-.8.6-1.5 1.6m-4.7 1c.3.5.8 1 1.1 1 .2 0 .4-.5.4-1 0-.6-.5-1-1.1-1-.5 0-.7.4-.4 1M29.3 323.6c.4.7-2.4 1.1-8.6 1.3-5 .1-9.3.4-9.5.6s-.4 6.1-.3 13.1c0 8.7-.3 13.2-1.2 14.3-.9 1.2-.9 1.3.1.7.8-.5 1.2-.1 1.2 1.3 0 1-.6 2.2-1.2 2.4q-1.5.6 0 .6c.6.1 1.2 1 1.2 2.2 0 1.3-.4 1.8-1.2 1.3-1-.6-1-.4 0 .8 1.5 1.9 1.4 12.7-.2 14.7-.8 1.1-.8 1.3.1.7.8-.4 1.3-.1 1.3.9 0 .9-.4 1.4-.8 1.1-.5-.3-.9.1-.9.9s.4 1.2.8.9c1.3-.7.8 17.9-.5 19.5-.8 1.1-.8 1.3 0 .8.9-.5 1.2 5.4 1.2 22.4 0 15.5.4 23.4 1.1 23.8.6.4 5 .6 9.8.5 5.6-.2 9.2.1 10.2.9 1.2.9 1.3.9.7 0-.5-.9.8-1.2 5.3-1.2 3.4.1 5.9.5 5.6.9-.3.5.8.2 2.4-.6 2.1-1 2.8-2 2.4-3.1-.5-1.2-.3-1.4.7-.8s1.1.4.4-.6c-1.1-1.7-1.2-30.9-.1-30.9.4 0 .4-.8 0-1.8-.5-.9-.8-3.5-.8-5.7l.1-4 9.4-.1c5.7-.1 10.1.3 10.9 1 1.1.8 1.3.8.8 0s1.1-1.1 5.1-1.1c6 .1 8.3 1.2 7.5 3.7-.4 1.3-.4 1.3.5 0 .8-1 .8-1.8 0-2.7-.8-1-.6-1.3.5-1.3.9 0 1.9.9 2.2 2 .7 2.1 3.9 2.7 5 1 .4-.6-.3-.9-1.6-.7-1.2.1-2.4-.3-2.6-.9s.9-1 2.5-1c2.7 0 2.8.1 2.8 5 0 2.8-.5 5.4-1 5.8-.7.5-.7.8.2.8.6 0 1.2.8 1.2 1.8s-.6 2.4-1.2 3.1c-.7.8-.8 1.1-.2.8.7-.4 1 2 1 7.3 0 4.3-.3 7.7-.7 7.4-.4-.2-1.1 0-1.4.6-.4.6-.1.9.7.8.9-.2 1.4 1.5 1.6 6.5l.3 6.7 6.2.1H129c.3-.1.5-2.7.4-5.9 0-3.1.5-6.3 1-7.1.8-1 .8-1.3.1-.9s-1.1-1.1-1.1-4.2c0-2.8.4-4.6 1-4.3.5.3.6.1.2-.6-1.4-2.1-1.8-6.3-.5-5.6.8.5.8.2.2-1.1-1.2-2.2-1.1-8.4 0-10.2.5-.6.5-1.2 0-1.2-1 0-1-9.1 0-10.8.5-.6.4-1.2-.1-1.2s-.9-1.3-.9-3c0-1.6.5-2.7 1-2.3.6.4.7.1.1-.8-1.2-2-1.2-21.9.1-21.9.7 0 .7-.3 0-.8-1.2-.8-1.4-20.6-.3-21.8.4-.4.4-1.2.1-1.8-1.1-1.8-1-4.6.1-4.6.7 0 .7-.3-.1-.8-.7-.4-1-2.6-.9-5.4.2-2.5 0-5.2-.4-5.8-.7-1.1-35.1-1.7-36.8-.6-.5.3-.7 3.2-.5 6.6.2 3.6-.1 5.9-.6 5.5-.5-.3-1.3-.1-1.6.5-.4.6-.1.9.7.8 2.1-.5 1.9 27.9-.2 28.8-2.3 1-5 1.2-4.4.2.8-1.3-1-1-2.5.4-1.1 1-1.3 1-.7 0 .9-1.5-.6-1.6-2.2 0-.9.9-1.2.9-1.2-.1 0-1.1-.3-1.1-1.5-.1-1.8 1.5-2-.1-.2-1.9.9-1.1.7-1-1 0-1.3.8-2.3 1.6-2.3 2 0 .8-3.8.5-4.6-.4-.4-.3-1.5-.2-2.5.4-1.3.6-1.9.6-2-.1-.1-.5-.2-1.4-.3-1.9 0-.5-.5-1.3-1-1.8-.6-.5-.6-.2-.1.6.6 1.1.4 1.3-1.1.8-1.8-.7-1.8-.6-.1.7 1.5 1.1 1.5 1.5.3 1.9-.8.3-1.7.1-1.9-.6-.3-.9-.9-.8-2.2.3-1.7 1.4-1.8 1.3-1.2-.3 1.6-4.1 1.7-5 .2-2.5-.8 1.6-1.8 2.8-2.1 2.8s-.2-.4.1-1c.3-.5 0-.7-.8-.4s-1.9-.2-2.6-1-1.8-1.4-2.4-1.2c-.7.1-.9.1-.4-.1.4-.3.4-1 0-1.6-1.1-1.9-1-28.7.2-28.7.5 0 .4-.4-.3-.9-.7-.4-1.1-1.9-.8-3.3.7-4.1-.5-4.7-8.9-4.9-4.4-.1-8.6-.6-9.4-1.3-.9-.7-1.2-.7-.8 0m23.3 43.5c1.9 2.2 1.9 2.2-.2 1.1-1.4-.7-2.4-.8-3.1-.1-.6.6-1 .5-1-.5 0-.8.4-1.3.9-1 .4.3.8 0 .8-.5 0-1.6.4-1.4 2.6 1m80.4-39c0 .5.5.7 1 .4.6-.3 1-.8 1-1.1 0-.2-.4-.4-1-.4-.5 0-1 .5-1 1.1m235.6 4.1c.3.5 1 .6 1.5.3 1.3-.9 1.1-1.2-.6-1.2-.8 0-1.2.4-.9.9m-85.1 3.7c-.3.5-.2 1.2.3 1.5s.9-.1.9-.9c0-1.7-.3-1.9-1.2-.6M133 338.1c0 .5.5.7 1 .4.6-.3 1-.8 1-1.1 0-.2-.4-.4-1-.4-.5 0-1 .5-1 1.1m3.6-.3c-.3.5.1.9.9.9s1.2-.4.9-.9c-.3-.4-.7-.8-.9-.8s-.6.4-.9.8m4.9.2c-.3.5-.1 1 .4 1 .6 0 1.1-.5 1.1-1 0-.6-.2-1-.4-1-.3 0-.8.4-1.1 1"/><path d="M89.5 342c-.3.5-.1 1 .4 1 .6 0 1.1-.5 1.1-1 0-.6-.2-1-.4-1-.3 0-.8.4-1.1 1m54.1 1.9c-.3.5.2 1.5 1.2 2.2 1.5 1.2 1.6 1.2.5-.2-.7-.9-1-1.9-.6-2.2.3-.4.4-.7 0-.7-.3 0-.8.4-1.1.9M51 346c0 .5.5 1 1.1 1 .5 0 .7-.5.4-1-.3-.6-.8-1-1.1-1-.2 0-.4.4-.4 1m80 1c-.9.6-1 1-.3 1 .6 0 1.5-.5 1.8-1 .8-1.2.4-1.2-1.5 0m10.6 1.7c-.6 1.4-.5 1.5.5.6.7-.7 1-1.5.7-1.8s-.9.2-1.2 1.2M7.5 349.8c.3.3-.1 1.2-.7 2.1-.8 1-.4.9 1-.3 2.6-2.3 2.6-2.3.7-2.3-.8 0-1.3.3-1 .5m128.4-.6c-.5 1.6-.4 4.6.2 4.2.4-.2.7-1.3.6-2.4-.1-1.7-.5-2.6-.8-1.8m10.7 1.1c.3 1 .9 1.5 1.2 1.2s0-1.1-.7-1.8c-1-.9-1.1-.8-.5.6m-16.6 1.1c0 .2.7.7 1.6 1 .8.3 1.2.2.9-.4-.6-1-2.5-1.4-2.5-.6m9 .6c0 .5.5 1 1.1 1 .5 0 .7-.5.4-1-.3-.6-.8-1-1.1-1-.2 0-.4.4-.4 1m3.6.2c.3.5 1 .6 1.5.3 1.3-.9 1.1-1.2-.6-1.2-.8 0-1.2.4-.9.9M263 352c0 .5.5 1 1.1 1 .5 0 .7-.5.4-1-.3-.6-.8-1-1.1-1-.2 0-.4.4-.4 1m-174 1.5c0 .5.5 1.7 1 2.5s1 1 1 .5c0-.6-.5-1.7-1-2.5s-1-1.1-1-.5m42 1.5c-.8.5-1 1-.5 1 .6 0 1.7-.5 2.5-1s1.1-1 .5-1c-.5 0-1.7.5-2.5 1m-81.5 1c-.3.5-.1 1 .4 1 .6 0 1.1-.5 1.1-1 0-.6-.2-1-.4-1-.3 0-.8.4-1.1 1m3 0c.3.5.8 1 1.1 1 .2 0 .4-.5.4-1 0-.6-.5-1-1.1-1-.5 0-.7.4-.4 1m213.5 0c0 .5.7.7 1.5.4.8-.4 1.5-.8 1.5-1s-.7-.4-1.5-.4-1.5.4-1.5 1M4.6 358.2c.3.5 1 .6 1.5.3 1.3-.9 1.1-1.2-.6-1.2-.8 0-1.2.4-.9.9m127.2.2c-1.7 1.2-1.6 1.4.4 3.2 1.9 1.6 2 1.6.9.1-1.1-1.4-1.1-2-.1-3.2 1.5-1.8 1.1-1.9-1.2-.1M263 358c0 .5.5 1 1 1 .6 0 1-.5 1-1 0-.6-.4-1-1-1-.5 0-1 .4-1 1m66.4 1.4c.1 1.4.4 2.8.7 3.1s.5-.6.5-1.9c-.1-1.4-.4-2.8-.7-3.1s-.5.6-.5 1.9m-279.5-.8c.6.3.8 1.1.5 1.8-.5 1.4 3.3 5.3 4.3 4.3.3-.4.1-.7-.6-.7s-.9-.5-.6-1c.4-.6.1-.9-.7-.8-.7.2-1.3-.6-1.3-1.6 0-1.1-.6-2.1-1.3-2.2s-.8 0-.3.2m3.6.5c-.4.6-.5 1.2-.2 1.5.2.3.7-.2 1-1.1.7-1.7.1-2-.8-.4m271.5-.7c0 .2.7.9 1.5 1.6.9.7 1.5.8 1.5.2 0-.5-.7-1.2-1.5-1.6-.8-.3-1.5-.4-1.5-.2m-243.7 2.1c0 .8.4 1.2.9.9s.6-1 .3-1.5c-.9-1.3-1.2-1.1-1.2.6m6.3-.7c-.2.4 0 1.4.6 2.2.8 1.2.9 1.1.4-.4-.5-1.4-.2-1.7.9-1.2.9.3 1.3.2 1-.4-.7-1.2-2.2-1.3-2.9-.2m250.4.2c-.8.5-1 1-.5 1 .6 0 1.7-.5 2.5-1s1.1-1 .5-1c-.5 0-1.7.5-2.5 1m-283 1.9c0 .6.4 1.3 1 1.6s.7-.1.4-.9c-.7-1.8-1.4-2.1-1.4-.7m31.1 1.7c-.1 2.6 2.4 5.1 3.4 3.4.4-.6.1-.9-.6-.8-.7.2-1.6-.8-2-2.2-.6-2.2-.7-2.3-.8-.4m257.5-.3c.3 1 .9 1.5 1.2 1.2s0-1.1-.7-1.8c-1-.9-1.1-.8-.5.6m-212.4 1.3c1 1 2 1.6 2.2 1.3.3-.3-.5-1.1-1.7-1.8-2.1-1.3-2.1-1.2-.5.5m182.7.1c-1.3 1.7-1.3 1.7.6.3 1.1-.8 2.2-1.6 2.4-1.7q.3-.3-.6-.3c-.6 0-1.7.8-2.4 1.7m-234.1 1c.7.3 1.6.2 1.9-.1.4-.3-.2-.6-1.3-.5-1.1 0-1.4.3-.6.6m237.2.4c0 .5.5.7 1 .4.6-.3 1-.8 1-1.1 0-.2-.4-.4-1-.4-.5 0-1 .5-1 1.1m23.5-.1c-.3.6.1.7.9.4 1.8-.7 2.1-1.4.7-1.4-.6 0-1.3.4-1.6 1m-208.9 1.9c-.3.5.2 1.5 1.2 2.2 1.5 1.2 1.6 1.2.5-.2-.7-.9-1-1.9-.6-2.2.3-.4.4-.7 0-.7-.3 0-.8.4-1.1.9m4.1.6c-.4.8-.3 1.6.1 1.9s.9-.4.9-1.5c.2-2.3-.3-2.5-1-.4M7.6 370.2c.3.5 1 .6 1.5.3 1.3-.9 1.1-1.2-.6-1.2-.8 0-1.2.4-.9.9m298.9.9c-.4.6-.5 1.2-.2 1.5.2.3.7-.2 1-1.1.7-1.7.1-2-.8-.4m58 .9c-.3.6.1.7.9.4 1.8-.7 2.1-1.4.7-1.4-.6 0-1.3.4-1.6 1m-232.6 2.3c-1.5 1.1-1.5 1.4-.1 2.7s1.5 1.2 1-.2c-.4-.8-.1-2.1.5-2.7 1.5-1.5.6-1.4-1.4.2m14.2 1.3c0 1.1.3 1.4.6.6.3-.7.2-1.6-.1-1.9-.3-.4-.6.2-.5 1.3m159.6-.2c-.5 1.2-.3 1.5.5 1s.9-.1.4 1.2c-.5 1.4-.4 1.6.4.7.8-.7.9-1.7.3-2.8-.9-1.6-1-1.6-1.6-.1m-165.1.8c.3.5 1 .6 1.5.3 1.3-.9 1.1-1.2-.6-1.2-.8 0-1.2.4-.9.9M5 378c0 .5.5 1 1.1 1 .5 0 .7-.5.4-1-.3-.6-.8-1-1.1-1-.2 0-.4.4-.4 1m129.5 0c-.3.6.1.7.9.4 1.8-.7 2.1-1.4.7-1.4-.6 0-1.3.4-1.6 1m8.5-.6c0 .2.7.7 1.6 1 .8.3 1.2.2.9-.4-.6-1-2.5-1.4-2.5-.6m-12.4 2.4c-.3.5.1.9.9.9s1.2-.4.9-.9c-.3-.4-.7-.8-.9-.8s-.6.4-.9.8m10.8 0c.4.3 1.4.7 2.2.8.9.1 1.3 0 1-.4-.4-.3-1.4-.7-2.2-.8-.9-.1-1.3 0-1 .4m5.2 2.5c.3 1 .9 1.5 1.2 1.2s0-1.1-.7-1.8c-1-.9-1.1-.8-.5.6m-5 1c.3 1 .9 1.5 1.2 1.2s0-1.1-.7-1.8c-1-.9-1.1-.8-.5.6m161.9.8c-.4.6-.4 1.3-.1 1.6.3.4.6.1.6-.6s.5-.9 1.2-.5.8.3.4-.4c-.9-1.5-1.3-1.5-2.1-.1M131 385.8c0 .5 1 1.7 2.3 2.8 2.2 1.9 2.2 1.9.4-.2-.9-1.1-1.4-2.4-1-2.7.3-.4.1-.7-.5-.7-.7 0-1.2.4-1.2.8m14.4 2.1c0 1.1.5 1.7 1.3 1.4 1-.4 1.1-.9.2-1.9-1.5-1.8-1.5-1.8-1.5.5m110 .2c-.8 1.4 1.1 3.3 2.5 2.5 1.1-.7.4-3.6-.9-3.6-.5 0-1.2.5-1.6 1.1m2.1.9c.3.5.1 1-.4 1-.6 0-1.1-.5-1.1-1 0-.6.2-1 .4-1 .3 0 .8.4 1.1 1m46.5-.1c0 .6.4 1.3 1 1.6s.7-.1.4-.9c-.7-1.8-1.4-2.1-1.4-.7m-164.1.3c-.7 2.3-.4 3.5.7 3.5.9 0 1.1-.4.4-1.2-.5-.7-.7-1.5-.3-1.8.3-.4.3-.7 0-.7-.4 0-.7.1-.8.2m-8.7 2.3c.3.3 1.6.8 2.8 1s2 .1 1.6-.2c-.4-.4-1.6-.8-2.8-1s-1.9-.1-1.6.2m122.8 1.9c0 .2.7.7 1.6 1 .8.3 1.2.2.9-.4-.6-1-2.5-1.4-2.5-.6M141.5 395c-.4.6-1.1.7-1.7.4-.7-.4-.8-.2-.4.5.6.9 1.1.9 2.2 0 1.4-1.1 1.8-1.9 1-1.9-.3 0-.8.5-1.1 1m3.9.9c0 1.1.5 1.7 1.3 1.4 1-.4 1.1-.9.2-1.9-1.5-1.8-1.5-1.8-1.5.5m114.2-.4c.4.8.8 1.5 1 1.5s.4-.7.4-1.5-.4-1.5-1-1.5c-.5 0-.7.7-.4 1.5m-10.1.4c-.3.5-.2 1.2.3 1.5s.9-.1.9-.9c0-1.7-.3-1.9-1.2-.6m58.4.3c-.5 1.9-.8 5-.4 4.6.7-.7 1.5-4.8.9-4.8-.2 0-.4.1-.5.2M8 398c-.9.6-1 1-.3 1 .6 0 1.5-.5 1.8-1 .8-1.2.4-1.2-1.5 0m126.7.1c.7.7 1.5 1 1.8.7s-.2-.9-1.2-1.2c-1.4-.6-1.5-.5-.6.5m4 0c.7.7 1.5 1 1.8.7s-.2-.9-1.2-1.2c-1.4-.6-1.5-.5-.6.5m107.9 1.6c-.6 1.4-.5 1.5.5.6.7-.7 1-1.5.7-1.8s-.9.2-1.2 1.2m-100 2c-.6 1.4-.5 1.5.5.6.7-.7 1-1.5.7-1.8s-.9.2-1.2 1.2m111-.4c.3 1 .9 1.5 1.2 1.2s0-1.1-.7-1.8c-1-.9-1.1-.8-.5.6m-7 .5c-.3.5.1.9.9.9s1.2-.4.9-.9c-.3-.4-.7-.8-.9-.8s-.6.4-.9.8m62.4.3c0 .5.5.7 1 .4.6-.3 1-.8 1-1.1 0-.2-.4-.4-1-.4-.5 0-1 .5-1 1.1m-262.9 1.5c.6.8 1.2 2.4 1.3 3.6 0 1.2.8 2.3 1.6 2.5 1.3.4 1.3.3 0-.6-1.3-1-1.3-1.2 0-2.1 1-.6 1.1-1 .3-1-.7 0-1.3-.4-1.3-1 0-.5.6-.7 1.4-.4s1.7 0 2.2-.7c.5-.9.2-1.1-.8-.6-.9.3-1.9.3-2.2-.1-.4-.3-1.3-.7-2.2-.8-1.2-.2-1.3.1-.3 1.2m11-.7c-.8.5-2 .7-2.8.4-.7-.3-1.3-.1-1.3.4 0 1.4 4.9 1.1 5.4-.4.6-1.5.5-1.6-1.3-.4m78.5.4c.3 1 .9 1.5 1.2 1.2s0-1.1-.7-1.8c-1-.9-1.1-.8-.5.6m-64.7 1c.6.8.7 1.8.3 2.2-.4.5-.1.5.6.1 1-.6 1-1.1.1-2.2-.6-.8-1.4-1.4-1.6-1.4-.3 0 0 .6.6 1.3m56.6 1.7c.3.5.8 1 1.1 1 .2 0 .4-.5.4-1 0-.6-.5-1-1.1-1-.5 0-.7.4-.4 1m15.1.3c.3 1 .9 1.5 1.2 1.2s0-1.1-.7-1.8c-1-.9-1.1-.8-.5.6m165.4.2c-.7.9-1 1.8-.7 2.1s1-.4 1.7-1.5c1.3-2.5.8-2.7-1-.6m22.9 1.2c-1.3 1.6-1.2 1.7.4.4s2.1-2.1 1.3-2.1c-.2 0-1 .8-1.7 1.7m-248.4.3c.3.5.8 1 1.1 1 .2 0 .4-.5.4-1 0-.6-.5-1-1.1-1-.5 0-.7.4-.4 1m-30.6.2c-.5 1.8-.6 3.8-.1 3.4.7-.8 1.2-3.6.6-3.6-.2 0-.4.1-.5.2m33.1.7c0 .6.4 1.3 1 1.6s.7-.1.4-.9c-.7-1.8-1.4-2.1-1.4-.7m240.5 1c-.3.5-.2 1.2.3 1.5s.9-.1.9-.9c0-1.7-.3-1.9-1.2-.6M193.2 412c0 1.4.2 1.9.5 1.2.2-.6.2-1.8 0-2.5-.3-.6-.5-.1-.5 1.3m128.1-.5c0 .8.4 1.2.9.9s.6-1 .3-1.5c-.9-1.3-1.2-1.1-1.2.6m-262.8.5c-.3.6.1.7.9.4 1.8-.7 2.1-1.4.7-1.4-.6 0-1.3.4-1.6 1m78.1-.2c-.3.5.1.9.9.9s1.2-.4.9-.9c-.3-.4-.7-.8-.9-.8s-.6.4-.9.8m59.4.6c-.5.5-1 1.5-1 2 0 .6.5.3 1.1-.7.6-.9 1.4-1.5 1.9-1.2s1.1.2 1.4-.3c.7-1.2-2.1-1.1-3.4.2m138.8.3c.7.3 1.6.2 1.9-.1.4-.3-.2-.6-1.3-.5-1.1 0-1.4.3-.6.6m-11.8 1.4c0 .5.5.7 1 .4.6-.3 1-.8 1-1.1 0-.2-.4-.4-1-.4-.5 0-1 .5-1 1.1m4.1.6c.6.7 1.7 1.3 2.3 1.2.7 0 .6-.2-.2-.6-.6-.2-1-.8-.8-1.2.3-.4-.1-.8-.9-.8-1.1 0-1.2.4-.4 1.4m-319.8.8c0 .8.4 1.2.9.9s.6-1 .3-1.5c-.9-1.3-1.2-1.1-1.2.6m43.2.6c-.4.6-.5 1.2-.2 1.5.2.3.7-.2 1-1.1.7-1.7.1-2-.8-.4m36.9.4c.3 2.3 1.2 2.6 1.3.5.1-1.1-.2-2-.7-2-.4 0-.7.7-.6 1.5m43.6-.5c0 .5.5 1 1 1 .6 0 1-.5 1-1 0-.6-.4-1-1-1-.5 0-1 .4-1 1M8.1 418.4c-.9 1.1-.9 1.6.1 2.2.7.4 1 .4.6-.1-.4-.4-.3-1.4.3-2.2.6-.7.9-1.3.6-1.3-.2 0-1 .6-1.6 1.4m45.4-.4c-.3.5-.1 1 .4 1 .6 0 1.1-.5 1.1-1 0-.6-.2-1-.4-1-.3 0-.8.4-1.1 1m90.2.8c-1.5 1.6-1.5 1.9-.2 1.9.8 0 1.3-.3 1-.5-.3-.3 0-1.1.6-1.9 1.7-2 .5-1.6-1.4.5m2.4 1.8c0 1.1.3 1.4.6.6.3-.7.2-1.6-.1-1.9-.3-.4-.6.2-.5 1.3m-11.2 1.1c-1.3 1.6-1.2 1.7.4.4s2.1-2.1 1.3-2.1c-.2 0-1 .8-1.7 1.7m-3.9.3c0 .5.5 1 1 1 .6 0 1-.5 1-1 0-.6-.4-1-1-1-.5 0-1 .4-1 1m-80.1 1.7c-1.3 1.6-1.2 1.7.4.4.9-.7 1.7-1.5 1.7-1.7 0-.8-.8-.3-2.1 1.3m90.4-.4c0 .8.6 1.4 1.4 1.4.9 0 1-.4.2-1.4-.6-.7-1.2-1.3-1.4-1.3-.1 0-.2.6-.2 1.3m-53.7 2.5c-.3.5.1.9.9.9s1.2-.4.9-.9c-.3-.4-.7-.8-.9-.8s-.6.4-.9.8m44 .9c-.6 1.4-.5 1.5.5.6.7-.7 1-1.5.7-1.8s-.9.2-1.2 1.2m13.4-.6c0 .5.5.7 1 .4.6-.3 1-.8 1-1.1 0-.2-.4-.4-1-.4-.5 0-1 .5-1 1.1m-2 1.8c0 .6.4 1.3 1 1.6s.7-.1.4-.9c-.7-1.8-1.4-2.1-1.4-.7m45.6-.1c-.3.5.1.9.9.9s1.2-.4.9-.9c-.3-.4-.7-.8-.9-.8s-.6.4-.9.8m87 1.5c.3 1 .9 1.5 1.2 1.2s0-1.1-.7-1.8c-1-.9-1.1-.8-.5.6M4.5 430c-.3.6.1.7.9.4 1.8-.7 2.1-1.4.7-1.4-.6 0-1.3.4-1.6 1m128.8 2.5c0 .8.4 1.2.9.9s.6-1 .3-1.5c-.9-1.3-1.2-1.1-1.2.6m3.7-.5c0 .5.5 1 1.1 1 .5 0 .7-.5.4-1-.3-.6-.8-1-1.1-1-.2 0-.4.4-.4 1m-3.1 3.2c-.5 1.8-.6 3.8-.1 3.4.7-.8 1.2-3.6.6-3.6-.2 0-.4.1-.5.2m233.6 7.9c-.4.6-.5 1.2-.2 1.5.2.3.7-.2 1-1.1.7-1.7.1-2-.8-.4m-70.1 2.7c.4.3 1.4.7 2.2.8.9.1 1.3 0 1-.4-.4-.3-1.4-.7-2.2-.8-.9-.1-1.3 0-1 .4M113 450.1c0 .5.5.7 1 .4.6-.3 1-.8 1-1.1 0-.2-.4-.4-1-.4-.5 0-1 .5-1 1.1m4 0c0 .5.5.7 1 .4.6-.3 1-.8 1-1.1 0-.2-.4-.4-1-.4-.5 0-1 .5-1 1.1m204.6 4.6c-.6 1.4-.5 1.5.5.6.7-.7 1-1.5.7-1.8s-.9.2-1.2 1.2m11.9-.7c-.3.5-.1 1 .4 1 .6 0 1.1-.5 1.1-1 0-.6-.2-1-.4-1-.3 0-.8.4-1.1 1"/></svg>