<svg xmlns="http://www.w3.org/2000/svg" width="51" height="51" fill="none" viewBox="0 0 51 51"><path fill="#0A6" fill-opacity=".24" d="M45.117 44.648 3.11 40.233a2.52 2.52 0 0 1-2.25-2.777l3.02-28.73a2.52 2.52 0 0 1 2.777-2.248L48.7 10.897a2.52 2.52 0 0 1 2.248 2.777l-3.02 28.729c-.18 1.389-1.418 2.392-2.81 2.245"/><path fill="#0A6" d="M45.888 42.293H5.594a2.405 2.405 0 0 1-2.41-2.41V12.325a2.405 2.405 0 0 1 2.41-2.41H45.92a2.405 2.405 0 0 1 2.411 2.41v27.558c-.033 1.335-1.108 2.41-2.443 2.41"/><path fill="#fff" fill-opacity=".8" d="M48.298 15.159H3.183v-2.834a2.405 2.405 0 0 1 2.41-2.41H45.92a2.405 2.405 0 0 1 2.411 2.41v2.834z"/><path stroke="#0A6" stroke-linecap="round" stroke-linejoin="round" stroke-miterlimit="10" stroke-width="1.613" d="M45.888 42.293H5.594a2.405 2.405 0 0 1-2.41-2.41V12.325a2.405 2.405 0 0 1 2.41-2.41H45.92a2.405 2.405 0 0 1 2.411 2.41v27.558c-.033 1.335-1.108 2.41-2.443 2.41"/><path stroke="#0A6" stroke-linecap="round" stroke-linejoin="round" stroke-miterlimit="10" stroke-width="1.613" d="M45.888 42.293H5.594a2.405 2.405 0 0 1-2.41-2.41V12.325a2.405 2.405 0 0 1 2.41-2.41H45.92a2.405 2.405 0 0 1 2.411 2.41v27.558c-.033 1.335-1.108 2.41-2.443 2.41"/><path stroke="#0A6" stroke-linecap="round" stroke-linejoin="round" stroke-miterlimit="10" stroke-width="1.613" d="M48.298 15.159H3.183v-2.834a2.405 2.405 0 0 1 2.41-2.41H45.92a2.405 2.405 0 0 1 2.411 2.41v2.834z"/><path fill="#E7534E" d="M7.646 13.368a.814.814 0 1 0 0-1.63.814.814 0 0 0 0 1.63"/><path fill="#FFC107" d="M10.578 13.368a.814.814 0 1 0 0-1.63.814.814 0 0 0 0 1.63"/><path fill="#0A6" d="M13.542 13.368a.814.814 0 1 0 0-1.63.814.814 0 0 0 0 1.63"/><rect width="31.798" height="3.976" x="14.939" y="17.331" fill="#F7F7F7" rx=".689"/><rect width="31.798" height="3.976" x="14.939" y="17.331" stroke="#CCEEE0" stroke-width=".46" rx=".689"/><path stroke="#64BDFF" stroke-linecap="round" stroke-linejoin="round" stroke-miterlimit="10" stroke-opacity=".7" stroke-width="1.613" d="M29.154 19.319h11.108"/><path stroke="#FFBE78" stroke-linecap="round" stroke-linejoin="round" stroke-miterlimit="10" stroke-width="1.613" d="M20.13 19.319h6.613"/><path stroke="#C383F2" stroke-linecap="round" stroke-linejoin="round" stroke-miterlimit="10" stroke-width="1.613" d="M16.548 19.319h1.21"/><path fill="#fff" d="m4.873 20.504-.597-2.053h.548l.31 1.346h.017l.354-1.346h.447l.353 1.349h.017l.311-1.349h.547l-.596 2.053h-.478l-.37-1.245H5.72l-.37 1.245zm3.005 0-.598-2.053h.548l.31 1.346h.017l.354-1.346h.447L9.31 19.8h.017l.31-1.349h.548l-.596 2.053H9.11l-.37-1.245h-.015l-.37 1.245zm3.004 0-.597-2.053h.548l.31 1.346h.017l.354-1.346h.447l.353 1.349h.018l.31-1.349h.548l-.597 2.053h-.478l-.37-1.245h-.016l-.37 1.245zm-6.009 6.452-.597-2.053h.548l.31 1.345h.017l.354-1.345h.447l.353 1.348h.017l.311-1.348h.547l-.596 2.053h-.478l-.37-1.245H5.72l-.37 1.245zm3.005 0-.598-2.053h.548l.31 1.345h.017l.354-1.345h.447l.354 1.348h.017l.31-1.348h.548l-.596 2.053H9.11l-.37-1.245h-.015l-.37 1.245zm3.004 0-.597-2.053h.548l.31 1.345h.017l.354-1.345h.447l.353 1.348h.018l.31-1.348h.548l-.597 2.053h-.478l-.37-1.245h-.016l-.37 1.245zm-6.009 6.452-.597-2.053h.548l.31 1.345h.017l.354-1.345h.447l.353 1.348h.017l.311-1.348h.547l-.596 2.053h-.478l-.37-1.245H5.72l-.37 1.245zm3.005 0-.598-2.053h.548l.31 1.345h.017l.354-1.345h.447l.354 1.348h.017l.31-1.348h.548l-.596 2.053H9.11l-.37-1.245h-.015l-.37 1.245zm3.004 0-.597-2.053h.548l.31 1.345h.017l.354-1.345h.447l.353 1.348h.018l.31-1.348h.548l-.597 2.053h-.478l-.37-1.245h-.016l-.37 1.245z"/><rect width="31.798" height="3.976" x="14.939" y="23.782" fill="#F7F7F7" rx=".689"/><rect width="31.798" height="3.976" x="14.939" y="23.782" stroke="#CCEEE0" stroke-width=".46" rx=".689"/><path stroke="#64BDFF" stroke-linecap="round" stroke-linejoin="round" stroke-miterlimit="10" stroke-opacity=".7" stroke-width="1.613" d="M29.154 25.77h11.108"/><path stroke="#FFBE78" stroke-linecap="round" stroke-linejoin="round" stroke-miterlimit="10" stroke-width="1.613" d="M20.13 25.77h6.613"/><path stroke="#C383F2" stroke-linecap="round" stroke-linejoin="round" stroke-miterlimit="10" stroke-width="1.613" d="M16.548 25.77h1.21"/><rect width="31.798" height="3.976" x="14.939" y="30.234" fill="#F7F7F7" rx=".689"/><rect width="31.798" height="3.976" x="14.939" y="30.234" stroke="#CCEEE0" stroke-width=".46" rx=".689"/><path stroke="#64BDFF" stroke-linecap="round" stroke-linejoin="round" stroke-miterlimit="10" stroke-opacity=".7" stroke-width="1.613" d="M29.154 32.222h11.108"/><path stroke="#FFBE78" stroke-linecap="round" stroke-linejoin="round" stroke-miterlimit="10" stroke-width="1.613" d="M20.13 32.222h6.613"/><path stroke="#C383F2" stroke-linecap="round" stroke-linejoin="round" stroke-miterlimit="10" stroke-width="1.613" d="M16.548 32.222h1.21"/><g clip-path="url(#a)"><circle cx="39.105" cy="38.674" r="11.089" fill="#0A6"/><path fill="#CCEEE0" d="M50.194 38.674a11.089 11.089 0 1 1-22.178 0 11.089 11.089 0 0 1 22.178 0m-5.503-4.2a1.04 1.04 0 0 0-1.497.03l-4.814 6.134-2.901-2.903a1.04 1.04 0 0 0-1.47 1.47l3.668 3.669a1.04 1.04 0 0 0 1.496-.028l5.533-6.917a1.04 1.04 0 0 0-.014-1.455z"/></g><defs><clipPath id="a"><path fill="#fff" d="M28.016 27.585h22.177v22.177H28.016z"/></clipPath></defs></svg>