<svg width="51" height="51" viewBox="0 0 51 51" fill="none" xmlns="http://www.w3.org/2000/svg">
<path d="M45.1168 44.6483L3.10969 40.2331C1.71737 40.0868 0.714513 38.8484 0.860851 37.4561L3.88041 8.72689C4.02675 7.33458 5.26518 6.33171 6.65749 6.47805L48.6985 10.8967C50.0908 11.0431 51.0937 12.2815 50.9474 13.6738L47.9278 42.403C47.7475 43.7917 46.5091 44.7946 45.1168 44.6483Z" fill="#00AA66" fill-opacity="0.24"/>
<path d="M45.8879 42.2933H5.5936C4.25806 42.2933 3.18311 41.2184 3.18311 39.8828V12.325C3.18311 10.9895 4.25806 9.91455 5.5936 9.91455H45.9205C47.256 9.91455 48.331 10.9895 48.331 12.325V39.8828C48.2984 41.2184 47.2234 42.2933 45.8879 42.2933Z" fill="#00AA66"/>
<path d="M48.2984 15.159H3.18311V12.3251C3.18311 10.9895 4.25806 9.91455 5.5936 9.91455H45.9205C47.256 9.91455 48.331 10.9895 48.331 12.3251V15.159H48.2984Z" fill="white" fill-opacity="0.8"/>
<path d="M45.8879 42.2933H5.5936C4.25806 42.2933 3.18311 41.2184 3.18311 39.8828V12.3251C3.18311 10.9895 4.25806 9.91455 5.5936 9.91455H45.9205C47.256 9.91455 48.331 10.9895 48.331 12.3251V39.8828C48.2984 41.2184 47.2234 42.2933 45.8879 42.2933Z" stroke="#00AA66" stroke-width="1.6129" stroke-miterlimit="10" stroke-linecap="round" stroke-linejoin="round"/>
<path d="M45.8879 42.2933H5.5936C4.25806 42.2933 3.18311 41.2184 3.18311 39.8828V12.3251C3.18311 10.9895 4.25806 9.91455 5.5936 9.91455H45.9205C47.256 9.91455 48.331 10.9895 48.331 12.3251V39.8828C48.2984 41.2184 47.2234 42.2933 45.8879 42.2933Z" stroke="#00AA66" stroke-width="1.6129" stroke-miterlimit="10" stroke-linecap="round" stroke-linejoin="round"/>
<path d="M48.2984 15.159H3.18311V12.3251C3.18311 10.9895 4.25806 9.91455 5.5936 9.91455H45.9205C47.256 9.91455 48.331 10.9895 48.331 12.3251V15.159H48.2984Z" stroke="#00AA66" stroke-width="1.6129" stroke-miterlimit="10" stroke-linecap="round" stroke-linejoin="round"/>
<path d="M7.6459 13.3675C8.09565 13.3675 8.46025 13.0029 8.46025 12.5532C8.46025 12.1034 8.09565 11.7388 7.6459 11.7388C7.19614 11.7388 6.83154 12.1034 6.83154 12.5532C6.83154 13.0029 7.19614 13.3675 7.6459 13.3675Z" fill="#E7534E"/>
<path d="M10.5775 13.3676C11.0273 13.3676 11.3919 13.003 11.3919 12.5532C11.3919 12.1035 11.0273 11.7389 10.5775 11.7389C10.1278 11.7389 9.76318 12.1035 9.76318 12.5532C9.76318 13.003 10.1278 13.3676 10.5775 13.3676Z" fill="#FFC107"/>
<path d="M13.5419 13.3676C13.9917 13.3676 14.3563 13.003 14.3563 12.5532C14.3563 12.1035 13.9917 11.7389 13.5419 11.7389C13.0921 11.7389 12.7275 12.1035 12.7275 12.5532C12.7275 13.003 13.0921 13.3676 13.5419 13.3676Z" fill="#00AA66"/>
<rect x="14.9393" y="17.3309" width="31.7984" height="3.97587" rx="0.689426" fill="#F7F7F7"/>
<rect x="14.9393" y="17.3309" width="31.7984" height="3.97587" rx="0.689426" stroke="#CCEEE0" stroke-width="0.459617"/>
<path d="M29.1538 19.3188H40.2616" stroke="#64BDFF" stroke-opacity="0.7" stroke-width="1.6129" stroke-miterlimit="10" stroke-linecap="round" stroke-linejoin="round"/>
<path d="M20.1309 19.3188H26.7434" stroke="#FFBE78" stroke-width="1.6129" stroke-miterlimit="10" stroke-linecap="round" stroke-linejoin="round"/>
<path d="M16.5479 19.319H17.7575" stroke="#C383F2" stroke-width="1.6129" stroke-miterlimit="10" stroke-linecap="round" stroke-linejoin="round"/>
<path d="M4.8731 20.5043L4.2757 18.4515H4.82398L5.1337 19.7967H5.15074L5.50457 18.4515H5.95161L6.30543 19.7997H6.32247L6.6332 18.4515H7.18047L6.58408 20.5043H6.10597L5.73611 19.2594H5.72007L5.35021 20.5043H4.8731ZM7.8776 20.5043L7.28021 18.4515H7.82849L8.13821 19.7967H8.15525L8.50907 18.4515H8.95611L9.30994 19.7997H9.32698L9.6377 18.4515H10.185L9.58859 20.5043H9.11047L8.74061 19.2594H8.72457L8.35471 20.5043H7.8776ZM10.8821 20.5043L10.2847 18.4515H10.833L11.1427 19.7967H11.1598L11.5136 18.4515H11.9606L12.3144 19.7997H12.3315L12.6422 18.4515H13.1895L12.5931 20.5043H12.115L11.7451 19.2594H11.7291L11.3592 20.5043H10.8821Z" fill="white"/>
<path d="M4.8731 26.956L4.2757 24.9032H4.82398L5.1337 26.2483H5.15074L5.50457 24.9032H5.95161L6.30543 26.2514H6.32247L6.6332 24.9032H7.18047L6.58408 26.956H6.10597L5.73611 25.7111H5.72007L5.35021 26.956H4.8731ZM7.8776 26.956L7.28021 24.9032H7.82849L8.13821 26.2483H8.15525L8.50907 24.9032H8.95611L9.30994 26.2514H9.32698L9.6377 24.9032H10.185L9.58859 26.956H9.11047L8.74061 25.7111H8.72457L8.35471 26.956H7.8776ZM10.8821 26.956L10.2847 24.9032H10.833L11.1427 26.2483H11.1598L11.5136 24.9032H11.9606L12.3144 26.2514H12.3315L12.6422 24.9032H13.1895L12.5931 26.956H12.115L11.7451 25.7111H11.7291L11.3592 26.956H10.8821Z" fill="white"/>
<path d="M4.8731 33.4076L4.2757 31.3548H4.82398L5.1337 32.6999H5.15074L5.50457 31.3548H5.95161L6.30543 32.7029H6.32247L6.6332 31.3548H7.18047L6.58408 33.4076H6.10597L5.73611 32.1627H5.72007L5.35021 33.4076H4.8731ZM7.8776 33.4076L7.28021 31.3548H7.82849L8.13821 32.6999H8.15525L8.50907 31.3548H8.95611L9.30994 32.7029H9.32698L9.6377 31.3548H10.185L9.58859 33.4076H9.11047L8.74061 32.1627H8.72457L8.35471 33.4076H7.8776ZM10.8821 33.4076L10.2847 31.3548H10.833L11.1427 32.6999H11.1598L11.5136 31.3548H11.9606L12.3144 32.7029H12.3315L12.6422 31.3548H13.1895L12.5931 33.4076H12.115L11.7451 32.1627H11.7291L11.3592 33.4076H10.8821Z" fill="white"/>
<rect x="14.9393" y="23.7825" width="31.7984" height="3.97587" rx="0.689426" fill="#F7F7F7"/>
<rect x="14.9393" y="23.7825" width="31.7984" height="3.97587" rx="0.689426" stroke="#CCEEE0" stroke-width="0.459617"/>
<path d="M29.1538 25.7704H40.2616" stroke="#64BDFF" stroke-opacity="0.7" stroke-width="1.6129" stroke-miterlimit="10" stroke-linecap="round" stroke-linejoin="round"/>
<path d="M20.1309 25.7704H26.7434" stroke="#FFBE78" stroke-width="1.6129" stroke-miterlimit="10" stroke-linecap="round" stroke-linejoin="round"/>
<path d="M16.5479 25.7706H17.7575" stroke="#C383F2" stroke-width="1.6129" stroke-miterlimit="10" stroke-linecap="round" stroke-linejoin="round"/>
<rect x="14.9393" y="30.2341" width="31.7984" height="3.97587" rx="0.689426" fill="#F7F7F7"/>
<rect x="14.9393" y="30.2341" width="31.7984" height="3.97587" rx="0.689426" stroke="#CCEEE0" stroke-width="0.459617"/>
<path d="M29.1538 32.222H40.2616" stroke="#64BDFF" stroke-opacity="0.7" stroke-width="1.6129" stroke-miterlimit="10" stroke-linecap="round" stroke-linejoin="round"/>
<path d="M20.1309 32.222H26.7434" stroke="#FFBE78" stroke-width="1.6129" stroke-miterlimit="10" stroke-linecap="round" stroke-linejoin="round"/>
<path d="M16.5479 32.2222H17.7575" stroke="#C383F2" stroke-width="1.6129" stroke-miterlimit="10" stroke-linecap="round" stroke-linejoin="round"/>
<g clip-path="url(#clip0_14367_17616)">
<circle cx="39.1048" cy="38.6737" r="11.0887" fill="#00AA66"/>
<path d="M50.1935 38.6737C50.1935 41.6146 49.0253 44.435 46.9457 46.5146C44.8662 48.5941 42.0457 49.7624 39.1048 49.7624C36.1639 49.7624 33.3435 48.5941 31.2639 46.5146C29.1844 44.435 28.0161 41.6146 28.0161 38.6737C28.0161 35.7328 29.1844 32.9123 31.2639 30.8328C33.3435 28.7532 36.1639 27.585 39.1048 27.585C42.0457 27.585 44.8662 28.7532 46.9457 30.8328C49.0253 32.9123 50.1935 35.7328 50.1935 38.6737ZM44.6908 34.4738C44.5918 34.3752 44.4739 34.2975 44.3441 34.2454C44.2144 34.1934 44.0755 34.168 43.9358 34.1708C43.796 34.1737 43.6583 34.2047 43.5308 34.262C43.4033 34.3193 43.2887 34.4017 43.1938 34.5043L38.3799 40.6378L35.4788 37.7353C35.2817 37.5517 35.0211 37.4517 34.7518 37.4564C34.4825 37.4612 34.2255 37.5703 34.035 37.7608C33.8446 37.9512 33.7355 38.2082 33.7307 38.4775C33.726 38.7468 33.8259 39.0075 34.0096 39.2045L37.6772 42.8735C37.776 42.9721 37.8936 43.0499 38.0231 43.102C38.1526 43.1542 38.2913 43.1797 38.4308 43.1772C38.5704 43.1746 38.708 43.1439 38.8355 43.087C38.963 43.03 39.0777 42.948 39.1727 42.8458L44.706 35.9292C44.8946 35.7331 44.9989 35.4708 44.9963 35.1987C44.9937 34.9266 44.8845 34.6663 44.6921 34.4738H44.6908Z" fill="#CCEEE0"/>
</g>
<defs>
<clipPath id="clip0_14367_17616">
<rect width="22.1774" height="22.1774" fill="white" transform="translate(28.0161 27.585)"/>
</clipPath>
</defs>
</svg>